%TF.GenerationSoftware,KiCad,Pcbnew,7.0.9-dirty*%
%TF.CreationDate,2023-12-27T00:33:38-08:00*%
%TF.ProjectId,hardware,68617264-7761-4726-952e-6b696361645f,rev?*%
%TF.SameCoordinates,Original*%
%TF.FileFunction,Copper,L1,Top*%
%TF.FilePolarity,Positive*%
%FSLAX46Y46*%
G04 Gerber Fmt 4.6, Leading zero omitted, Abs format (unit mm)*
G04 Created by KiCad (PCBNEW 7.0.9-dirty) date 2023-12-27 00:33:38*
%MOMM*%
%LPD*%
G01*
G04 APERTURE LIST*
G04 Aperture macros list*
%AMRoundRect*
0 Rectangle with rounded corners*
0 $1 Rounding radius*
0 $2 $3 $4 $5 $6 $7 $8 $9 X,Y pos of 4 corners*
0 Add a 4 corners polygon primitive as box body*
4,1,4,$2,$3,$4,$5,$6,$7,$8,$9,$2,$3,0*
0 Add four circle primitives for the rounded corners*
1,1,$1+$1,$2,$3*
1,1,$1+$1,$4,$5*
1,1,$1+$1,$6,$7*
1,1,$1+$1,$8,$9*
0 Add four rect primitives between the rounded corners*
20,1,$1+$1,$2,$3,$4,$5,0*
20,1,$1+$1,$4,$5,$6,$7,0*
20,1,$1+$1,$6,$7,$8,$9,0*
20,1,$1+$1,$8,$9,$2,$3,0*%
%AMFreePoly0*
4,1,6,0.725000,-0.725000,-0.725000,-0.725000,-0.725000,0.125000,-0.125000,0.725000,0.725000,0.725000,0.725000,-0.725000,0.725000,-0.725000,$1*%
G04 Aperture macros list end*
%TA.AperFunction,SMDPad,CuDef*%
%ADD10RoundRect,0.140000X-0.140000X-0.170000X0.140000X-0.170000X0.140000X0.170000X-0.140000X0.170000X0*%
%TD*%
%TA.AperFunction,SMDPad,CuDef*%
%ADD11RoundRect,0.135000X-0.135000X-0.185000X0.135000X-0.185000X0.135000X0.185000X-0.135000X0.185000X0*%
%TD*%
%TA.AperFunction,ComponentPad*%
%ADD12R,1.500000X1.500000*%
%TD*%
%TA.AperFunction,ComponentPad*%
%ADD13C,1.500000*%
%TD*%
%TA.AperFunction,SMDPad,CuDef*%
%ADD14R,0.550000X0.250000*%
%TD*%
%TA.AperFunction,SMDPad,CuDef*%
%ADD15R,0.350000X0.500000*%
%TD*%
%TA.AperFunction,SMDPad,CuDef*%
%ADD16R,1.450000X0.600000*%
%TD*%
%TA.AperFunction,SMDPad,CuDef*%
%ADD17R,1.450000X0.300000*%
%TD*%
%TA.AperFunction,ComponentPad*%
%ADD18O,2.100000X1.000000*%
%TD*%
%TA.AperFunction,ComponentPad*%
%ADD19O,1.600000X1.000000*%
%TD*%
%TA.AperFunction,SMDPad,CuDef*%
%ADD20R,1.050000X0.650000*%
%TD*%
%TA.AperFunction,ComponentPad*%
%ADD21R,1.700000X1.700000*%
%TD*%
%TA.AperFunction,ComponentPad*%
%ADD22O,1.700000X1.700000*%
%TD*%
%TA.AperFunction,SMDPad,CuDef*%
%ADD23RoundRect,0.150000X-0.512500X-0.150000X0.512500X-0.150000X0.512500X0.150000X-0.512500X0.150000X0*%
%TD*%
%TA.AperFunction,SMDPad,CuDef*%
%ADD24R,1.500000X0.900000*%
%TD*%
%TA.AperFunction,SMDPad,CuDef*%
%ADD25R,0.400000X0.800000*%
%TD*%
%TA.AperFunction,SMDPad,CuDef*%
%ADD26R,0.800000X0.400000*%
%TD*%
%TA.AperFunction,SMDPad,CuDef*%
%ADD27FreePoly0,270.000000*%
%TD*%
%TA.AperFunction,SMDPad,CuDef*%
%ADD28R,1.450000X1.450000*%
%TD*%
%TA.AperFunction,SMDPad,CuDef*%
%ADD29R,0.700000X0.700000*%
%TD*%
%TA.AperFunction,ComponentPad*%
%ADD30R,1.600000X1.600000*%
%TD*%
%TA.AperFunction,ComponentPad*%
%ADD31O,1.600000X1.600000*%
%TD*%
%TA.AperFunction,SMDPad,CuDef*%
%ADD32RoundRect,0.218750X-0.218750X-0.256250X0.218750X-0.256250X0.218750X0.256250X-0.218750X0.256250X0*%
%TD*%
%TA.AperFunction,SMDPad,CuDef*%
%ADD33R,2.000000X1.500000*%
%TD*%
%TA.AperFunction,SMDPad,CuDef*%
%ADD34R,2.000000X3.800000*%
%TD*%
%TA.AperFunction,ViaPad*%
%ADD35C,0.800000*%
%TD*%
%TA.AperFunction,Conductor*%
%ADD36C,0.250000*%
%TD*%
G04 APERTURE END LIST*
D10*
%TO.P,C7,1*%
%TO.N,Net-(U6-DVI)*%
X163500000Y-70000000D03*
%TO.P,C7,2*%
%TO.N,GND*%
X164460000Y-70000000D03*
%TD*%
%TO.P,C4,1*%
%TO.N,3V3*%
X169020000Y-68500000D03*
%TO.P,C4,2*%
%TO.N,GND*%
X169980000Y-68500000D03*
%TD*%
D11*
%TO.P,R9,1*%
%TO.N,USBD-*%
X150690000Y-82000000D03*
%TO.P,R9,2*%
%TO.N,IO19*%
X151710000Y-82000000D03*
%TD*%
%TO.P,R18,1*%
%TO.N,IO3_SDA*%
X163230000Y-84080000D03*
%TO.P,R18,2*%
%TO.N,3V3*%
X164250000Y-84080000D03*
%TD*%
%TO.P,R3,1*%
%TO.N,Net-(U2-ISET)*%
X146480000Y-82150000D03*
%TO.P,R3,2*%
%TO.N,GND*%
X147500000Y-82150000D03*
%TD*%
%TO.P,R1,1*%
%TO.N,Net-(U2-EN#)*%
X146480000Y-78650000D03*
%TO.P,R1,2*%
%TO.N,GND*%
X147500000Y-78650000D03*
%TD*%
%TO.P,R2,1*%
%TO.N,Net-(J1-CC2)*%
X141980000Y-78650000D03*
%TO.P,R2,2*%
%TO.N,GND*%
X143000000Y-78650000D03*
%TD*%
D12*
%TO.P,U4,1,VDD*%
%TO.N,3V3*%
X145420000Y-87500000D03*
D13*
%TO.P,U4,2,DATA*%
%TO.N,IO3_SDA*%
X147960000Y-87500000D03*
%TO.P,U4,3,NC*%
%TO.N,unconnected-(U4-NC-Pad3)*%
X150500000Y-87500000D03*
%TO.P,U4,4,GND*%
%TO.N,GND*%
X153040000Y-87500000D03*
%TD*%
D14*
%TO.P,U6,1,VCC*%
%TO.N,3V3*%
X156500000Y-75000000D03*
%TO.P,U6,2,ADDR*%
%TO.N,unconnected-(U6-ADDR-Pad2)*%
X156500000Y-75500000D03*
%TO.P,U6,3,GND*%
%TO.N,GND*%
X156500000Y-76000000D03*
%TO.P,U6,4,SDA*%
%TO.N,IO3_SDA*%
X159250000Y-76000000D03*
%TO.P,U6,5,DVI*%
%TO.N,Net-(U6-DVI)*%
X159250000Y-75500000D03*
%TO.P,U6,6,SCL*%
%TO.N,Net-(D3-A)*%
X159250000Y-75000000D03*
%TD*%
D10*
%TO.P,C3,1*%
%TO.N,3V3*%
X173040000Y-66920000D03*
%TO.P,C3,2*%
%TO.N,GND*%
X174000000Y-66920000D03*
%TD*%
D11*
%TO.P,R11,1*%
%TO.N,3V3*%
X154500000Y-78500000D03*
%TO.P,R11,2*%
%TO.N,IO3_SDA*%
X155520000Y-78500000D03*
%TD*%
D15*
%TO.P,U5,1,GND*%
%TO.N,GND*%
X172700000Y-78000000D03*
%TO.P,U5,2,CSB*%
%TO.N,IO6*%
X173350000Y-78000000D03*
%TO.P,U5,3,SDI*%
%TO.N,IO3_SDA*%
X174000000Y-78000000D03*
%TO.P,U5,4,SCK*%
%TO.N,IO4_SCL*%
X174650000Y-78000000D03*
%TO.P,U5,5,SDO*%
%TO.N,IO5*%
X174650000Y-79600000D03*
%TO.P,U5,6,VDDIO*%
%TO.N,3V3*%
X174000000Y-79600000D03*
%TO.P,U5,7,GND*%
%TO.N,GND*%
X173350000Y-79600000D03*
%TO.P,U5,8,VDD*%
%TO.N,3V3*%
X172700000Y-79600000D03*
%TD*%
D11*
%TO.P,R6,1*%
%TO.N,3V3*%
X167940000Y-70500000D03*
%TO.P,R6,2*%
%TO.N,IO8*%
X168960000Y-70500000D03*
%TD*%
D16*
%TO.P,J1,A1,GND*%
%TO.N,GND*%
X138000000Y-74140000D03*
%TO.P,J1,A4,VBUS*%
%TO.N,Net-(U2-VIN)*%
X138000000Y-74940000D03*
D17*
%TO.P,J1,A5,CC1*%
%TO.N,Net-(J1-CC1)*%
X138000000Y-76140000D03*
%TO.P,J1,A6,D+*%
%TO.N,USBD+*%
X138000000Y-77140000D03*
%TO.P,J1,A7,D-*%
%TO.N,USBD-*%
X138000000Y-77640000D03*
%TO.P,J1,A8,SBU1*%
%TO.N,unconnected-(J1-SBU1-PadA8)*%
X138000000Y-78640000D03*
D16*
%TO.P,J1,A9,VBUS*%
%TO.N,Net-(U2-VIN)*%
X138000000Y-79840000D03*
%TO.P,J1,A12,GND*%
%TO.N,GND*%
X138000000Y-80640000D03*
%TO.P,J1,B1,GND*%
X138000000Y-80640000D03*
%TO.P,J1,B4,VBUS*%
%TO.N,Net-(U2-VIN)*%
X138000000Y-79840000D03*
D17*
%TO.P,J1,B5,CC2*%
%TO.N,Net-(J1-CC2)*%
X138000000Y-79140000D03*
%TO.P,J1,B6,D+*%
%TO.N,USBD+*%
X138000000Y-78140000D03*
%TO.P,J1,B7,D-*%
%TO.N,USBD-*%
X138000000Y-76640000D03*
%TO.P,J1,B8,SBU2*%
%TO.N,unconnected-(J1-SBU2-PadB8)*%
X138000000Y-75640000D03*
D16*
%TO.P,J1,B9,VBUS*%
%TO.N,Net-(U2-VIN)*%
X138000000Y-74940000D03*
%TO.P,J1,B12,GND*%
%TO.N,GND*%
X138000000Y-74140000D03*
D18*
%TO.P,J1,S1,SHIELD*%
%TO.N,unconnected-(J1-SHIELD-PadS1)*%
X137085000Y-73070000D03*
D19*
X132905000Y-73070000D03*
D18*
X137085000Y-81710000D03*
D19*
X132905000Y-81710000D03*
%TD*%
D20*
%TO.P,SW1,1,1*%
%TO.N,GND*%
X177350000Y-67000000D03*
X181500000Y-67000000D03*
%TO.P,SW1,2,2*%
%TO.N,Net-(U1-EN{slash}CHIP_PU)*%
X177350000Y-69150000D03*
X181500000Y-69150000D03*
%TD*%
D11*
%TO.P,R15,1*%
%TO.N,GND*%
X172490000Y-84500000D03*
%TO.P,R15,2*%
%TO.N,IO5*%
X173510000Y-84500000D03*
%TD*%
D21*
%TO.P,J4,1,Pin_1*%
%TO.N,IO2*%
X165220000Y-89000000D03*
D22*
%TO.P,J4,2,Pin_2*%
%TO.N,IO3_SDA*%
X167760000Y-89000000D03*
%TO.P,J4,3,Pin_3*%
%TO.N,IO4_SCL*%
X170300000Y-89000000D03*
%TO.P,J4,4,Pin_4*%
%TO.N,GND*%
X172840000Y-89000000D03*
%TO.P,J4,5,Pin_5*%
%TO.N,3V3*%
X175380000Y-89000000D03*
%TO.P,J4,6,Pin_6*%
%TO.N,IO5*%
X177920000Y-89000000D03*
%TO.P,J4,7,Pin_7*%
%TO.N,IO6*%
X180460000Y-89000000D03*
%TO.P,J4,8,Pin_8*%
%TO.N,IO7*%
X183000000Y-89000000D03*
%TO.P,J4,9,Pin_9*%
%TO.N,IO8*%
X185540000Y-89000000D03*
%TO.P,J4,10,Pin_10*%
%TO.N,IO9_BOOT*%
X188080000Y-89000000D03*
%TO.P,J4,11,Pin_11*%
%TO.N,3V3*%
X190620000Y-89000000D03*
%TO.P,J4,12,Pin_12*%
%TO.N,GND*%
X193160000Y-89000000D03*
%TD*%
D23*
%TO.P,U2,1,VOUT*%
%TO.N,+5V*%
X149725000Y-72500000D03*
%TO.P,U2,2,GND*%
%TO.N,GND*%
X149725000Y-73450000D03*
%TO.P,U2,3,FLAG#*%
%TO.N,unconnected-(U2-FLAG#-Pad3)*%
X149725000Y-74400000D03*
%TO.P,U2,4,EN#*%
%TO.N,Net-(U2-EN#)*%
X152000000Y-74400000D03*
%TO.P,U2,5,ISET*%
%TO.N,Net-(U2-ISET)*%
X152000000Y-73450000D03*
%TO.P,U2,6,VIN*%
%TO.N,Net-(U2-VIN)*%
X152000000Y-72500000D03*
%TD*%
D11*
%TO.P,R10,1*%
%TO.N,USBD+*%
X150690000Y-78500000D03*
%TO.P,R10,2*%
%TO.N,IO18*%
X151710000Y-78500000D03*
%TD*%
%TO.P,R16,1*%
%TO.N,Net-(D3-A)*%
X163230000Y-73920000D03*
%TO.P,R16,2*%
%TO.N,3V3*%
X164250000Y-73920000D03*
%TD*%
D10*
%TO.P,C5,1*%
%TO.N,Net-(U1-EN{slash}CHIP_PU)*%
X173020000Y-74500000D03*
%TO.P,C5,2*%
%TO.N,GND*%
X173980000Y-74500000D03*
%TD*%
D24*
%TO.P,D1,1,VDD*%
%TO.N,3V3*%
X147100000Y-63500000D03*
%TO.P,D1,2,DOUT*%
%TO.N,unconnected-(D1-DOUT-Pad2)*%
X147100000Y-66800000D03*
%TO.P,D1,3,VSS*%
%TO.N,GND*%
X152000000Y-66800000D03*
%TO.P,D1,4,DIN*%
%TO.N,IO2*%
X152000000Y-63500000D03*
%TD*%
D25*
%TO.P,U1,1,GND*%
%TO.N,GND*%
X188620000Y-72600000D03*
%TO.P,U1,2,GND*%
X187820000Y-72600000D03*
%TO.P,U1,3,3V3*%
%TO.N,3V3*%
X187020000Y-72600000D03*
%TO.P,U1,4,NC*%
%TO.N,unconnected-(U1-NC-Pad4)*%
X186220000Y-72600000D03*
%TO.P,U1,5,GPIO2/ADC1_CH2*%
%TO.N,IO2*%
X185420000Y-72600000D03*
%TO.P,U1,6,GPIO3/ADC1_CH3*%
%TO.N,IO3_SDA*%
X184620000Y-72600000D03*
%TO.P,U1,7,NC*%
%TO.N,unconnected-(U1-NC-Pad7)*%
X183820000Y-72600000D03*
%TO.P,U1,8,EN/CHIP_PU*%
%TO.N,Net-(U1-EN{slash}CHIP_PU)*%
X183020000Y-72600000D03*
%TO.P,U1,9,NC*%
%TO.N,unconnected-(U1-NC-Pad9)*%
X182220000Y-72600000D03*
%TO.P,U1,10,NC*%
%TO.N,unconnected-(U1-NC-Pad10)*%
X181420000Y-72600000D03*
%TO.P,U1,11,GND*%
%TO.N,GND*%
X180620000Y-72600000D03*
D26*
%TO.P,U1,12,GPIO0/ADC1_CH0/XTAL_32K_P*%
%TO.N,IO0*%
X179720000Y-73700000D03*
%TO.P,U1,13,GPIO1/ADC1_CH1/XTAL_32K_N*%
%TO.N,IO1*%
X179720000Y-74500000D03*
%TO.P,U1,14,GND*%
%TO.N,GND*%
X179720000Y-75300000D03*
%TO.P,U1,15,NC*%
%TO.N,unconnected-(U1-NC-Pad15)*%
X179720000Y-76100000D03*
%TO.P,U1,16,GPIO10*%
%TO.N,IO10*%
X179720000Y-76900000D03*
%TO.P,U1,17,NC*%
%TO.N,unconnected-(U1-NC-Pad17)*%
X179720000Y-77700000D03*
%TO.P,U1,18,GPIO4/ADC1_CH4*%
%TO.N,IO4_SCL*%
X179720000Y-78500000D03*
%TO.P,U1,19,GPIO5/ADC2_CH0*%
%TO.N,IO5*%
X179720000Y-79300000D03*
%TO.P,U1,20,GPIO6*%
%TO.N,IO6*%
X179720000Y-80100000D03*
%TO.P,U1,21,GPIO7*%
%TO.N,IO7*%
X179720000Y-80900000D03*
%TO.P,U1,22,GPIO8*%
%TO.N,IO8*%
X179720000Y-81700000D03*
%TO.P,U1,23,GPIO9*%
%TO.N,IO9_BOOT*%
X179720000Y-82500000D03*
%TO.P,U1,24,NC*%
%TO.N,unconnected-(U1-NC-Pad24)*%
X179720000Y-83300000D03*
D25*
%TO.P,U1,25,NC*%
%TO.N,unconnected-(U1-NC-Pad25)*%
X180620000Y-84400000D03*
%TO.P,U1,26,GPIO18/USB_D-*%
%TO.N,IO18*%
X181420000Y-84400000D03*
%TO.P,U1,27,GPIO19/USB_D+*%
%TO.N,IO19*%
X182220000Y-84400000D03*
%TO.P,U1,28,NC*%
%TO.N,unconnected-(U1-NC-Pad28)*%
X183020000Y-84400000D03*
%TO.P,U1,29,NC*%
%TO.N,unconnected-(U1-NC-Pad29)*%
X183820000Y-84400000D03*
%TO.P,U1,30,GPIO20/U0RXD*%
%TO.N,IO20_RX*%
X184620000Y-84400000D03*
%TO.P,U1,31,GPIO21/U0TXD*%
%TO.N,IO21_TX*%
X185420000Y-84400000D03*
%TO.P,U1,32,NC*%
%TO.N,unconnected-(U1-NC-Pad32)*%
X186220000Y-84400000D03*
%TO.P,U1,33,NC*%
%TO.N,unconnected-(U1-NC-Pad33)*%
X187020000Y-84400000D03*
%TO.P,U1,34,NC*%
%TO.N,unconnected-(U1-NC-Pad34)*%
X187820000Y-84400000D03*
%TO.P,U1,35,NC*%
%TO.N,unconnected-(U1-NC-Pad35)*%
X188620000Y-84400000D03*
D26*
%TO.P,U1,36,GND*%
%TO.N,GND*%
X189520000Y-83300000D03*
%TO.P,U1,37,GND*%
X189520000Y-82500000D03*
%TO.P,U1,38,GND*%
X189520000Y-81700000D03*
%TO.P,U1,39,GND*%
X189520000Y-80900000D03*
%TO.P,U1,40,GND*%
X189520000Y-80100000D03*
%TO.P,U1,41,GND*%
X189520000Y-79300000D03*
%TO.P,U1,42,GND*%
X189520000Y-78500000D03*
%TO.P,U1,43,GND*%
X189520000Y-77700000D03*
%TO.P,U1,44,GND*%
X189520000Y-76900000D03*
%TO.P,U1,45,GND*%
X189520000Y-76100000D03*
%TO.P,U1,46,GND*%
X189520000Y-75300000D03*
%TO.P,U1,47,GND*%
X189520000Y-74500000D03*
%TO.P,U1,48,GND*%
X189520000Y-73700000D03*
D27*
%TO.P,U1,49,GND*%
X186595000Y-76525000D03*
D28*
X184620000Y-76525000D03*
X182645000Y-76525000D03*
X186595000Y-78500000D03*
X184620000Y-78500000D03*
X182645000Y-78500000D03*
X186595000Y-80475000D03*
X184620000Y-80475000D03*
X182645000Y-80475000D03*
D29*
%TO.P,U1,50,GND*%
X189570000Y-84450000D03*
%TO.P,U1,51,GND*%
X179670000Y-84450000D03*
%TO.P,U1,52,GND*%
X179670000Y-72550000D03*
%TO.P,U1,53,GND*%
X189570000Y-72550000D03*
%TD*%
D30*
%TO.P,D3,1,K*%
%TO.N,IO4_SCL*%
X159000000Y-87310000D03*
D31*
%TO.P,D3,2,A*%
%TO.N,Net-(D3-A)*%
X159000000Y-79690000D03*
%TD*%
D10*
%TO.P,C1,1*%
%TO.N,+5V*%
X155040000Y-63000000D03*
%TO.P,C1,2*%
%TO.N,GND*%
X156000000Y-63000000D03*
%TD*%
%TO.P,C6,1*%
%TO.N,IO9_BOOT*%
X192115000Y-67075000D03*
%TO.P,C6,2*%
%TO.N,GND*%
X193075000Y-67075000D03*
%TD*%
D20*
%TO.P,SW2,1,1*%
%TO.N,IO9_BOOT*%
X185000000Y-67000000D03*
X189150000Y-67000000D03*
%TO.P,SW2,2,2*%
%TO.N,GND*%
X185000000Y-69150000D03*
X189150000Y-69150000D03*
%TD*%
D11*
%TO.P,R5,1*%
%TO.N,3V3*%
X167980000Y-66920000D03*
%TO.P,R5,2*%
%TO.N,Net-(U1-EN{slash}CHIP_PU)*%
X169000000Y-66920000D03*
%TD*%
%TO.P,R4,1*%
%TO.N,Net-(J1-CC1)*%
X141980000Y-82150000D03*
%TO.P,R4,2*%
%TO.N,GND*%
X143000000Y-82150000D03*
%TD*%
%TO.P,R8,1*%
%TO.N,IO10*%
X159480000Y-69500000D03*
%TO.P,R8,2*%
%TO.N,Net-(D2-A)*%
X160500000Y-69500000D03*
%TD*%
%TO.P,R12,1*%
%TO.N,IO4_SCL*%
X167980000Y-77920000D03*
%TO.P,R12,2*%
%TO.N,3V3*%
X169000000Y-77920000D03*
%TD*%
%TO.P,R17,1*%
%TO.N,Net-(U6-DVI)*%
X163230000Y-79000000D03*
%TO.P,R17,2*%
%TO.N,3V3*%
X164250000Y-79000000D03*
%TD*%
%TO.P,R14,1*%
%TO.N,IO6*%
X165990000Y-85000000D03*
%TO.P,R14,2*%
%TO.N,3V3*%
X167010000Y-85000000D03*
%TD*%
%TO.P,R7,1*%
%TO.N,3V3*%
X167960000Y-74420000D03*
%TO.P,R7,2*%
%TO.N,IO2*%
X168980000Y-74420000D03*
%TD*%
%TO.P,R13,1*%
%TO.N,IO3_SDA*%
X167980000Y-81500000D03*
%TO.P,R13,2*%
%TO.N,3V3*%
X169000000Y-81500000D03*
%TD*%
D32*
%TO.P,D2,1,K*%
%TO.N,GND*%
X155000000Y-69500000D03*
%TO.P,D2,2,A*%
%TO.N,Net-(D2-A)*%
X156575000Y-69500000D03*
%TD*%
D21*
%TO.P,J2,1,Pin_1*%
%TO.N,IO0*%
X164720000Y-62500000D03*
D22*
%TO.P,J2,2,Pin_2*%
%TO.N,IO1*%
X167260000Y-62500000D03*
%TO.P,J2,3,Pin_3*%
%TO.N,IO18*%
X169800000Y-62500000D03*
%TO.P,J2,4,Pin_4*%
%TO.N,GND*%
X172340000Y-62500000D03*
%TO.P,J2,5,Pin_5*%
%TO.N,3V3*%
X174880000Y-62500000D03*
%TO.P,J2,6,Pin_6*%
%TO.N,IO19*%
X177420000Y-62500000D03*
%TO.P,J2,7,Pin_7*%
%TO.N,IO20_RX*%
X179960000Y-62500000D03*
%TO.P,J2,8,Pin_8*%
%TO.N,IO21_TX*%
X182500000Y-62500000D03*
%TO.P,J2,9,Pin_9*%
%TO.N,IO10*%
X185040000Y-62500000D03*
%TO.P,J2,10,Pin_10*%
%TO.N,3V3*%
X187580000Y-62500000D03*
%TO.P,J2,11,Pin_11*%
%TO.N,GND*%
X190120000Y-62500000D03*
%TO.P,J2,12,Pin_12*%
X192660000Y-62500000D03*
%TD*%
D33*
%TO.P,U3,1,GND*%
%TO.N,GND*%
X135850000Y-63200000D03*
%TO.P,U3,2,VO*%
%TO.N,3V3*%
X135850000Y-65500000D03*
D34*
X142150000Y-65500000D03*
D33*
%TO.P,U3,3,VI*%
%TO.N,+5V*%
X135850000Y-67800000D03*
%TD*%
D10*
%TO.P,C2,1*%
%TO.N,3V3*%
X158540000Y-63000000D03*
%TO.P,C2,2*%
%TO.N,GND*%
X159500000Y-63000000D03*
%TD*%
D35*
%TO.N,GND*%
X171000000Y-74500000D03*
X189000000Y-86500000D03*
X193000000Y-86500000D03*
X171500000Y-79500000D03*
X176000000Y-82500000D03*
X174000000Y-83000000D03*
X157000000Y-65500000D03*
X160500000Y-66500000D03*
X168500000Y-72000000D03*
X170000000Y-73000000D03*
X172000000Y-73000000D03*
X149000000Y-81500000D03*
X146500000Y-80500000D03*
X143500000Y-80500000D03*
X145000000Y-79000000D03*
X174000000Y-86500000D03*
X158000000Y-70000000D03*
X160000000Y-72000000D03*
X157500000Y-72500000D03*
X155000000Y-72500000D03*
X154500000Y-75000000D03*
X158500000Y-77500000D03*
X157000000Y-79500000D03*
X161000000Y-79500000D03*
X160000000Y-89500000D03*
X144500000Y-85500000D03*
X144500000Y-89500000D03*
X147500000Y-89500000D03*
X151000000Y-89500000D03*
X154000000Y-89500000D03*
X139500000Y-88500000D03*
X134500000Y-88500000D03*
X137000000Y-87000000D03*
X132000000Y-84000000D03*
X135000000Y-85500000D03*
X139000000Y-85500000D03*
X143000000Y-83500000D03*
X145000000Y-70000000D03*
X141000000Y-73000000D03*
X142500000Y-71000000D03*
X147500000Y-71000000D03*
X145500000Y-73500000D03*
X174950856Y-73500000D03*
X175500000Y-75500000D03*
X176500000Y-71500000D03*
X179000000Y-71000000D03*
X181000000Y-71000000D03*
X187000000Y-82000000D03*
X186500000Y-86000000D03*
X165000000Y-80000000D03*
X162500000Y-76000000D03*
X131500000Y-89000000D03*
X162000000Y-66000000D03*
X156000000Y-89000000D03*
X161500000Y-87000000D03*
X156500000Y-85500000D03*
X153500000Y-85500000D03*
X166000000Y-73000000D03*
X162500000Y-85500000D03*
X131000000Y-61500000D03*
X139000000Y-63500000D03*
X163500000Y-86500000D03*
X161500000Y-68000000D03*
X166000000Y-75500000D03*
X132500000Y-62500000D03*
X166000000Y-77500000D03*
X166500000Y-69000000D03*
%TO.N,IO6*%
X176740100Y-78993800D03*
X171047700Y-86023300D03*
%TO.N,IO3_SDA*%
X175159100Y-78802300D03*
X183911500Y-71589200D03*
X168418200Y-82423100D03*
%TO.N,IO10*%
X186607900Y-74252400D03*
%TO.N,IO21_TX*%
X185720700Y-83379600D03*
%TO.N,IO20_RX*%
X184816100Y-82089800D03*
%TO.N,IO19*%
X181899000Y-81842200D03*
X154722000Y-81004800D03*
%TO.N,IO18*%
X151361600Y-77559800D03*
X181204200Y-76736100D03*
%TO.N,IO1*%
X178170000Y-74500000D03*
%TO.N,IO0*%
X176633000Y-73714700D03*
%TO.N,Net-(D3-A)*%
X160120200Y-74576300D03*
%TO.N,IO4_SCL*%
X176040700Y-79711400D03*
%TO.N,IO2*%
X170458500Y-77684900D03*
X183045000Y-70348100D03*
X150613900Y-63893700D03*
%TO.N,IO9_BOOT*%
X187998500Y-67187500D03*
%TD*%
D36*
%TO.N,GND*%
X169980000Y-68500000D02*
X172755852Y-71275852D01*
X172755852Y-71275852D02*
X172755852Y-72244148D01*
X172755852Y-72244148D02*
X172000000Y-73000000D01*
%TO.N,3V3*%
X172688500Y-79600000D02*
X172200000Y-79111500D01*
X172200000Y-79111500D02*
X172200000Y-77300308D01*
X172200000Y-77300308D02*
X172500000Y-77000308D01*
X172500000Y-77000308D02*
X172500000Y-74951490D01*
X172500000Y-74951490D02*
X171105105Y-73556595D01*
X171105105Y-73556595D02*
X171175000Y-73486701D01*
X171175000Y-73486701D02*
X171175000Y-72325000D01*
X171175000Y-72325000D02*
X171918700Y-71581300D01*
X171918700Y-71581300D02*
X169020000Y-68682600D01*
X169020000Y-68682600D02*
X169020000Y-68500000D01*
%TO.N,GND*%
X169980000Y-68500000D02*
X170000000Y-68500000D01*
%TO.N,IO5*%
X174956500Y-84859600D02*
X173869600Y-84859600D01*
%TO.N,GND*%
X172490000Y-84500000D02*
X174000000Y-86010000D01*
X174000000Y-86010000D02*
X174000000Y-86500000D01*
%TO.N,IO5*%
X173869600Y-84859600D02*
X173510000Y-84500000D01*
%TO.N,GND*%
X189570000Y-84450000D02*
X189570000Y-85930000D01*
X189570000Y-85930000D02*
X189000000Y-86500000D01*
X172840000Y-89000000D02*
X172840000Y-87660000D01*
X172840000Y-87660000D02*
X174000000Y-86500000D01*
X180620000Y-72600000D02*
X180620000Y-71380000D01*
X180620000Y-71380000D02*
X181000000Y-71000000D01*
X193160000Y-89000000D02*
X193160000Y-86660000D01*
X193160000Y-86660000D02*
X193000000Y-86500000D01*
X143000000Y-82150000D02*
X143000000Y-83500000D01*
X159500000Y-63000000D02*
X159500000Y-63309999D01*
X159500000Y-63309999D02*
X157309999Y-65500000D01*
X157309999Y-65500000D02*
X157000000Y-65500000D01*
X147500000Y-78650000D02*
X147500000Y-79500000D01*
X147500000Y-79500000D02*
X146500000Y-80500000D01*
X171500000Y-79500000D02*
X171633500Y-79366500D01*
X171633500Y-79366500D02*
X171633500Y-75133500D01*
X171633500Y-75133500D02*
X171000000Y-74500000D01*
%TO.N,IO8*%
X171635700Y-89491900D02*
X172383300Y-90239500D01*
X171635700Y-87448600D02*
X171635700Y-89491900D01*
X170087500Y-83398704D02*
X172224600Y-85535804D01*
X172383300Y-90239500D02*
X183489400Y-90239500D01*
X183489400Y-90239500D02*
X184363100Y-89365800D01*
X172224600Y-86859700D02*
X171635700Y-87448600D01*
X170087500Y-79391104D02*
X170087500Y-83398704D01*
X170000000Y-74025305D02*
X170000000Y-74803604D01*
X171183500Y-75987104D02*
X171183500Y-78295104D01*
X170000000Y-74803604D02*
X171183500Y-75987104D01*
X172224600Y-85535804D02*
X172224600Y-86859700D01*
X168960000Y-70500000D02*
X170725000Y-72265000D01*
X170725000Y-73300305D02*
X170000000Y-74025305D01*
X170725000Y-72265000D02*
X170725000Y-73300305D01*
X171183500Y-78295104D02*
X170087500Y-79391104D01*
X184363100Y-89365800D02*
X184363100Y-89000000D01*
%TO.N,IO4_SCL*%
X170300000Y-89000000D02*
X170300000Y-87823100D01*
X171774600Y-85722200D02*
X171311900Y-85259500D01*
X170300000Y-87823100D02*
X171348700Y-86774400D01*
X171348700Y-86774400D02*
X171348700Y-86750200D01*
X171348700Y-86750200D02*
X171348800Y-86750200D01*
X170630604Y-85259500D02*
X169637500Y-84266396D01*
X171348800Y-86750200D02*
X171774600Y-86324400D01*
X171774600Y-86324400D02*
X171774600Y-85722200D01*
X171311900Y-85259500D02*
X170630604Y-85259500D01*
X169637500Y-84266396D02*
X169637500Y-79577500D01*
X169637500Y-79577500D02*
X167980000Y-77920000D01*
%TO.N,IO6*%
X171047700Y-86023300D02*
X167013300Y-86023300D01*
X167013300Y-86023300D02*
X165990000Y-85000000D01*
%TO.N,3V3*%
X169187500Y-84080000D02*
X168267500Y-85000000D01*
X168267500Y-85000000D02*
X167010000Y-85000000D01*
%TO.N,IO5*%
X174956500Y-84859600D02*
X175000000Y-84816100D01*
X175000000Y-84816100D02*
X175000000Y-81178000D01*
X175000000Y-81178000D02*
X175739700Y-80438300D01*
X174956500Y-84859600D02*
X176158050Y-84859600D01*
X176158050Y-84859600D02*
X177920000Y-86621550D01*
X177920000Y-86621550D02*
X177920000Y-89000000D01*
%TO.N,GND*%
X173980000Y-74500000D02*
X173980000Y-76156704D01*
X173980000Y-76156704D02*
X172700000Y-77436704D01*
X172700000Y-77436704D02*
X172700000Y-78000000D01*
X173980000Y-74500000D02*
X174500000Y-74500000D01*
X174500000Y-74500000D02*
X175500000Y-75500000D01*
X173350000Y-79600000D02*
X173350000Y-79075000D01*
X173350000Y-79075000D02*
X172700000Y-78425000D01*
X172700000Y-78425000D02*
X172700000Y-78000000D01*
X147500000Y-82150000D02*
X147500000Y-82000000D01*
X147500000Y-82000000D02*
X148500000Y-82000000D01*
X148500000Y-82000000D02*
X149000000Y-81500000D01*
X138000000Y-80640000D02*
X139015720Y-80640000D01*
X139015720Y-80640000D02*
X141650720Y-78005000D01*
X141650720Y-78005000D02*
X144005000Y-78005000D01*
X144005000Y-78005000D02*
X145000000Y-79000000D01*
X156500000Y-76000000D02*
X157050000Y-76000000D01*
X157050000Y-76000000D02*
X157500000Y-75550000D01*
X157500000Y-75550000D02*
X157500000Y-72500000D01*
X179670000Y-84450000D02*
X179670000Y-84700000D01*
X179670000Y-84700000D02*
X180151800Y-85181800D01*
X180151800Y-85181800D02*
X185681800Y-85181800D01*
X185681800Y-85181800D02*
X186500000Y-86000000D01*
X179720000Y-75300000D02*
X180880404Y-75300000D01*
X186908205Y-73527400D02*
X187500000Y-74119195D01*
X180880404Y-75300000D02*
X182653004Y-73527400D01*
X182653004Y-73527400D02*
X186908205Y-73527400D01*
X187500000Y-74119195D02*
X187500000Y-75620000D01*
X187500000Y-75620000D02*
X186595000Y-76525000D01*
%TO.N,Net-(U2-ISET)*%
X152455500Y-73450000D02*
X152000000Y-73450000D01*
X153212500Y-74207000D02*
X152455500Y-73450000D01*
X153212500Y-79254700D02*
X153212500Y-74207000D01*
X152371900Y-80095300D02*
X153212500Y-79254700D01*
X148534700Y-80095300D02*
X152371900Y-80095300D01*
X146480000Y-82150000D02*
X148534700Y-80095300D01*
%TO.N,Net-(U2-EN#)*%
X152760600Y-75160600D02*
X152000000Y-74400000D01*
X152760600Y-79067500D02*
X152760600Y-75160600D01*
X152184700Y-79643400D02*
X152760600Y-79067500D01*
X150132000Y-79643400D02*
X152184700Y-79643400D01*
X148473300Y-77984700D02*
X150132000Y-79643400D01*
X147145300Y-77984700D02*
X148473300Y-77984700D01*
X146480000Y-78650000D02*
X147145300Y-77984700D01*
%TO.N,IO8*%
X185540000Y-89000000D02*
X184363100Y-89000000D01*
X184363100Y-88622700D02*
X184363100Y-89000000D01*
X182534500Y-86794100D02*
X184363100Y-88622700D01*
X180149900Y-86794100D02*
X182534500Y-86794100D01*
X178485500Y-85129700D02*
X180149900Y-86794100D01*
X178485500Y-82207600D02*
X178485500Y-85129700D01*
X178993100Y-81700000D02*
X178485500Y-82207600D01*
X179720000Y-81700000D02*
X178993100Y-81700000D01*
%TO.N,IO7*%
X179720000Y-80900000D02*
X178993100Y-80900000D01*
X183000000Y-89000000D02*
X181823100Y-89000000D01*
X181823100Y-88542400D02*
X181823100Y-89000000D01*
X180586600Y-87305900D02*
X181823100Y-88542400D01*
X179954000Y-87305900D02*
X180586600Y-87305900D01*
X178033600Y-85385500D02*
X179954000Y-87305900D01*
X178033600Y-81859500D02*
X178033600Y-85385500D01*
X178993100Y-80900000D02*
X178033600Y-81859500D01*
%TO.N,IO6*%
X173350000Y-78000000D02*
X173350000Y-77423100D01*
X179720000Y-80100000D02*
X178993100Y-80100000D01*
X180460000Y-89000000D02*
X180460000Y-87823100D01*
X176740100Y-78667500D02*
X176740100Y-78993800D01*
X175495700Y-77423100D02*
X176740100Y-78667500D01*
X173350000Y-77423100D02*
X175495700Y-77423100D01*
X179831500Y-87823100D02*
X180460000Y-87823100D01*
X177581700Y-85573300D02*
X179831500Y-87823100D01*
X177581700Y-81511400D02*
X177581700Y-85573300D01*
X178993100Y-80100000D02*
X177581700Y-81511400D01*
%TO.N,IO5*%
X179720000Y-79300000D02*
X178993100Y-79300000D01*
X174650000Y-79600000D02*
X175151900Y-79600000D01*
X175151900Y-79850500D02*
X175739700Y-80438300D01*
X175151900Y-79600000D02*
X175151900Y-79850500D01*
X177854800Y-80438300D02*
X178993100Y-79300000D01*
X175739700Y-80438300D02*
X177854800Y-80438300D01*
%TO.N,IO3_SDA*%
X174000000Y-78000000D02*
X174000000Y-78576900D01*
X184620000Y-72600000D02*
X184620000Y-71873100D01*
X159250000Y-76000000D02*
X158648100Y-76000000D01*
X156148100Y-78500000D02*
X155520000Y-78500000D01*
X158648100Y-76000000D02*
X156148100Y-78500000D01*
X174225400Y-78802300D02*
X175159100Y-78802300D01*
X174000000Y-78576900D02*
X174225400Y-78802300D01*
X166973100Y-87823100D02*
X163230000Y-84080000D01*
X167760000Y-87823100D02*
X166973100Y-87823100D01*
X167760000Y-89000000D02*
X167760000Y-87823100D01*
X184195400Y-71873100D02*
X183911500Y-71589200D01*
X184620000Y-71873100D02*
X184195400Y-71873100D01*
X164750000Y-81500000D02*
X167980000Y-81500000D01*
X159250000Y-76000000D02*
X164750000Y-81500000D01*
X151380000Y-84080000D02*
X163230000Y-84080000D01*
X147960000Y-87500000D02*
X151380000Y-84080000D01*
X167980000Y-81984900D02*
X167980000Y-81500000D01*
X168418200Y-82423100D02*
X167980000Y-81984900D01*
%TO.N,IO10*%
X160155400Y-70175400D02*
X159480000Y-69500000D01*
X161051900Y-70175400D02*
X160155400Y-70175400D01*
X166650000Y-64577300D02*
X161051900Y-70175400D01*
X182153600Y-64577300D02*
X166650000Y-64577300D01*
X183863100Y-62867800D02*
X182153600Y-64577300D01*
X183863100Y-62500000D02*
X183863100Y-62867800D01*
X185040000Y-62500000D02*
X183863100Y-62500000D01*
X179720000Y-76900000D02*
X180446900Y-76900000D01*
X182564400Y-74252400D02*
X186607900Y-74252400D01*
X180446900Y-76369900D02*
X182564400Y-74252400D01*
X180446900Y-76900000D02*
X180446900Y-76369900D01*
%TO.N,IO21_TX*%
X185427200Y-83673100D02*
X185720700Y-83379600D01*
X185420000Y-83673100D02*
X185427200Y-83673100D01*
X185420000Y-84400000D02*
X185420000Y-83673100D01*
%TO.N,IO20_RX*%
X184816100Y-83477000D02*
X184816100Y-82089800D01*
X184620000Y-83673100D02*
X184816100Y-83477000D01*
X184620000Y-84400000D02*
X184620000Y-83673100D01*
%TO.N,IO19*%
X182220000Y-82163200D02*
X181899000Y-81842200D01*
X182220000Y-84400000D02*
X182220000Y-82163200D01*
X153726800Y-82000000D02*
X151710000Y-82000000D01*
X154722000Y-81004800D02*
X153726800Y-82000000D01*
%TO.N,IO18*%
X181420000Y-84400000D02*
X181420000Y-83673100D01*
X181171400Y-76768900D02*
X181204200Y-76736100D01*
X181171400Y-83424500D02*
X181171400Y-76768900D01*
X181420000Y-83673100D02*
X181171400Y-83424500D01*
X151710000Y-77908200D02*
X151361600Y-77559800D01*
X151710000Y-78500000D02*
X151710000Y-77908200D01*
%TO.N,IO1*%
X179720000Y-74500000D02*
X178170000Y-74500000D01*
%TO.N,IO0*%
X176647700Y-73700000D02*
X176633000Y-73714700D01*
X179720000Y-73700000D02*
X176647700Y-73700000D01*
%TO.N,Net-(J1-CC2)*%
X138000000Y-79140000D02*
X136948100Y-79140000D01*
X136403200Y-79140000D02*
X136948100Y-79140000D01*
X135633200Y-79910000D02*
X136403200Y-79140000D01*
X135633200Y-81994300D02*
X135633200Y-79910000D01*
X136206500Y-82567600D02*
X135633200Y-81994300D01*
X138062400Y-82567600D02*
X136206500Y-82567600D01*
X141980000Y-78650000D02*
X138062400Y-82567600D01*
%TO.N,USBD-*%
X135181000Y-79407100D02*
X136948100Y-77640000D01*
X135181000Y-82186400D02*
X135181000Y-79407100D01*
X136024000Y-83029400D02*
X135181000Y-82186400D01*
X139575900Y-83029400D02*
X136024000Y-83029400D01*
X141103100Y-81502200D02*
X139575900Y-83029400D01*
X143454200Y-81502200D02*
X141103100Y-81502200D01*
X145278400Y-83326400D02*
X143454200Y-81502200D01*
X149363600Y-83326400D02*
X145278400Y-83326400D01*
X150690000Y-82000000D02*
X149363600Y-83326400D01*
X138000000Y-77640000D02*
X136948100Y-77640000D01*
X136948100Y-76854600D02*
X136948100Y-77640000D01*
X137162700Y-76640000D02*
X136948100Y-76854600D01*
X138000000Y-76640000D02*
X137162700Y-76640000D01*
%TO.N,USBD+*%
X138000000Y-78140000D02*
X139051900Y-78140000D01*
X138000000Y-77140000D02*
X139051900Y-77140000D01*
X139051900Y-78140000D02*
X139051900Y-77140000D01*
X149242900Y-77052900D02*
X150690000Y-78500000D01*
X139139000Y-77052900D02*
X149242900Y-77052900D01*
X139051900Y-77140000D02*
X139139000Y-77052900D01*
%TO.N,Net-(J1-CC1)*%
X138000000Y-76140000D02*
X136948100Y-76140000D01*
X140638700Y-83491300D02*
X141980000Y-82150000D01*
X135841500Y-83491300D02*
X140638700Y-83491300D01*
X134687400Y-82337200D02*
X135841500Y-83491300D01*
X134687400Y-78400700D02*
X134687400Y-82337200D01*
X136948100Y-76140000D02*
X134687400Y-78400700D01*
%TO.N,Net-(U2-VIN)*%
X138000000Y-74940000D02*
X139051900Y-74940000D01*
X139164200Y-75052300D02*
X139051900Y-74940000D01*
X150544600Y-75052300D02*
X139164200Y-75052300D01*
X138000000Y-79840000D02*
X139051900Y-79840000D01*
X150928300Y-74668600D02*
X150544600Y-75052300D01*
X150928300Y-73183600D02*
X150928300Y-74668600D01*
X151611900Y-72500000D02*
X150928300Y-73183600D01*
X152000000Y-72500000D02*
X151611900Y-72500000D01*
X152308700Y-76816400D02*
X150544600Y-75052300D01*
X152308700Y-78880300D02*
X152308700Y-76816400D01*
X151997500Y-79191500D02*
X152308700Y-78880300D01*
X150332800Y-79191500D02*
X151997500Y-79191500D01*
X148646100Y-77504800D02*
X150332800Y-79191500D01*
X141387100Y-77504800D02*
X148646100Y-77504800D01*
X139051900Y-79840000D02*
X141387100Y-77504800D01*
%TO.N,Net-(D3-A)*%
X159250000Y-75000000D02*
X159851900Y-75000000D01*
X159851900Y-74844600D02*
X160120200Y-74576300D01*
X159851900Y-75000000D02*
X159851900Y-74844600D01*
X162573700Y-74576300D02*
X163230000Y-73920000D01*
X160120200Y-74576300D02*
X162573700Y-74576300D01*
%TO.N,IO4_SCL*%
X179720000Y-78500000D02*
X178993100Y-78500000D01*
X176013200Y-79455300D02*
X176155000Y-79597100D01*
X176013200Y-78580700D02*
X176013200Y-79455300D01*
X175432500Y-78000000D02*
X176013200Y-78580700D01*
X174650000Y-78000000D02*
X175432500Y-78000000D01*
X176155000Y-79597100D02*
X176040700Y-79711400D01*
X177772400Y-79720700D02*
X178993100Y-78500000D01*
X176278600Y-79720700D02*
X177772400Y-79720700D01*
X176155000Y-79597100D02*
X176278600Y-79720700D01*
X169123100Y-89365800D02*
X169123100Y-89000000D01*
X168263000Y-90225900D02*
X169123100Y-89365800D01*
X163042800Y-90225900D02*
X168263000Y-90225900D01*
X160126900Y-87310000D02*
X163042800Y-90225900D01*
X159000000Y-87310000D02*
X160126900Y-87310000D01*
X170300000Y-89000000D02*
X169123100Y-89000000D01*
%TO.N,Net-(D2-A)*%
X159831000Y-68831000D02*
X160500000Y-69500000D01*
X157244000Y-68831000D02*
X159831000Y-68831000D01*
X156575000Y-69500000D02*
X157244000Y-68831000D01*
%TO.N,IO2*%
X183895000Y-70348100D02*
X183045000Y-70348100D01*
X185420000Y-71873100D02*
X183895000Y-70348100D01*
X185420000Y-72600000D02*
X185420000Y-71873100D01*
X170458400Y-77684900D02*
X170458500Y-77684900D01*
X170458400Y-75898400D02*
X170458400Y-77684900D01*
X168980000Y-74420000D02*
X170458400Y-75898400D01*
X150923100Y-63584500D02*
X150923100Y-63500000D01*
X150613900Y-63893700D02*
X150923100Y-63584500D01*
X152000000Y-63500000D02*
X150923100Y-63500000D01*
%TO.N,Net-(U6-DVI)*%
X159851900Y-75621900D02*
X163230000Y-79000000D01*
X159851900Y-75500000D02*
X159851900Y-75621900D01*
X159460100Y-75500000D02*
X159851900Y-75500000D01*
X159460100Y-75500000D02*
X159250000Y-75500000D01*
X163375100Y-70000000D02*
X163500000Y-70000000D01*
X158648100Y-74727000D02*
X163375100Y-70000000D01*
X158648100Y-75500000D02*
X158648100Y-74727000D01*
X159250000Y-75500000D02*
X158648100Y-75500000D01*
%TO.N,IO9_BOOT*%
X192040000Y-67000000D02*
X192115000Y-67075000D01*
X189150000Y-67000000D02*
X192040000Y-67000000D01*
X189150000Y-67000000D02*
X188298100Y-67000000D01*
X188110600Y-67187500D02*
X187998500Y-67187500D01*
X188298100Y-67000000D02*
X188110600Y-67187500D01*
X186039400Y-67187500D02*
X185851900Y-67000000D01*
X187998500Y-67187500D02*
X186039400Y-67187500D01*
X185000000Y-67000000D02*
X185851900Y-67000000D01*
X179720000Y-82500000D02*
X178993100Y-82500000D01*
X188080000Y-89000000D02*
X186903100Y-89000000D01*
X186903100Y-88634200D02*
X186903100Y-89000000D01*
X183900700Y-85631800D02*
X186903100Y-88634200D01*
X179686600Y-85631800D02*
X183900700Y-85631800D01*
X178993100Y-84938300D02*
X179686600Y-85631800D01*
X178993100Y-82500000D02*
X178993100Y-84938300D01*
%TO.N,Net-(U1-EN{slash}CHIP_PU)*%
X181500000Y-69150000D02*
X182351900Y-69150000D01*
X183020000Y-72600000D02*
X183020000Y-71873100D01*
X182318100Y-71171200D02*
X183020000Y-71873100D01*
X182318100Y-70047100D02*
X182318100Y-71171200D01*
X182351900Y-70013300D02*
X182318100Y-70047100D01*
X182351900Y-69150000D02*
X182351900Y-70013300D01*
X177350000Y-69150000D02*
X181500000Y-69150000D01*
X177350000Y-69150000D02*
X176498100Y-69150000D01*
X171352100Y-66920000D02*
X175040100Y-70608000D01*
X169000000Y-66920000D02*
X171352100Y-66920000D01*
X176498100Y-69150000D02*
X175040100Y-70608000D01*
X173020000Y-72628100D02*
X173020000Y-74500000D01*
X175040100Y-70608000D02*
X173020000Y-72628100D01*
%TO.N,3V3*%
X187020000Y-72600000D02*
X187020000Y-71873100D01*
X147100000Y-63500000D02*
X148176900Y-63500000D01*
X142150000Y-65500000D02*
X142150000Y-65221600D01*
X135850000Y-65500000D02*
X137176900Y-65500000D01*
X137455300Y-65221600D02*
X142150000Y-65221600D01*
X137176900Y-65500000D02*
X137455300Y-65221600D01*
X144301500Y-65221600D02*
X146023100Y-63500000D01*
X142150000Y-65221600D02*
X144301500Y-65221600D01*
X147100000Y-63500000D02*
X146023100Y-63500000D01*
X156500000Y-75000000D02*
X155898100Y-75000000D01*
X155898100Y-77101900D02*
X154500000Y-78500000D01*
X155898100Y-75000000D02*
X155898100Y-77101900D01*
X187580000Y-62500000D02*
X187476800Y-62500000D01*
X182865700Y-68406800D02*
X182865700Y-67674000D01*
X186332000Y-71873100D02*
X182865700Y-68406800D01*
X187020000Y-71873100D02*
X186332000Y-71873100D01*
X145420000Y-87500000D02*
X146496900Y-87500000D01*
X173040000Y-66940800D02*
X173040000Y-66920000D01*
X173773200Y-67674000D02*
X173040000Y-66940800D01*
X182865700Y-67674000D02*
X173773200Y-67674000D01*
X174880000Y-62500000D02*
X173703100Y-62500000D01*
X173703100Y-62134200D02*
X173703100Y-62500000D01*
X172890800Y-61321900D02*
X173703100Y-62134200D01*
X160136400Y-61321900D02*
X172890800Y-61321900D01*
X158499200Y-62959100D02*
X160136400Y-61321900D01*
X158540000Y-63000000D02*
X158499200Y-62959100D01*
X174880000Y-62500000D02*
X176056900Y-62500000D01*
X176056900Y-62134200D02*
X176056900Y-62500000D01*
X176868000Y-61323100D02*
X176056900Y-62134200D01*
X185617700Y-61323100D02*
X176868000Y-61323100D01*
X187135700Y-62841100D02*
X185617700Y-61323100D01*
X187476800Y-62500000D02*
X187135700Y-62841100D01*
X182865700Y-67111100D02*
X182865700Y-67674000D01*
X187135700Y-62841100D02*
X182865700Y-67111100D01*
X164250000Y-84080000D02*
X169187500Y-84080000D01*
X169187500Y-81687500D02*
X169000000Y-81500000D01*
X169187500Y-84080000D02*
X169187500Y-81687500D01*
X149782700Y-61894200D02*
X148176900Y-63500000D01*
X155608000Y-61894200D02*
X149782700Y-61894200D01*
X156059900Y-62346100D02*
X155608000Y-61894200D01*
X157886100Y-62346100D02*
X156059900Y-62346100D01*
X158499200Y-62959100D02*
X157886100Y-62346100D01*
X172700000Y-79600000D02*
X172688500Y-79600000D01*
X174000000Y-79600000D02*
X174000000Y-80176900D01*
X155900800Y-79900800D02*
X154500000Y-78500000D01*
X155900800Y-82785600D02*
X155900800Y-79900800D01*
X162955600Y-82785600D02*
X155900800Y-82785600D01*
X164250000Y-84080000D02*
X162955600Y-82785600D01*
X146496900Y-87365400D02*
X146496900Y-87500000D01*
X149218300Y-84644000D02*
X146496900Y-87365400D01*
X149857400Y-84644000D02*
X149218300Y-84644000D01*
X151263900Y-83237500D02*
X149857400Y-84644000D01*
X155448900Y-83237500D02*
X151263900Y-83237500D01*
X155900800Y-82785600D02*
X155448900Y-83237500D01*
X164250000Y-73920000D02*
X167475000Y-73920000D01*
X167960000Y-74405000D02*
X167960000Y-74420000D01*
X167475000Y-73920000D02*
X167960000Y-74405000D01*
X164250000Y-79000000D02*
X166500000Y-79000000D01*
X166500000Y-79000000D02*
X169000000Y-81500000D01*
X166500000Y-78422500D02*
X168001300Y-76921200D01*
X166500000Y-79000000D02*
X166500000Y-78422500D01*
X167960000Y-76880000D02*
X168001300Y-76921200D01*
X167960000Y-74420000D02*
X167960000Y-76880000D01*
X168001300Y-76921200D02*
X169000000Y-77920000D01*
X168658600Y-66241400D02*
X167980000Y-66920000D01*
X172361400Y-66241400D02*
X168658600Y-66241400D01*
X173040000Y-66920000D02*
X172361400Y-66241400D01*
X167475000Y-70965000D02*
X167475000Y-73920000D01*
X167940000Y-70500000D02*
X167475000Y-70965000D01*
X173032500Y-80176900D02*
X174000000Y-80176900D01*
X172688500Y-79832900D02*
X173032500Y-80176900D01*
X172688500Y-79600000D02*
X172688500Y-79832900D01*
X167980000Y-66920000D02*
X167980000Y-69836200D01*
X167940000Y-69876200D02*
X167980000Y-69836200D01*
X167940000Y-70500000D02*
X167940000Y-69876200D01*
X170173600Y-69836200D02*
X171918700Y-71581300D01*
X167980000Y-69836200D02*
X170173600Y-69836200D01*
%TO.N,+5V*%
X135850000Y-67800000D02*
X137176900Y-67800000D01*
X137628800Y-68251900D02*
X149535800Y-68251900D01*
X137176900Y-67800000D02*
X137628800Y-68251900D01*
X149535800Y-67590500D02*
X149535800Y-68251900D01*
X152422900Y-64703400D02*
X149535800Y-67590500D01*
X153336600Y-64703400D02*
X152422900Y-64703400D01*
X155040000Y-63000000D02*
X153336600Y-64703400D01*
X149535800Y-72310800D02*
X149725000Y-72500000D01*
X149535800Y-68251900D02*
X149535800Y-72310800D01*
%TD*%
%TA.AperFunction,Conductor*%
%TO.N,GND*%
G36*
X159919166Y-60519685D02*
G01*
X159964921Y-60572489D01*
X159974865Y-60641647D01*
X159945840Y-60705203D01*
X159892781Y-60739301D01*
X159893165Y-60740187D01*
X159887772Y-60742520D01*
X159887062Y-60742977D01*
X159886957Y-60743007D01*
X159886010Y-60743283D01*
X159886009Y-60743283D01*
X159886004Y-60743285D01*
X159868765Y-60753480D01*
X159851298Y-60762037D01*
X159832669Y-60769412D01*
X159832667Y-60769413D01*
X159794964Y-60796806D01*
X159790082Y-60800012D01*
X159749980Y-60823728D01*
X159735808Y-60837900D01*
X159721023Y-60850528D01*
X159704812Y-60862307D01*
X159675109Y-60898210D01*
X159671177Y-60902531D01*
X158586836Y-61986871D01*
X158525513Y-62020356D01*
X158455821Y-62015372D01*
X158411482Y-61986879D01*
X158386892Y-61962293D01*
X158377082Y-61950047D01*
X158376858Y-61950233D01*
X158371886Y-61944223D01*
X158321439Y-61896849D01*
X158300535Y-61875948D01*
X158295073Y-61871712D01*
X158290626Y-61867914D01*
X158256685Y-61836041D01*
X158256681Y-61836037D01*
X158248472Y-61831524D01*
X158239098Y-61826370D01*
X158222849Y-61815698D01*
X158221427Y-61814595D01*
X158206992Y-61803400D01*
X158206991Y-61803399D01*
X158206989Y-61803398D01*
X158164240Y-61784903D01*
X158158987Y-61782330D01*
X158118195Y-61759904D01*
X158118187Y-61759901D01*
X158098762Y-61754914D01*
X158080367Y-61748617D01*
X158061946Y-61740648D01*
X158061943Y-61740647D01*
X158061942Y-61740647D01*
X158061939Y-61740646D01*
X158015947Y-61733364D01*
X158010223Y-61732179D01*
X157965125Y-61720600D01*
X157965119Y-61720600D01*
X157945058Y-61720600D01*
X157925670Y-61719075D01*
X157905851Y-61715937D01*
X157859490Y-61720324D01*
X157853647Y-61720600D01*
X156370352Y-61720600D01*
X156303313Y-61700915D01*
X156282671Y-61684281D01*
X156108806Y-61510416D01*
X156098981Y-61498152D01*
X156098760Y-61498336D01*
X156093785Y-61492321D01*
X156061383Y-61461894D01*
X156043364Y-61444973D01*
X156028181Y-61429790D01*
X156022475Y-61424083D01*
X156016986Y-61419825D01*
X156012561Y-61416047D01*
X155978582Y-61384138D01*
X155978580Y-61384136D01*
X155978577Y-61384135D01*
X155961029Y-61374488D01*
X155944763Y-61363804D01*
X155928933Y-61351525D01*
X155886168Y-61333018D01*
X155880922Y-61330448D01*
X155840093Y-61308003D01*
X155840092Y-61308002D01*
X155820693Y-61303022D01*
X155802281Y-61296718D01*
X155783898Y-61288762D01*
X155783892Y-61288760D01*
X155737874Y-61281472D01*
X155732152Y-61280287D01*
X155687021Y-61268700D01*
X155687019Y-61268700D01*
X155666984Y-61268700D01*
X155647586Y-61267173D01*
X155640162Y-61265997D01*
X155627805Y-61264040D01*
X155627804Y-61264040D01*
X155581416Y-61268425D01*
X155575578Y-61268700D01*
X149865438Y-61268700D01*
X149849821Y-61266976D01*
X149849794Y-61267262D01*
X149842032Y-61266527D01*
X149772904Y-61268700D01*
X149743350Y-61268700D01*
X149742629Y-61268790D01*
X149736457Y-61269569D01*
X149730645Y-61270026D01*
X149684073Y-61271490D01*
X149684072Y-61271490D01*
X149664829Y-61277081D01*
X149645779Y-61281025D01*
X149625911Y-61283534D01*
X149625909Y-61283535D01*
X149582584Y-61300688D01*
X149577057Y-61302580D01*
X149532310Y-61315581D01*
X149532309Y-61315582D01*
X149515067Y-61325779D01*
X149497599Y-61334337D01*
X149478969Y-61341713D01*
X149478967Y-61341714D01*
X149441276Y-61369098D01*
X149436394Y-61372305D01*
X149396279Y-61396030D01*
X149382108Y-61410200D01*
X149367323Y-61422828D01*
X149351112Y-61434607D01*
X149321409Y-61470510D01*
X149317477Y-61474831D01*
X148216979Y-62575328D01*
X148155656Y-62608813D01*
X148085965Y-62603829D01*
X147957482Y-62555908D01*
X147957483Y-62555908D01*
X147897883Y-62549501D01*
X147897881Y-62549500D01*
X147897873Y-62549500D01*
X147897864Y-62549500D01*
X146302129Y-62549500D01*
X146302123Y-62549501D01*
X146242516Y-62555908D01*
X146107671Y-62606202D01*
X146107664Y-62606206D01*
X145992455Y-62692452D01*
X145992452Y-62692455D01*
X145906207Y-62807663D01*
X145906204Y-62807667D01*
X145896646Y-62833294D01*
X145854773Y-62889226D01*
X145826032Y-62905281D01*
X145822925Y-62906509D01*
X145817438Y-62908385D01*
X145772714Y-62921379D01*
X145772710Y-62921381D01*
X145755466Y-62931579D01*
X145738005Y-62940133D01*
X145719374Y-62947510D01*
X145719362Y-62947517D01*
X145681670Y-62974902D01*
X145676787Y-62978109D01*
X145636680Y-63001829D01*
X145622514Y-63015995D01*
X145607724Y-63028627D01*
X145591514Y-63040404D01*
X145591511Y-63040407D01*
X145561810Y-63076309D01*
X145557877Y-63080631D01*
X144078728Y-64559781D01*
X144017405Y-64593266D01*
X143991047Y-64596100D01*
X143774499Y-64596100D01*
X143707460Y-64576415D01*
X143661705Y-64523611D01*
X143650499Y-64472100D01*
X143650499Y-63552129D01*
X143650498Y-63552123D01*
X143650497Y-63552116D01*
X143644091Y-63492517D01*
X143631024Y-63457483D01*
X143593797Y-63357671D01*
X143593793Y-63357664D01*
X143507547Y-63242455D01*
X143507544Y-63242452D01*
X143392335Y-63156206D01*
X143392328Y-63156202D01*
X143257482Y-63105908D01*
X143257483Y-63105908D01*
X143197883Y-63099501D01*
X143197881Y-63099500D01*
X143197873Y-63099500D01*
X143197864Y-63099500D01*
X141102129Y-63099500D01*
X141102123Y-63099501D01*
X141042516Y-63105908D01*
X140907671Y-63156202D01*
X140907664Y-63156206D01*
X140792455Y-63242452D01*
X140792452Y-63242455D01*
X140706206Y-63357664D01*
X140706202Y-63357671D01*
X140655908Y-63492517D01*
X140650176Y-63545841D01*
X140649501Y-63552123D01*
X140649500Y-63552135D01*
X140649500Y-64472100D01*
X140629815Y-64539139D01*
X140577011Y-64584894D01*
X140525500Y-64596100D01*
X137538038Y-64596100D01*
X137522421Y-64594376D01*
X137522394Y-64594662D01*
X137514632Y-64593927D01*
X137445504Y-64596100D01*
X137412874Y-64596100D01*
X137345835Y-64576415D01*
X137300080Y-64523611D01*
X137296692Y-64515432D01*
X137293798Y-64507673D01*
X137293795Y-64507668D01*
X137267169Y-64472100D01*
X137231081Y-64423893D01*
X137206664Y-64358431D01*
X137221515Y-64290158D01*
X137231082Y-64275271D01*
X137293352Y-64192089D01*
X137293354Y-64192086D01*
X137343596Y-64057379D01*
X137343598Y-64057372D01*
X137349999Y-63997844D01*
X137350000Y-63997827D01*
X137350000Y-63450000D01*
X134350000Y-63450000D01*
X134350000Y-63997844D01*
X134356401Y-64057372D01*
X134356403Y-64057379D01*
X134406645Y-64192086D01*
X134406646Y-64192088D01*
X134468918Y-64275272D01*
X134493335Y-64340736D01*
X134478484Y-64409009D01*
X134468918Y-64423894D01*
X134406204Y-64507669D01*
X134406202Y-64507671D01*
X134355908Y-64642517D01*
X134349501Y-64702116D01*
X134349500Y-64702135D01*
X134349500Y-66297870D01*
X134349501Y-66297876D01*
X134355908Y-66357483D01*
X134406202Y-66492328D01*
X134406203Y-66492330D01*
X134422885Y-66514614D01*
X134462565Y-66567620D01*
X134468606Y-66575689D01*
X134493023Y-66641153D01*
X134478172Y-66709426D01*
X134468606Y-66724311D01*
X134406203Y-66807669D01*
X134406202Y-66807671D01*
X134355908Y-66942517D01*
X134351436Y-66984118D01*
X134349501Y-67002123D01*
X134349500Y-67002135D01*
X134349500Y-68597870D01*
X134349501Y-68597876D01*
X134355908Y-68657483D01*
X134406202Y-68792328D01*
X134406206Y-68792335D01*
X134492452Y-68907544D01*
X134492455Y-68907547D01*
X134607664Y-68993793D01*
X134607671Y-68993797D01*
X134742517Y-69044091D01*
X134742516Y-69044091D01*
X134749444Y-69044835D01*
X134802127Y-69050500D01*
X136897872Y-69050499D01*
X136957483Y-69044091D01*
X137092331Y-68993796D01*
X137207546Y-68907546D01*
X137234953Y-68870934D01*
X137290883Y-68829065D01*
X137360575Y-68824079D01*
X137393955Y-68836584D01*
X137396055Y-68837738D01*
X137396708Y-68838097D01*
X137416116Y-68843080D01*
X137434517Y-68849380D01*
X137452904Y-68857337D01*
X137496288Y-68864208D01*
X137498919Y-68864625D01*
X137504639Y-68865809D01*
X137549781Y-68877400D01*
X137569816Y-68877400D01*
X137589214Y-68878926D01*
X137608994Y-68882059D01*
X137608995Y-68882060D01*
X137608995Y-68882059D01*
X137608996Y-68882060D01*
X137655384Y-68877675D01*
X137661222Y-68877400D01*
X148786300Y-68877400D01*
X148853339Y-68897085D01*
X148899094Y-68949889D01*
X148910300Y-69001400D01*
X148910300Y-71702248D01*
X148890615Y-71769287D01*
X148849422Y-71808979D01*
X148810640Y-71831914D01*
X148810629Y-71831923D01*
X148694423Y-71948129D01*
X148694417Y-71948137D01*
X148610755Y-72089603D01*
X148610754Y-72089606D01*
X148564902Y-72247426D01*
X148564901Y-72247432D01*
X148562000Y-72284304D01*
X148562000Y-72715696D01*
X148564901Y-72752567D01*
X148564902Y-72752573D01*
X148610754Y-72910393D01*
X148610756Y-72910399D01*
X148611926Y-72912377D01*
X148612369Y-72914126D01*
X148613853Y-72917554D01*
X148613299Y-72917793D01*
X148629103Y-72980102D01*
X148613749Y-73032395D01*
X148614317Y-73032641D01*
X148612327Y-73037239D01*
X148611928Y-73038599D01*
X148611222Y-73039791D01*
X148611216Y-73039806D01*
X148565400Y-73197505D01*
X148565399Y-73197511D01*
X148565204Y-73199998D01*
X148565205Y-73200000D01*
X148830685Y-73200000D01*
X148893806Y-73217268D01*
X148952102Y-73251744D01*
X148972496Y-73257669D01*
X149109926Y-73297597D01*
X149109929Y-73297597D01*
X149109931Y-73297598D01*
X149122222Y-73298565D01*
X149146804Y-73300500D01*
X149146806Y-73300500D01*
X149851000Y-73300500D01*
X149918039Y-73320185D01*
X149963794Y-73372989D01*
X149975000Y-73424500D01*
X149975000Y-73475500D01*
X149955315Y-73542539D01*
X149902511Y-73588294D01*
X149851000Y-73599500D01*
X149146804Y-73599500D01*
X149109932Y-73602401D01*
X149109926Y-73602402D01*
X148952106Y-73648254D01*
X148952103Y-73648255D01*
X148893806Y-73682732D01*
X148830685Y-73700000D01*
X148565205Y-73700000D01*
X148565204Y-73700001D01*
X148565399Y-73702488D01*
X148565400Y-73702494D01*
X148611216Y-73860193D01*
X148611220Y-73860203D01*
X148611927Y-73861398D01*
X148612195Y-73862454D01*
X148614316Y-73867356D01*
X148613524Y-73867698D01*
X148629103Y-73929123D01*
X148613493Y-73982284D01*
X148613855Y-73982441D01*
X148612587Y-73985369D01*
X148611927Y-73987620D01*
X148610759Y-73989594D01*
X148610754Y-73989607D01*
X148564902Y-74147426D01*
X148564901Y-74147432D01*
X148562000Y-74184304D01*
X148562000Y-74302800D01*
X148542315Y-74369839D01*
X148489511Y-74415594D01*
X148438000Y-74426800D01*
X139453287Y-74426800D01*
X139386248Y-74407115D01*
X139377293Y-74400784D01*
X139372836Y-74397327D01*
X139372835Y-74397326D01*
X139372832Y-74397324D01*
X139330068Y-74378818D01*
X139324822Y-74376248D01*
X139283993Y-74353803D01*
X139283992Y-74353802D01*
X139264593Y-74348822D01*
X139246181Y-74342518D01*
X139227798Y-74334562D01*
X139227792Y-74334560D01*
X139181774Y-74327272D01*
X139176052Y-74326087D01*
X139141809Y-74317296D01*
X139089763Y-74287609D01*
X139089645Y-74287768D01*
X139088376Y-74286818D01*
X139084964Y-74284872D01*
X139082544Y-74282452D01*
X138967335Y-74196206D01*
X138967328Y-74196202D01*
X138832482Y-74145908D01*
X138832483Y-74145908D01*
X138772883Y-74139501D01*
X138772881Y-74139500D01*
X138772873Y-74139500D01*
X138772865Y-74139500D01*
X138248649Y-74139500D01*
X138181610Y-74119815D01*
X138135855Y-74067011D01*
X138125911Y-73997853D01*
X138154936Y-73934297D01*
X138188494Y-73907069D01*
X138191201Y-73905567D01*
X138251353Y-73890000D01*
X139225000Y-73890000D01*
X139225000Y-73792172D01*
X139224999Y-73792155D01*
X139218598Y-73732627D01*
X139218596Y-73732620D01*
X139168354Y-73597913D01*
X139168350Y-73597906D01*
X139082190Y-73482812D01*
X139082187Y-73482809D01*
X138967093Y-73396649D01*
X138967086Y-73396645D01*
X138832379Y-73346403D01*
X138832372Y-73346401D01*
X138772844Y-73340000D01*
X138753541Y-73340000D01*
X138686502Y-73320315D01*
X138640747Y-73267511D01*
X138629700Y-73209720D01*
X138630319Y-73197511D01*
X138639369Y-73019064D01*
X138608556Y-72817929D01*
X138537886Y-72627113D01*
X138430252Y-72454429D01*
X138290265Y-72307164D01*
X138290061Y-72306949D01*
X138290060Y-72306948D01*
X138290059Y-72306947D01*
X138170235Y-72223547D01*
X138123050Y-72190705D01*
X137936056Y-72110459D01*
X137736741Y-72069500D01*
X136484258Y-72069500D01*
X136484257Y-72069500D01*
X136332560Y-72084925D01*
X136138420Y-72145837D01*
X136138405Y-72145844D01*
X135960500Y-72244589D01*
X135960495Y-72244592D01*
X135806106Y-72377132D01*
X135806104Y-72377134D01*
X135681554Y-72538037D01*
X135681553Y-72538040D01*
X135591940Y-72720728D01*
X135540937Y-72917714D01*
X135530631Y-73120936D01*
X135561442Y-73322063D01*
X135561445Y-73322075D01*
X135632111Y-73512881D01*
X135632113Y-73512884D01*
X135632114Y-73512887D01*
X135645614Y-73534546D01*
X135739745Y-73685567D01*
X135739749Y-73685572D01*
X135877948Y-73830957D01*
X135879941Y-73833053D01*
X136046951Y-73949295D01*
X136054758Y-73952645D01*
X136108603Y-73997170D01*
X136129828Y-74063737D01*
X136111695Y-74131213D01*
X136104237Y-74142083D01*
X136052302Y-74209766D01*
X136052300Y-74209769D01*
X135994313Y-74349763D01*
X135994312Y-74349765D01*
X135974534Y-74499999D01*
X135974534Y-74500000D01*
X135994312Y-74650234D01*
X135994313Y-74650236D01*
X136049974Y-74784614D01*
X136052302Y-74790233D01*
X136144549Y-74910451D01*
X136264767Y-75002698D01*
X136404764Y-75060687D01*
X136517280Y-75075500D01*
X136517287Y-75075500D01*
X136592713Y-75075500D01*
X136592720Y-75075500D01*
X136634316Y-75070023D01*
X136703347Y-75080787D01*
X136755604Y-75127166D01*
X136774500Y-75192961D01*
X136774500Y-75287869D01*
X136774501Y-75287879D01*
X136781367Y-75351751D01*
X136781367Y-75378257D01*
X136780909Y-75382516D01*
X136780909Y-75382517D01*
X136774500Y-75442127D01*
X136774500Y-75442132D01*
X136774500Y-75446699D01*
X136754815Y-75513738D01*
X136704418Y-75557406D01*
X136704422Y-75557413D01*
X136704388Y-75557432D01*
X136702011Y-75559493D01*
X136699751Y-75560499D01*
X136697708Y-75561383D01*
X136680466Y-75571579D01*
X136663005Y-75580133D01*
X136644374Y-75587510D01*
X136644362Y-75587517D01*
X136606670Y-75614902D01*
X136601787Y-75618109D01*
X136561680Y-75641829D01*
X136547514Y-75655995D01*
X136532724Y-75668627D01*
X136516514Y-75680404D01*
X136516511Y-75680407D01*
X136486810Y-75716309D01*
X136482877Y-75720631D01*
X134303608Y-77899899D01*
X134291351Y-77909720D01*
X134291534Y-77909941D01*
X134285523Y-77914913D01*
X134238172Y-77965336D01*
X134217289Y-77986219D01*
X134217277Y-77986232D01*
X134213021Y-77991717D01*
X134209237Y-77996147D01*
X134177337Y-78030118D01*
X134177336Y-78030120D01*
X134167684Y-78047676D01*
X134157010Y-78063926D01*
X134144729Y-78079761D01*
X134144724Y-78079768D01*
X134126215Y-78122538D01*
X134123645Y-78127784D01*
X134101203Y-78168606D01*
X134096222Y-78188007D01*
X134089921Y-78206410D01*
X134081962Y-78224802D01*
X134081961Y-78224805D01*
X134074671Y-78270827D01*
X134073487Y-78276546D01*
X134061901Y-78321672D01*
X134061900Y-78321682D01*
X134061900Y-78341716D01*
X134060373Y-78361115D01*
X134057240Y-78380894D01*
X134057240Y-78380895D01*
X134061625Y-78427283D01*
X134061900Y-78433121D01*
X134061900Y-80850347D01*
X134042215Y-80917386D01*
X133989411Y-80963141D01*
X133920253Y-80973085D01*
X133866507Y-80948690D01*
X133865220Y-80950540D01*
X133860061Y-80946949D01*
X133860059Y-80946947D01*
X133761037Y-80878026D01*
X133693050Y-80830705D01*
X133506056Y-80750459D01*
X133306741Y-80709500D01*
X132554258Y-80709500D01*
X132554257Y-80709500D01*
X132402560Y-80724925D01*
X132208420Y-80785837D01*
X132208405Y-80785844D01*
X132030500Y-80884589D01*
X132030495Y-80884592D01*
X131876106Y-81017132D01*
X131876104Y-81017134D01*
X131751554Y-81178037D01*
X131751553Y-81178040D01*
X131661940Y-81360728D01*
X131610937Y-81557714D01*
X131600631Y-81760936D01*
X131631442Y-81962063D01*
X131631445Y-81962075D01*
X131702111Y-82152881D01*
X131702113Y-82152884D01*
X131702114Y-82152887D01*
X131731597Y-82200189D01*
X131809745Y-82325567D01*
X131809747Y-82325569D01*
X131809748Y-82325571D01*
X131949941Y-82473053D01*
X132064066Y-82552486D01*
X132116949Y-82589294D01*
X132116950Y-82589294D01*
X132116951Y-82589295D01*
X132303942Y-82669540D01*
X132503259Y-82710500D01*
X133255743Y-82710500D01*
X133407439Y-82695074D01*
X133601579Y-82634162D01*
X133601580Y-82634161D01*
X133601588Y-82634159D01*
X133779502Y-82535409D01*
X133881561Y-82447793D01*
X133945249Y-82419061D01*
X134014361Y-82429323D01*
X134066954Y-82475320D01*
X134077620Y-82496226D01*
X134086422Y-82518456D01*
X134093890Y-82537320D01*
X134095782Y-82542847D01*
X134108781Y-82587588D01*
X134118980Y-82604834D01*
X134127538Y-82622303D01*
X134134914Y-82640932D01*
X134162298Y-82678623D01*
X134165506Y-82683507D01*
X134189227Y-82723616D01*
X134189233Y-82723624D01*
X134203390Y-82737780D01*
X134216027Y-82752575D01*
X134227806Y-82768787D01*
X134255121Y-82791384D01*
X134263709Y-82798488D01*
X134268020Y-82802410D01*
X135098098Y-83632489D01*
X135340697Y-83875088D01*
X135350522Y-83887351D01*
X135350743Y-83887169D01*
X135355714Y-83893178D01*
X135381697Y-83917577D01*
X135406135Y-83940526D01*
X135427029Y-83961420D01*
X135432511Y-83965673D01*
X135436943Y-83969457D01*
X135470918Y-84001362D01*
X135488476Y-84011014D01*
X135504733Y-84021693D01*
X135520564Y-84033973D01*
X135540237Y-84042486D01*
X135563333Y-84052482D01*
X135568577Y-84055050D01*
X135609408Y-84077497D01*
X135621284Y-84080546D01*
X135628805Y-84082477D01*
X135647219Y-84088781D01*
X135665604Y-84096738D01*
X135711657Y-84104032D01*
X135717326Y-84105206D01*
X135762481Y-84116800D01*
X135782516Y-84116800D01*
X135801913Y-84118326D01*
X135821696Y-84121460D01*
X135868084Y-84117075D01*
X135873922Y-84116800D01*
X140555957Y-84116800D01*
X140571577Y-84118524D01*
X140571604Y-84118239D01*
X140579360Y-84118971D01*
X140579367Y-84118973D01*
X140648514Y-84116800D01*
X140678050Y-84116800D01*
X140684928Y-84115930D01*
X140690741Y-84115472D01*
X140737327Y-84114009D01*
X140756569Y-84108417D01*
X140775612Y-84104474D01*
X140795492Y-84101964D01*
X140838822Y-84084807D01*
X140844346Y-84082917D01*
X140852507Y-84080546D01*
X140889090Y-84069918D01*
X140906329Y-84059722D01*
X140923803Y-84051162D01*
X140942427Y-84043788D01*
X140942427Y-84043787D01*
X140942432Y-84043786D01*
X140980149Y-84016382D01*
X140985005Y-84013192D01*
X141025120Y-83989470D01*
X141039289Y-83975299D01*
X141054079Y-83962668D01*
X141070287Y-83950894D01*
X141099999Y-83914976D01*
X141103912Y-83910676D01*
X142007771Y-83006818D01*
X142069094Y-82973333D01*
X142095452Y-82970499D01*
X142179180Y-82970499D01*
X142215204Y-82967665D01*
X142369393Y-82922869D01*
X142427369Y-82888581D01*
X142495093Y-82871398D01*
X142553612Y-82888581D01*
X142610805Y-82922404D01*
X142750000Y-82962844D01*
X142750000Y-82407973D01*
X142750191Y-82403106D01*
X142750410Y-82400319D01*
X142750500Y-82399181D01*
X142750499Y-82251699D01*
X142770183Y-82184661D01*
X142822987Y-82138906D01*
X142874499Y-82127700D01*
X143126000Y-82127700D01*
X143193039Y-82147385D01*
X143238794Y-82200189D01*
X143250000Y-82251700D01*
X143250000Y-82962843D01*
X143389194Y-82922404D01*
X143527285Y-82840738D01*
X143527290Y-82840734D01*
X143630035Y-82737989D01*
X143691358Y-82704504D01*
X143761050Y-82709488D01*
X143805398Y-82737989D01*
X144777597Y-83710188D01*
X144787422Y-83722451D01*
X144787643Y-83722269D01*
X144792614Y-83728278D01*
X144813443Y-83747837D01*
X144843035Y-83775626D01*
X144863929Y-83796520D01*
X144869411Y-83800773D01*
X144873843Y-83804557D01*
X144907818Y-83836462D01*
X144925376Y-83846114D01*
X144941635Y-83856795D01*
X144957464Y-83869073D01*
X145000238Y-83887582D01*
X145005456Y-83890138D01*
X145046308Y-83912597D01*
X145065716Y-83917580D01*
X145084117Y-83923880D01*
X145102504Y-83931837D01*
X145145888Y-83938708D01*
X145148519Y-83939125D01*
X145154239Y-83940309D01*
X145199381Y-83951900D01*
X145219416Y-83951900D01*
X145238814Y-83953426D01*
X145258594Y-83956559D01*
X145258595Y-83956560D01*
X145258595Y-83956559D01*
X145258596Y-83956560D01*
X145304984Y-83952175D01*
X145310822Y-83951900D01*
X148725097Y-83951900D01*
X148792136Y-83971585D01*
X148837891Y-84024389D01*
X148847835Y-84093547D01*
X148818810Y-84157103D01*
X148797989Y-84176212D01*
X148788958Y-84182774D01*
X148786710Y-84184408D01*
X148757010Y-84220309D01*
X148753077Y-84224631D01*
X146636525Y-86341183D01*
X146575202Y-86374668D01*
X146505510Y-86369684D01*
X146474532Y-86352768D01*
X146454759Y-86337966D01*
X146412331Y-86306204D01*
X146412328Y-86306202D01*
X146277482Y-86255908D01*
X146277483Y-86255908D01*
X146217883Y-86249501D01*
X146217881Y-86249500D01*
X146217873Y-86249500D01*
X146217864Y-86249500D01*
X144622129Y-86249500D01*
X144622123Y-86249501D01*
X144562516Y-86255908D01*
X144427671Y-86306202D01*
X144427664Y-86306206D01*
X144312455Y-86392452D01*
X144312452Y-86392455D01*
X144226206Y-86507664D01*
X144226202Y-86507671D01*
X144175908Y-86642517D01*
X144169501Y-86702116D01*
X144169500Y-86702135D01*
X144169500Y-88297870D01*
X144169501Y-88297876D01*
X144175908Y-88357483D01*
X144226202Y-88492328D01*
X144226206Y-88492335D01*
X144312452Y-88607544D01*
X144312455Y-88607547D01*
X144427664Y-88693793D01*
X144427671Y-88693797D01*
X144562517Y-88744091D01*
X144562516Y-88744091D01*
X144569444Y-88744835D01*
X144622127Y-88750500D01*
X146217872Y-88750499D01*
X146277483Y-88744091D01*
X146412331Y-88693796D01*
X146527546Y-88607546D01*
X146613796Y-88492331D01*
X146664091Y-88357483D01*
X146670500Y-88297873D01*
X146670499Y-88231860D01*
X146690183Y-88164823D01*
X146742986Y-88119067D01*
X146812144Y-88109123D01*
X146875700Y-88138147D01*
X146896071Y-88160734D01*
X146998402Y-88306877D01*
X147153123Y-88461598D01*
X147332361Y-88587102D01*
X147530670Y-88679575D01*
X147742023Y-88736207D01*
X147924926Y-88752208D01*
X147959998Y-88755277D01*
X147960000Y-88755277D01*
X147960002Y-88755277D01*
X147988254Y-88752805D01*
X148177977Y-88736207D01*
X148389330Y-88679575D01*
X148587639Y-88587102D01*
X148766877Y-88461598D01*
X148921598Y-88306877D01*
X149047102Y-88127639D01*
X149117618Y-87976414D01*
X149163790Y-87923977D01*
X149230984Y-87904825D01*
X149297865Y-87925041D01*
X149342381Y-87976414D01*
X149412898Y-88127639D01*
X149538402Y-88306877D01*
X149693123Y-88461598D01*
X149872361Y-88587102D01*
X150070670Y-88679575D01*
X150282023Y-88736207D01*
X150464926Y-88752208D01*
X150499998Y-88755277D01*
X150500000Y-88755277D01*
X150500002Y-88755277D01*
X150528254Y-88752805D01*
X150717977Y-88736207D01*
X150929330Y-88679575D01*
X151127639Y-88587102D01*
X151306877Y-88461598D01*
X151461598Y-88306877D01*
X151587102Y-88127639D01*
X151657895Y-87975822D01*
X151704066Y-87923385D01*
X151771260Y-87904233D01*
X151838141Y-87924449D01*
X151882658Y-87975824D01*
X151953335Y-88127391D01*
X151996873Y-88189571D01*
X151996875Y-88189572D01*
X152642046Y-87544400D01*
X152654835Y-87625148D01*
X152712359Y-87738045D01*
X152801955Y-87827641D01*
X152914852Y-87885165D01*
X152995599Y-87897953D01*
X152350426Y-88543124D01*
X152412611Y-88586666D01*
X152412613Y-88586667D01*
X152610840Y-88679101D01*
X152610849Y-88679105D01*
X152822105Y-88735710D01*
X152822115Y-88735712D01*
X153039999Y-88754775D01*
X153040001Y-88754775D01*
X153257884Y-88735712D01*
X153257894Y-88735710D01*
X153469150Y-88679105D01*
X153469159Y-88679101D01*
X153667387Y-88586666D01*
X153729572Y-88543124D01*
X153084401Y-87897953D01*
X153165148Y-87885165D01*
X153278045Y-87827641D01*
X153367641Y-87738045D01*
X153425165Y-87625148D01*
X153437953Y-87544401D01*
X154083124Y-88189572D01*
X154126666Y-88127387D01*
X154219101Y-87929159D01*
X154219105Y-87929150D01*
X154275710Y-87717894D01*
X154275712Y-87717884D01*
X154294775Y-87500000D01*
X154294775Y-87499999D01*
X154275712Y-87282115D01*
X154275710Y-87282105D01*
X154219105Y-87070849D01*
X154219101Y-87070840D01*
X154126668Y-86872615D01*
X154083123Y-86810428D01*
X153437953Y-87455598D01*
X153425165Y-87374852D01*
X153367641Y-87261955D01*
X153278045Y-87172359D01*
X153165148Y-87114835D01*
X153084401Y-87102046D01*
X153729572Y-86456875D01*
X153729571Y-86456873D01*
X153667391Y-86413335D01*
X153469159Y-86320898D01*
X153469150Y-86320894D01*
X153257894Y-86264289D01*
X153257884Y-86264287D01*
X153040001Y-86245225D01*
X153039999Y-86245225D01*
X152822115Y-86264287D01*
X152822105Y-86264289D01*
X152610849Y-86320894D01*
X152610840Y-86320898D01*
X152412614Y-86413332D01*
X152412612Y-86413333D01*
X152350428Y-86456875D01*
X152350427Y-86456875D01*
X152995599Y-87102046D01*
X152914852Y-87114835D01*
X152801955Y-87172359D01*
X152712359Y-87261955D01*
X152654835Y-87374852D01*
X152642046Y-87455598D01*
X151996875Y-86810427D01*
X151996875Y-86810428D01*
X151953333Y-86872612D01*
X151953332Y-86872614D01*
X151882658Y-87024175D01*
X151836485Y-87076614D01*
X151769292Y-87095766D01*
X151702411Y-87075550D01*
X151657894Y-87024175D01*
X151618044Y-86938718D01*
X151587102Y-86872362D01*
X151587100Y-86872359D01*
X151587099Y-86872357D01*
X151461599Y-86693124D01*
X151385380Y-86616905D01*
X151306877Y-86538402D01*
X151133163Y-86416766D01*
X151127638Y-86412897D01*
X151016468Y-86361058D01*
X150929330Y-86320425D01*
X150929326Y-86320424D01*
X150929322Y-86320422D01*
X150717977Y-86263793D01*
X150500002Y-86244723D01*
X150499998Y-86244723D01*
X150400893Y-86253393D01*
X150332393Y-86239626D01*
X150282210Y-86191011D01*
X150266277Y-86122982D01*
X150289653Y-86057138D01*
X150302398Y-86042192D01*
X151602772Y-84741819D01*
X151664095Y-84708334D01*
X151690453Y-84705500D01*
X162585404Y-84705500D01*
X162652443Y-84725185D01*
X162673085Y-84741819D01*
X162702396Y-84771130D01*
X162702400Y-84771133D01*
X162702402Y-84771135D01*
X162840607Y-84852869D01*
X162881268Y-84864682D01*
X162994791Y-84897664D01*
X162994794Y-84897664D01*
X162994796Y-84897665D01*
X163003801Y-84898373D01*
X163030816Y-84900500D01*
X163030818Y-84900499D01*
X163030819Y-84900500D01*
X163114547Y-84900499D01*
X163181585Y-84920183D01*
X163202228Y-84936818D01*
X165703229Y-87437819D01*
X165736714Y-87499142D01*
X165731730Y-87568834D01*
X165689858Y-87624767D01*
X165624394Y-87649184D01*
X165615548Y-87649500D01*
X164322129Y-87649500D01*
X164322123Y-87649501D01*
X164262516Y-87655908D01*
X164127671Y-87706202D01*
X164127664Y-87706206D01*
X164012455Y-87792452D01*
X164012452Y-87792455D01*
X163926206Y-87907664D01*
X163926202Y-87907671D01*
X163875908Y-88042517D01*
X163870932Y-88088808D01*
X163869500Y-88102127D01*
X163869500Y-88790156D01*
X163869501Y-89476400D01*
X163849816Y-89543439D01*
X163797013Y-89589194D01*
X163745501Y-89600400D01*
X163353253Y-89600400D01*
X163286214Y-89580715D01*
X163265572Y-89564081D01*
X160627703Y-86926212D01*
X160617880Y-86913950D01*
X160617659Y-86914134D01*
X160612686Y-86908123D01*
X160603271Y-86899282D01*
X160562264Y-86860773D01*
X160551819Y-86850328D01*
X160541375Y-86839883D01*
X160535886Y-86835625D01*
X160531461Y-86831847D01*
X160497482Y-86799938D01*
X160497480Y-86799936D01*
X160497477Y-86799935D01*
X160479929Y-86790288D01*
X160463663Y-86779604D01*
X160447833Y-86767325D01*
X160405068Y-86748818D01*
X160399822Y-86746248D01*
X160364763Y-86726975D01*
X160315498Y-86677429D01*
X160300499Y-86618312D01*
X160300499Y-86462129D01*
X160300498Y-86462123D01*
X160300497Y-86462116D01*
X160294091Y-86402517D01*
X160293387Y-86400630D01*
X160243797Y-86267671D01*
X160243793Y-86267664D01*
X160157547Y-86152455D01*
X160157544Y-86152452D01*
X160042335Y-86066206D01*
X160042328Y-86066202D01*
X159907482Y-86015908D01*
X159907483Y-86015908D01*
X159847883Y-86009501D01*
X159847881Y-86009500D01*
X159847873Y-86009500D01*
X159847864Y-86009500D01*
X158152129Y-86009500D01*
X158152123Y-86009501D01*
X158092516Y-86015908D01*
X157957671Y-86066202D01*
X157957664Y-86066206D01*
X157842455Y-86152452D01*
X157842452Y-86152455D01*
X157756206Y-86267664D01*
X157756202Y-86267671D01*
X157705908Y-86402517D01*
X157699501Y-86462116D01*
X157699501Y-86462123D01*
X157699500Y-86462135D01*
X157699500Y-88157870D01*
X157699501Y-88157876D01*
X157705908Y-88217483D01*
X157756202Y-88352328D01*
X157756206Y-88352335D01*
X157842452Y-88467544D01*
X157842455Y-88467547D01*
X157957664Y-88553793D01*
X157957671Y-88553797D01*
X158092517Y-88604091D01*
X158092516Y-88604091D01*
X158099444Y-88604835D01*
X158152127Y-88610500D01*
X159847872Y-88610499D01*
X159907483Y-88604091D01*
X160042331Y-88553796D01*
X160157546Y-88467546D01*
X160175524Y-88443529D01*
X160231452Y-88401660D01*
X160301144Y-88396674D01*
X160362465Y-88430155D01*
X160362470Y-88430160D01*
X162220628Y-90288319D01*
X162254113Y-90349642D01*
X162249129Y-90419334D01*
X162207257Y-90475267D01*
X162141793Y-90499684D01*
X162132947Y-90500000D01*
X130124000Y-90500000D01*
X130056961Y-90480315D01*
X130011206Y-90427511D01*
X130000000Y-90376000D01*
X130000000Y-73120936D01*
X131600631Y-73120936D01*
X131631442Y-73322063D01*
X131631445Y-73322075D01*
X131702111Y-73512881D01*
X131702113Y-73512884D01*
X131702114Y-73512887D01*
X131715614Y-73534546D01*
X131809745Y-73685567D01*
X131809749Y-73685572D01*
X131947948Y-73830957D01*
X131949941Y-73833053D01*
X132066932Y-73914481D01*
X132116949Y-73949294D01*
X132116950Y-73949294D01*
X132116951Y-73949295D01*
X132303942Y-74029540D01*
X132503259Y-74070500D01*
X133255743Y-74070500D01*
X133407439Y-74055074D01*
X133601579Y-73994162D01*
X133601580Y-73994161D01*
X133601588Y-73994159D01*
X133779502Y-73895409D01*
X133933895Y-73762866D01*
X134058448Y-73601958D01*
X134148060Y-73419271D01*
X134199063Y-73222285D01*
X134209369Y-73019064D01*
X134178556Y-72817929D01*
X134107886Y-72627113D01*
X134000252Y-72454429D01*
X133860265Y-72307164D01*
X133860061Y-72306949D01*
X133860060Y-72306948D01*
X133860059Y-72306947D01*
X133740235Y-72223547D01*
X133693050Y-72190705D01*
X133506056Y-72110459D01*
X133306741Y-72069500D01*
X132554258Y-72069500D01*
X132554257Y-72069500D01*
X132402560Y-72084925D01*
X132208420Y-72145837D01*
X132208405Y-72145844D01*
X132030500Y-72244589D01*
X132030495Y-72244592D01*
X131876106Y-72377132D01*
X131876104Y-72377134D01*
X131751554Y-72538037D01*
X131751553Y-72538040D01*
X131661940Y-72720728D01*
X131610937Y-72917714D01*
X131600631Y-73120936D01*
X130000000Y-73120936D01*
X130000000Y-62950000D01*
X134350000Y-62950000D01*
X135600000Y-62950000D01*
X135600000Y-61950000D01*
X136100000Y-61950000D01*
X136100000Y-62950000D01*
X137350000Y-62950000D01*
X137350000Y-62402172D01*
X137349999Y-62402155D01*
X137343598Y-62342627D01*
X137343596Y-62342620D01*
X137293354Y-62207913D01*
X137293350Y-62207906D01*
X137207190Y-62092812D01*
X137207187Y-62092809D01*
X137092093Y-62006649D01*
X137092086Y-62006645D01*
X136957379Y-61956403D01*
X136957372Y-61956401D01*
X136897844Y-61950000D01*
X136100000Y-61950000D01*
X135600000Y-61950000D01*
X134802155Y-61950000D01*
X134742627Y-61956401D01*
X134742620Y-61956403D01*
X134607913Y-62006645D01*
X134607906Y-62006649D01*
X134492812Y-62092809D01*
X134492809Y-62092812D01*
X134406649Y-62207906D01*
X134406645Y-62207913D01*
X134356403Y-62342620D01*
X134356401Y-62342627D01*
X134350000Y-62402155D01*
X134350000Y-62950000D01*
X130000000Y-62950000D01*
X130000000Y-60624000D01*
X130019685Y-60556961D01*
X130072489Y-60511206D01*
X130124000Y-60500000D01*
X159852127Y-60500000D01*
X159919166Y-60519685D01*
G37*
%TD.AperFunction*%
%TA.AperFunction,Conductor*%
G36*
X173062624Y-85238578D02*
G01*
X173120607Y-85272869D01*
X173120610Y-85272869D01*
X173120612Y-85272871D01*
X173274791Y-85317664D01*
X173274794Y-85317664D01*
X173274796Y-85317665D01*
X173283801Y-85318373D01*
X173310816Y-85320500D01*
X173310818Y-85320499D01*
X173310819Y-85320500D01*
X173397570Y-85320499D01*
X173464608Y-85340183D01*
X173482451Y-85354104D01*
X173499018Y-85369662D01*
X173516576Y-85379314D01*
X173532835Y-85389995D01*
X173548664Y-85402273D01*
X173591438Y-85420782D01*
X173596656Y-85423338D01*
X173637508Y-85445797D01*
X173656916Y-85450780D01*
X173675317Y-85457080D01*
X173693704Y-85465037D01*
X173737088Y-85471908D01*
X173739719Y-85472325D01*
X173745439Y-85473509D01*
X173790581Y-85485100D01*
X173810616Y-85485100D01*
X173830014Y-85486626D01*
X173849794Y-85489759D01*
X173849795Y-85489760D01*
X173849795Y-85489759D01*
X173849796Y-85489760D01*
X173896184Y-85485375D01*
X173902022Y-85485100D01*
X174873757Y-85485100D01*
X174889377Y-85486824D01*
X174889404Y-85486539D01*
X174897160Y-85487271D01*
X174897167Y-85487273D01*
X174966314Y-85485100D01*
X175847598Y-85485100D01*
X175914637Y-85504785D01*
X175935279Y-85521419D01*
X177258181Y-86844321D01*
X177291666Y-86905644D01*
X177294500Y-86932002D01*
X177294500Y-87724773D01*
X177274815Y-87791812D01*
X177241623Y-87826348D01*
X177048597Y-87961505D01*
X176881505Y-88128597D01*
X176751575Y-88314158D01*
X176696998Y-88357783D01*
X176627500Y-88364977D01*
X176565145Y-88333454D01*
X176548425Y-88314158D01*
X176418494Y-88128597D01*
X176251402Y-87961506D01*
X176251395Y-87961501D01*
X176057834Y-87825967D01*
X176057830Y-87825965D01*
X176009216Y-87803296D01*
X175843663Y-87726097D01*
X175843659Y-87726096D01*
X175843655Y-87726094D01*
X175615413Y-87664938D01*
X175615403Y-87664936D01*
X175380001Y-87644341D01*
X175379999Y-87644341D01*
X175144596Y-87664936D01*
X175144586Y-87664938D01*
X174916344Y-87726094D01*
X174916335Y-87726098D01*
X174702171Y-87825964D01*
X174702169Y-87825965D01*
X174508597Y-87961505D01*
X174341508Y-88128594D01*
X174211269Y-88314595D01*
X174156692Y-88358219D01*
X174087193Y-88365412D01*
X174024839Y-88333890D01*
X174008119Y-88314594D01*
X173878113Y-88128926D01*
X173878108Y-88128920D01*
X173711082Y-87961894D01*
X173517578Y-87826399D01*
X173303492Y-87726570D01*
X173303486Y-87726567D01*
X173090000Y-87669364D01*
X173090000Y-88564498D01*
X172982315Y-88515320D01*
X172875763Y-88500000D01*
X172804237Y-88500000D01*
X172697685Y-88515320D01*
X172590000Y-88564498D01*
X172590000Y-87669364D01*
X172569867Y-87653915D01*
X172512490Y-87615074D01*
X172484992Y-87550843D01*
X172496586Y-87481942D01*
X172520433Y-87448456D01*
X172608388Y-87360501D01*
X172620642Y-87350686D01*
X172620459Y-87350464D01*
X172626466Y-87345492D01*
X172626477Y-87345486D01*
X172660648Y-87309097D01*
X172673827Y-87295064D01*
X172684271Y-87284618D01*
X172694720Y-87274171D01*
X172698979Y-87268678D01*
X172702752Y-87264261D01*
X172734662Y-87230282D01*
X172744313Y-87212724D01*
X172754996Y-87196461D01*
X172767273Y-87180636D01*
X172785785Y-87137853D01*
X172788338Y-87132641D01*
X172810797Y-87091792D01*
X172815780Y-87072380D01*
X172822081Y-87053980D01*
X172830037Y-87035596D01*
X172837329Y-86989552D01*
X172838506Y-86983871D01*
X172850100Y-86938719D01*
X172850100Y-86918683D01*
X172851627Y-86899282D01*
X172854760Y-86879504D01*
X172850375Y-86833115D01*
X172850100Y-86827277D01*
X172850100Y-85618546D01*
X172851824Y-85602926D01*
X172851539Y-85602900D01*
X172852271Y-85595144D01*
X172852273Y-85595137D01*
X172850100Y-85525989D01*
X172850100Y-85496454D01*
X172849231Y-85489576D01*
X172848772Y-85483747D01*
X172847309Y-85437176D01*
X172841722Y-85417948D01*
X172837775Y-85398890D01*
X172835995Y-85384799D01*
X172847122Y-85315822D01*
X172893776Y-85263810D01*
X172895895Y-85262528D01*
X172936386Y-85238581D01*
X173004109Y-85221397D01*
X173062624Y-85238578D01*
G37*
%TD.AperFunction*%
%TA.AperFunction,Conductor*%
G36*
X194443039Y-60519685D02*
G01*
X194488794Y-60572489D01*
X194500000Y-60624000D01*
X194500000Y-70876000D01*
X194480315Y-70943039D01*
X194427511Y-70988794D01*
X194376000Y-71000000D01*
X190000000Y-71000000D01*
X190000000Y-71474115D01*
X189999443Y-71476926D01*
X189999476Y-71524616D01*
X189999471Y-71524616D01*
X189999500Y-71524759D01*
X189999500Y-71576000D01*
X189979815Y-71643039D01*
X189927011Y-71688794D01*
X189875500Y-71700000D01*
X189820000Y-71700000D01*
X189820000Y-73316000D01*
X189800315Y-73383039D01*
X189747511Y-73428794D01*
X189726672Y-73433327D01*
X189720000Y-73440000D01*
X189720000Y-83560000D01*
X189729976Y-83569976D01*
X189763039Y-83579685D01*
X189808794Y-83632489D01*
X189820000Y-83684000D01*
X189820000Y-85300000D01*
X189875500Y-85300000D01*
X189942539Y-85319685D01*
X189988294Y-85372489D01*
X189999500Y-85424000D01*
X189999500Y-85475467D01*
X189999416Y-85475889D01*
X189999501Y-85523458D01*
X190000000Y-85525967D01*
X190000000Y-86000000D01*
X194376000Y-86000000D01*
X194443039Y-86019685D01*
X194488794Y-86072489D01*
X194500000Y-86124000D01*
X194500000Y-88166787D01*
X194480315Y-88233826D01*
X194427511Y-88279581D01*
X194358353Y-88289525D01*
X194294797Y-88260500D01*
X194274425Y-88237911D01*
X194198109Y-88128922D01*
X194198108Y-88128920D01*
X194031082Y-87961894D01*
X193837578Y-87826399D01*
X193623492Y-87726570D01*
X193623486Y-87726567D01*
X193410000Y-87669364D01*
X193410000Y-88564498D01*
X193302315Y-88515320D01*
X193195763Y-88500000D01*
X193124237Y-88500000D01*
X193017685Y-88515320D01*
X192910000Y-88564498D01*
X192910000Y-87669364D01*
X192909999Y-87669364D01*
X192696513Y-87726567D01*
X192696507Y-87726570D01*
X192482422Y-87826399D01*
X192482420Y-87826400D01*
X192288926Y-87961886D01*
X192288920Y-87961891D01*
X192121891Y-88128920D01*
X192121890Y-88128922D01*
X191991880Y-88314595D01*
X191937303Y-88358219D01*
X191867804Y-88365412D01*
X191805450Y-88333890D01*
X191788730Y-88314594D01*
X191658494Y-88128597D01*
X191491402Y-87961506D01*
X191491395Y-87961501D01*
X191297834Y-87825967D01*
X191297830Y-87825965D01*
X191249216Y-87803296D01*
X191083663Y-87726097D01*
X191083659Y-87726096D01*
X191083655Y-87726094D01*
X190855413Y-87664938D01*
X190855403Y-87664936D01*
X190620001Y-87644341D01*
X190619999Y-87644341D01*
X190384596Y-87664936D01*
X190384586Y-87664938D01*
X190156344Y-87726094D01*
X190156335Y-87726098D01*
X189942171Y-87825964D01*
X189942169Y-87825965D01*
X189748597Y-87961505D01*
X189581505Y-88128597D01*
X189451575Y-88314158D01*
X189396998Y-88357783D01*
X189327500Y-88364977D01*
X189265145Y-88333454D01*
X189248425Y-88314158D01*
X189118494Y-88128597D01*
X188951402Y-87961506D01*
X188951395Y-87961501D01*
X188757834Y-87825967D01*
X188757830Y-87825965D01*
X188709216Y-87803296D01*
X188543663Y-87726097D01*
X188543659Y-87726096D01*
X188543655Y-87726094D01*
X188315413Y-87664938D01*
X188315403Y-87664936D01*
X188080001Y-87644341D01*
X188079999Y-87644341D01*
X187844596Y-87664936D01*
X187844586Y-87664938D01*
X187616344Y-87726094D01*
X187616335Y-87726098D01*
X187402171Y-87825964D01*
X187402169Y-87825965D01*
X187238775Y-87940374D01*
X187172568Y-87962701D01*
X187104801Y-87945690D01*
X187079971Y-87926480D01*
X184665671Y-85512180D01*
X184632186Y-85450857D01*
X184637170Y-85381165D01*
X184679042Y-85325232D01*
X184744506Y-85300815D01*
X184753352Y-85300499D01*
X184867871Y-85300499D01*
X184867872Y-85300499D01*
X184927483Y-85294091D01*
X184976665Y-85275746D01*
X185046355Y-85270761D01*
X185063333Y-85275747D01*
X185112508Y-85294088D01*
X185112511Y-85294089D01*
X185112517Y-85294091D01*
X185172127Y-85300500D01*
X185667872Y-85300499D01*
X185727483Y-85294091D01*
X185776665Y-85275746D01*
X185846355Y-85270761D01*
X185863333Y-85275747D01*
X185912508Y-85294088D01*
X185912511Y-85294089D01*
X185912517Y-85294091D01*
X185972127Y-85300500D01*
X186467872Y-85300499D01*
X186527483Y-85294091D01*
X186576665Y-85275746D01*
X186646355Y-85270761D01*
X186663333Y-85275747D01*
X186712508Y-85294088D01*
X186712511Y-85294089D01*
X186712517Y-85294091D01*
X186772127Y-85300500D01*
X187267872Y-85300499D01*
X187327483Y-85294091D01*
X187376665Y-85275746D01*
X187446355Y-85270761D01*
X187463333Y-85275747D01*
X187512508Y-85294088D01*
X187512511Y-85294089D01*
X187512517Y-85294091D01*
X187572127Y-85300500D01*
X188067872Y-85300499D01*
X188127483Y-85294091D01*
X188176665Y-85275746D01*
X188246355Y-85270761D01*
X188263333Y-85275747D01*
X188312508Y-85294088D01*
X188312511Y-85294089D01*
X188312517Y-85294091D01*
X188372127Y-85300500D01*
X188867872Y-85300499D01*
X188927483Y-85294091D01*
X188977382Y-85275479D01*
X189047069Y-85270494D01*
X189064048Y-85275479D01*
X189112628Y-85293598D01*
X189112627Y-85293598D01*
X189172155Y-85299999D01*
X189172172Y-85300000D01*
X189320000Y-85300000D01*
X189320000Y-84855845D01*
X189320356Y-84849211D01*
X189320500Y-84847873D01*
X189320499Y-83952128D01*
X189320498Y-83952118D01*
X189320355Y-83950785D01*
X189320000Y-83944155D01*
X189320000Y-83500000D01*
X188875845Y-83500000D01*
X188869213Y-83499644D01*
X188867873Y-83499500D01*
X188867871Y-83499500D01*
X188372129Y-83499500D01*
X188372123Y-83499501D01*
X188312516Y-83505908D01*
X188263332Y-83524253D01*
X188193640Y-83529237D01*
X188176667Y-83524253D01*
X188127486Y-83505910D01*
X188127485Y-83505909D01*
X188127483Y-83505909D01*
X188067873Y-83499500D01*
X188067863Y-83499500D01*
X187572129Y-83499500D01*
X187572123Y-83499501D01*
X187512516Y-83505908D01*
X187463332Y-83524253D01*
X187393640Y-83529237D01*
X187376667Y-83524253D01*
X187327486Y-83505910D01*
X187327485Y-83505909D01*
X187327483Y-83505909D01*
X187267873Y-83499500D01*
X187267863Y-83499500D01*
X186772129Y-83499500D01*
X186772105Y-83499502D01*
X186763406Y-83500437D01*
X186694648Y-83488027D01*
X186643514Y-83440413D01*
X186628556Y-83385882D01*
X186626839Y-83386063D01*
X186625729Y-83375500D01*
X186606374Y-83191344D01*
X186547879Y-83011316D01*
X186453233Y-82847384D01*
X186326571Y-82706712D01*
X186326570Y-82706711D01*
X186317333Y-82700000D01*
X188620000Y-82700000D01*
X188620000Y-82747844D01*
X188626401Y-82807372D01*
X188626403Y-82807380D01*
X188644786Y-82856667D01*
X188649770Y-82926359D01*
X188644786Y-82943333D01*
X188626403Y-82992619D01*
X188626401Y-82992627D01*
X188620000Y-83052155D01*
X188620000Y-83100000D01*
X189320000Y-83100000D01*
X189320000Y-82700000D01*
X188620000Y-82700000D01*
X186317333Y-82700000D01*
X186173434Y-82595451D01*
X186173429Y-82595448D01*
X186000507Y-82518457D01*
X186000502Y-82518455D01*
X185854701Y-82487465D01*
X185815346Y-82479100D01*
X185815345Y-82479100D01*
X185807122Y-82479100D01*
X185740083Y-82459415D01*
X185694328Y-82406611D01*
X185684384Y-82337453D01*
X185689191Y-82316782D01*
X185689614Y-82315480D01*
X185701774Y-82278056D01*
X185721560Y-82089800D01*
X185701774Y-81901544D01*
X185701272Y-81900000D01*
X188620000Y-81900000D01*
X188620000Y-81947844D01*
X188626401Y-82007372D01*
X188626403Y-82007380D01*
X188644786Y-82056667D01*
X188649770Y-82126359D01*
X188644786Y-82143333D01*
X188626403Y-82192619D01*
X188626401Y-82192627D01*
X188620000Y-82252155D01*
X188620000Y-82300000D01*
X189320000Y-82300000D01*
X189320000Y-81900000D01*
X188620000Y-81900000D01*
X185701272Y-81900000D01*
X185643279Y-81721516D01*
X185548633Y-81557584D01*
X185421971Y-81416912D01*
X185399755Y-81400771D01*
X185268834Y-81305651D01*
X185268829Y-81305648D01*
X185095907Y-81228657D01*
X185095902Y-81228655D01*
X184950101Y-81197665D01*
X184910746Y-81189300D01*
X184721454Y-81189300D01*
X184688997Y-81196198D01*
X184536297Y-81228655D01*
X184536292Y-81228657D01*
X184363370Y-81305648D01*
X184363365Y-81305651D01*
X184210229Y-81416911D01*
X184083566Y-81557585D01*
X183988921Y-81721515D01*
X183988918Y-81721522D01*
X183930427Y-81901540D01*
X183930426Y-81901544D01*
X183910640Y-82089800D01*
X183930426Y-82278056D01*
X183930427Y-82278059D01*
X183988918Y-82458077D01*
X183988921Y-82458084D01*
X184083567Y-82622016D01*
X184121893Y-82664581D01*
X184158750Y-82705515D01*
X184188980Y-82768506D01*
X184190600Y-82788487D01*
X184190600Y-83166546D01*
X184170915Y-83233585D01*
X184154281Y-83254227D01*
X184149889Y-83258619D01*
X184149877Y-83258632D01*
X184145621Y-83264117D01*
X184141837Y-83268547D01*
X184109937Y-83302518D01*
X184109936Y-83302520D01*
X184100284Y-83320076D01*
X184089610Y-83336326D01*
X184077329Y-83352161D01*
X184077324Y-83352168D01*
X184058815Y-83394938D01*
X184056245Y-83400184D01*
X184036976Y-83435236D01*
X183987430Y-83484501D01*
X183928313Y-83499500D01*
X183572130Y-83499500D01*
X183572123Y-83499501D01*
X183512516Y-83505908D01*
X183463332Y-83524253D01*
X183393640Y-83529237D01*
X183376667Y-83524253D01*
X183327482Y-83505908D01*
X183327483Y-83505908D01*
X183267883Y-83499501D01*
X183267881Y-83499500D01*
X183267873Y-83499500D01*
X183267865Y-83499500D01*
X182969500Y-83499500D01*
X182902461Y-83479815D01*
X182856706Y-83427011D01*
X182845500Y-83375500D01*
X182845500Y-82245942D01*
X182847224Y-82230322D01*
X182846939Y-82230295D01*
X182847673Y-82222533D01*
X182845500Y-82153372D01*
X182845500Y-82123856D01*
X182845500Y-82123850D01*
X182844631Y-82116979D01*
X182844173Y-82111152D01*
X182842710Y-82064573D01*
X182837119Y-82045330D01*
X182833173Y-82026278D01*
X182830664Y-82006408D01*
X182813499Y-81963055D01*
X182811622Y-81957573D01*
X182804243Y-81932173D01*
X182800001Y-81884621D01*
X182802077Y-81864877D01*
X182804460Y-81842200D01*
X182784674Y-81653944D01*
X182726179Y-81473916D01*
X182631533Y-81309984D01*
X182504871Y-81169312D01*
X182501586Y-81166925D01*
X182409472Y-81100000D01*
X188620000Y-81100000D01*
X188620000Y-81147844D01*
X188626401Y-81207372D01*
X188626403Y-81207380D01*
X188644786Y-81256667D01*
X188649770Y-81326359D01*
X188644786Y-81343333D01*
X188626403Y-81392619D01*
X188626401Y-81392627D01*
X188620000Y-81452155D01*
X188620000Y-81500000D01*
X189320000Y-81500000D01*
X189320000Y-81100000D01*
X188620000Y-81100000D01*
X182409472Y-81100000D01*
X182351734Y-81058051D01*
X182351729Y-81058048D01*
X182178807Y-80981057D01*
X182178802Y-80981055D01*
X182031349Y-80949714D01*
X181993646Y-80941700D01*
X181920900Y-80941700D01*
X181853861Y-80922015D01*
X181808106Y-80869211D01*
X181796900Y-80817700D01*
X181796900Y-80300000D01*
X188620000Y-80300000D01*
X188620000Y-80347844D01*
X188626401Y-80407372D01*
X188626403Y-80407380D01*
X188644786Y-80456667D01*
X188649770Y-80526359D01*
X188644786Y-80543333D01*
X188626403Y-80592619D01*
X188626401Y-80592627D01*
X188620000Y-80652155D01*
X188620000Y-80700000D01*
X189320000Y-80700000D01*
X189320000Y-80300000D01*
X188620000Y-80300000D01*
X181796900Y-80300000D01*
X181796900Y-79500000D01*
X188620000Y-79500000D01*
X188620000Y-79547844D01*
X188626401Y-79607372D01*
X188626403Y-79607380D01*
X188644786Y-79656667D01*
X188649770Y-79726359D01*
X188644786Y-79743333D01*
X188626403Y-79792619D01*
X188626401Y-79792627D01*
X188620000Y-79852155D01*
X188620000Y-79900000D01*
X189320000Y-79900000D01*
X189320000Y-79500000D01*
X188620000Y-79500000D01*
X181796900Y-79500000D01*
X181796900Y-78700000D01*
X188620000Y-78700000D01*
X188620000Y-78747844D01*
X188626401Y-78807372D01*
X188626403Y-78807380D01*
X188644786Y-78856667D01*
X188649770Y-78926359D01*
X188644786Y-78943333D01*
X188626403Y-78992619D01*
X188626401Y-78992627D01*
X188620000Y-79052155D01*
X188620000Y-79100000D01*
X189320000Y-79100000D01*
X189320000Y-78700000D01*
X188620000Y-78700000D01*
X181796900Y-78700000D01*
X181796900Y-77900000D01*
X188620000Y-77900000D01*
X188620000Y-77947844D01*
X188626401Y-78007372D01*
X188626403Y-78007380D01*
X188644786Y-78056667D01*
X188649770Y-78126359D01*
X188644786Y-78143333D01*
X188626403Y-78192619D01*
X188626401Y-78192627D01*
X188620000Y-78252155D01*
X188620000Y-78300000D01*
X189320000Y-78300000D01*
X189320000Y-77900000D01*
X188620000Y-77900000D01*
X181796900Y-77900000D01*
X181796900Y-77471214D01*
X181816585Y-77404175D01*
X181828740Y-77388253D01*
X181936733Y-77268316D01*
X182031379Y-77104384D01*
X182032803Y-77100000D01*
X188620000Y-77100000D01*
X188620000Y-77147844D01*
X188626401Y-77207372D01*
X188626403Y-77207380D01*
X188644786Y-77256667D01*
X188649770Y-77326359D01*
X188644786Y-77343333D01*
X188626403Y-77392619D01*
X188626401Y-77392627D01*
X188620000Y-77452155D01*
X188620000Y-77500000D01*
X189320000Y-77500000D01*
X189320000Y-77100000D01*
X188620000Y-77100000D01*
X182032803Y-77100000D01*
X182089874Y-76924356D01*
X182109660Y-76736100D01*
X182089874Y-76547844D01*
X182031379Y-76367816D01*
X181992225Y-76300000D01*
X188620000Y-76300000D01*
X188620000Y-76347844D01*
X188626401Y-76407372D01*
X188626403Y-76407380D01*
X188644786Y-76456667D01*
X188649770Y-76526359D01*
X188644786Y-76543333D01*
X188626403Y-76592619D01*
X188626401Y-76592627D01*
X188620000Y-76652155D01*
X188620000Y-76700000D01*
X189320000Y-76700000D01*
X189320000Y-76300000D01*
X188620000Y-76300000D01*
X181992225Y-76300000D01*
X181936733Y-76203884D01*
X181810071Y-76063212D01*
X181810070Y-76063211D01*
X181807365Y-76060207D01*
X181777135Y-75997216D01*
X181785760Y-75927881D01*
X181811831Y-75889557D01*
X182201389Y-75500000D01*
X188620000Y-75500000D01*
X188620000Y-75547844D01*
X188626401Y-75607372D01*
X188626403Y-75607380D01*
X188644786Y-75656667D01*
X188649770Y-75726359D01*
X188644786Y-75743333D01*
X188626403Y-75792619D01*
X188626401Y-75792627D01*
X188620000Y-75852155D01*
X188620000Y-75900000D01*
X189320000Y-75900000D01*
X189320000Y-75500000D01*
X188620000Y-75500000D01*
X182201389Y-75500000D01*
X182787172Y-74914219D01*
X182848495Y-74880734D01*
X182874853Y-74877900D01*
X185904152Y-74877900D01*
X185971191Y-74897585D01*
X185996300Y-74918926D01*
X186002026Y-74925285D01*
X186002030Y-74925289D01*
X186155165Y-75036548D01*
X186155170Y-75036551D01*
X186328092Y-75113542D01*
X186328097Y-75113544D01*
X186513254Y-75152900D01*
X186513255Y-75152900D01*
X186702544Y-75152900D01*
X186702546Y-75152900D01*
X186887703Y-75113544D01*
X187060630Y-75036551D01*
X187213771Y-74925288D01*
X187340433Y-74784616D01*
X187389286Y-74700000D01*
X188620000Y-74700000D01*
X188620000Y-74747844D01*
X188626401Y-74807372D01*
X188626403Y-74807380D01*
X188644786Y-74856667D01*
X188649770Y-74926359D01*
X188644786Y-74943333D01*
X188626403Y-74992619D01*
X188626401Y-74992627D01*
X188620000Y-75052155D01*
X188620000Y-75100000D01*
X189320000Y-75100000D01*
X189320000Y-74700000D01*
X188620000Y-74700000D01*
X187389286Y-74700000D01*
X187435079Y-74620684D01*
X187493574Y-74440656D01*
X187513360Y-74252400D01*
X187493574Y-74064144D01*
X187440240Y-73900000D01*
X188620000Y-73900000D01*
X188620000Y-73947844D01*
X188626401Y-74007372D01*
X188626403Y-74007380D01*
X188644786Y-74056667D01*
X188649770Y-74126359D01*
X188644786Y-74143333D01*
X188626403Y-74192619D01*
X188626401Y-74192627D01*
X188620000Y-74252155D01*
X188620000Y-74300000D01*
X189320000Y-74300000D01*
X189320000Y-73900000D01*
X188620000Y-73900000D01*
X187440240Y-73900000D01*
X187435079Y-73884116D01*
X187340433Y-73720184D01*
X187306745Y-73682770D01*
X187276516Y-73619780D01*
X187285141Y-73550445D01*
X187329882Y-73496779D01*
X187355556Y-73483620D01*
X187377382Y-73475479D01*
X187447071Y-73470494D01*
X187464048Y-73475479D01*
X187512628Y-73493598D01*
X187512627Y-73493598D01*
X187572155Y-73499999D01*
X187572172Y-73500000D01*
X187620000Y-73500000D01*
X187620000Y-73342106D01*
X187639685Y-73275067D01*
X187644734Y-73267794D01*
X187644946Y-73267511D01*
X187663796Y-73242331D01*
X187665584Y-73237539D01*
X187699304Y-73147129D01*
X187714091Y-73107483D01*
X187720500Y-73047873D01*
X187720500Y-72800000D01*
X188020000Y-72800000D01*
X188020000Y-73500000D01*
X188067828Y-73500000D01*
X188067844Y-73499999D01*
X188127377Y-73493597D01*
X188127378Y-73493597D01*
X188176665Y-73475214D01*
X188246356Y-73470228D01*
X188263335Y-73475214D01*
X188312621Y-73493597D01*
X188372155Y-73499999D01*
X188372172Y-73500000D01*
X189320000Y-73500000D01*
X189320000Y-72800000D01*
X188020000Y-72800000D01*
X187720500Y-72800000D01*
X187720499Y-72152128D01*
X187714091Y-72092517D01*
X187713005Y-72089606D01*
X187663797Y-71957672D01*
X187663796Y-71957669D01*
X187663793Y-71957665D01*
X187663724Y-71957538D01*
X187663644Y-71957261D01*
X187660697Y-71949360D01*
X187661296Y-71949136D01*
X187648799Y-71905891D01*
X187645621Y-71855376D01*
X187645500Y-71851503D01*
X187645500Y-71833750D01*
X187643270Y-71816102D01*
X187642910Y-71812291D01*
X187639304Y-71754962D01*
X187636779Y-71747192D01*
X187631687Y-71724414D01*
X187630664Y-71716308D01*
X187624207Y-71700000D01*
X188020000Y-71700000D01*
X188020000Y-72400000D01*
X188420000Y-72400000D01*
X188420000Y-71700000D01*
X188820000Y-71700000D01*
X188820000Y-72300000D01*
X189320000Y-72300000D01*
X189320000Y-71700000D01*
X189172155Y-71700000D01*
X189112627Y-71706401D01*
X189112619Y-71706403D01*
X189063333Y-71724786D01*
X188993641Y-71729770D01*
X188976667Y-71724786D01*
X188927380Y-71706403D01*
X188927372Y-71706401D01*
X188867844Y-71700000D01*
X188820000Y-71700000D01*
X188420000Y-71700000D01*
X188372155Y-71700000D01*
X188312627Y-71706401D01*
X188312619Y-71706403D01*
X188263333Y-71724786D01*
X188193641Y-71729770D01*
X188176667Y-71724786D01*
X188127380Y-71706403D01*
X188127372Y-71706401D01*
X188067844Y-71700000D01*
X188020000Y-71700000D01*
X187624207Y-71700000D01*
X187609520Y-71662906D01*
X187608211Y-71659270D01*
X187590467Y-71604659D01*
X187586089Y-71597761D01*
X187575495Y-71576968D01*
X187572486Y-71569368D01*
X187538736Y-71522915D01*
X187536545Y-71519692D01*
X187533565Y-71514996D01*
X187505786Y-71471223D01*
X187499833Y-71465633D01*
X187484398Y-71448125D01*
X187479594Y-71441513D01*
X187479591Y-71441511D01*
X187479591Y-71441510D01*
X187435361Y-71404920D01*
X187432438Y-71402343D01*
X187390585Y-71363040D01*
X187390577Y-71363034D01*
X187383415Y-71359097D01*
X187364114Y-71345980D01*
X187357824Y-71340776D01*
X187305878Y-71316332D01*
X187302417Y-71314569D01*
X187252092Y-71286903D01*
X187252089Y-71286902D01*
X187252085Y-71286900D01*
X187244174Y-71284869D01*
X187222222Y-71276966D01*
X187214825Y-71273485D01*
X187214821Y-71273484D01*
X187158444Y-71262730D01*
X187154644Y-71261880D01*
X187099023Y-71247600D01*
X187099019Y-71247600D01*
X187090847Y-71247600D01*
X187067615Y-71245404D01*
X187059588Y-71243873D01*
X187059586Y-71243873D01*
X187050633Y-71244436D01*
X187002275Y-71247478D01*
X186998403Y-71247600D01*
X186642453Y-71247600D01*
X186575414Y-71227915D01*
X186554772Y-71211281D01*
X185526446Y-70182955D01*
X185492961Y-70121632D01*
X185497945Y-70051940D01*
X185539817Y-69996007D01*
X185600872Y-69971984D01*
X185632380Y-69968596D01*
X185767086Y-69918354D01*
X185767093Y-69918350D01*
X185882187Y-69832190D01*
X185882190Y-69832187D01*
X185968350Y-69717093D01*
X185968354Y-69717086D01*
X186018596Y-69582379D01*
X186018598Y-69582372D01*
X186024999Y-69522844D01*
X186025000Y-69522827D01*
X186025000Y-69400000D01*
X188125000Y-69400000D01*
X188125000Y-69522844D01*
X188131401Y-69582372D01*
X188131403Y-69582379D01*
X188181645Y-69717086D01*
X188181649Y-69717093D01*
X188267809Y-69832187D01*
X188267812Y-69832190D01*
X188382906Y-69918350D01*
X188382913Y-69918354D01*
X188517620Y-69968596D01*
X188517627Y-69968598D01*
X188577155Y-69974999D01*
X188577172Y-69975000D01*
X188900000Y-69975000D01*
X188900000Y-69400000D01*
X189400000Y-69400000D01*
X189400000Y-69975000D01*
X189722828Y-69975000D01*
X189722844Y-69974999D01*
X189782372Y-69968598D01*
X189782379Y-69968596D01*
X189917086Y-69918354D01*
X189917093Y-69918350D01*
X190032187Y-69832190D01*
X190032190Y-69832187D01*
X190118350Y-69717093D01*
X190118354Y-69717086D01*
X190168596Y-69582379D01*
X190168598Y-69582372D01*
X190174999Y-69522844D01*
X190175000Y-69522827D01*
X190175000Y-69400000D01*
X189400000Y-69400000D01*
X188900000Y-69400000D01*
X188125000Y-69400000D01*
X186025000Y-69400000D01*
X184874000Y-69400000D01*
X184806961Y-69380315D01*
X184761206Y-69327511D01*
X184750000Y-69276000D01*
X184750000Y-68325000D01*
X185250000Y-68325000D01*
X185250000Y-68900000D01*
X186025000Y-68900000D01*
X188125000Y-68900000D01*
X188900000Y-68900000D01*
X188900000Y-68325000D01*
X189400000Y-68325000D01*
X189400000Y-68900000D01*
X190175000Y-68900000D01*
X190175000Y-68777172D01*
X190174998Y-68777144D01*
X190168598Y-68717627D01*
X190168596Y-68717620D01*
X190118354Y-68582913D01*
X190118350Y-68582906D01*
X190032190Y-68467812D01*
X190032187Y-68467809D01*
X189917093Y-68381649D01*
X189917086Y-68381645D01*
X189782379Y-68331403D01*
X189782372Y-68331401D01*
X189722844Y-68325000D01*
X189400000Y-68325000D01*
X188900000Y-68325000D01*
X188577155Y-68325000D01*
X188517627Y-68331401D01*
X188517620Y-68331403D01*
X188382913Y-68381645D01*
X188382906Y-68381649D01*
X188267812Y-68467809D01*
X188267809Y-68467812D01*
X188181649Y-68582906D01*
X188181645Y-68582913D01*
X188131403Y-68717620D01*
X188131401Y-68717627D01*
X188125002Y-68777144D01*
X188125000Y-68777172D01*
X188125000Y-68900000D01*
X186025000Y-68900000D01*
X186025000Y-68777172D01*
X186024998Y-68777144D01*
X186018598Y-68717627D01*
X186018596Y-68717620D01*
X185968354Y-68582913D01*
X185968350Y-68582906D01*
X185882190Y-68467812D01*
X185882187Y-68467809D01*
X185767093Y-68381649D01*
X185767086Y-68381645D01*
X185632379Y-68331403D01*
X185632372Y-68331401D01*
X185572844Y-68325000D01*
X185250000Y-68325000D01*
X184750000Y-68325000D01*
X184427155Y-68325000D01*
X184367627Y-68331401D01*
X184367620Y-68331403D01*
X184232913Y-68381645D01*
X184232906Y-68381649D01*
X184117812Y-68467809D01*
X184072348Y-68528541D01*
X184016414Y-68570411D01*
X183946722Y-68575395D01*
X183885401Y-68541910D01*
X183527519Y-68184028D01*
X183494034Y-68122705D01*
X183491200Y-68096347D01*
X183491200Y-67744844D01*
X183493397Y-67721606D01*
X183494927Y-67713588D01*
X183491321Y-67656275D01*
X183491200Y-67652403D01*
X183491200Y-67421551D01*
X183510885Y-67354512D01*
X183527515Y-67333874D01*
X183762822Y-67098567D01*
X183824142Y-67065084D01*
X183893833Y-67070068D01*
X183949767Y-67111939D01*
X183974184Y-67177404D01*
X183974500Y-67186249D01*
X183974500Y-67372869D01*
X183974501Y-67372876D01*
X183980908Y-67432483D01*
X184031202Y-67567328D01*
X184031206Y-67567335D01*
X184117452Y-67682544D01*
X184117455Y-67682547D01*
X184232664Y-67768793D01*
X184232671Y-67768797D01*
X184367517Y-67819091D01*
X184367516Y-67819091D01*
X184374444Y-67819835D01*
X184427127Y-67825500D01*
X185572872Y-67825499D01*
X185632483Y-67819091D01*
X185739381Y-67779220D01*
X185809067Y-67774237D01*
X185813520Y-67775292D01*
X185826711Y-67778678D01*
X185845119Y-67784981D01*
X185863504Y-67792938D01*
X185909557Y-67800232D01*
X185915226Y-67801406D01*
X185960381Y-67813000D01*
X185980416Y-67813000D01*
X185999813Y-67814526D01*
X186019596Y-67817660D01*
X186065984Y-67813275D01*
X186071822Y-67813000D01*
X187294752Y-67813000D01*
X187361791Y-67832685D01*
X187386900Y-67854026D01*
X187392626Y-67860385D01*
X187392630Y-67860389D01*
X187545765Y-67971648D01*
X187545770Y-67971651D01*
X187718692Y-68048642D01*
X187718697Y-68048644D01*
X187903854Y-68088000D01*
X187903855Y-68088000D01*
X188093144Y-68088000D01*
X188093146Y-68088000D01*
X188278303Y-68048644D01*
X188451230Y-67971651D01*
X188604371Y-67860388D01*
X188604375Y-67860383D01*
X188607745Y-67857350D01*
X188670737Y-67827119D01*
X188690718Y-67825499D01*
X189722871Y-67825499D01*
X189722872Y-67825499D01*
X189782483Y-67819091D01*
X189917331Y-67768796D01*
X190032546Y-67682546D01*
X190038052Y-67675191D01*
X190093985Y-67633319D01*
X190137320Y-67625500D01*
X191398334Y-67625500D01*
X191465373Y-67645185D01*
X191486010Y-67661814D01*
X191579313Y-67755117D01*
X191718605Y-67837494D01*
X191759587Y-67849400D01*
X191874002Y-67882642D01*
X191874005Y-67882642D01*
X191874007Y-67882643D01*
X191886108Y-67883595D01*
X191910308Y-67885500D01*
X191910310Y-67885500D01*
X192319692Y-67885500D01*
X192337841Y-67884071D01*
X192355993Y-67882643D01*
X192355995Y-67882642D01*
X192355997Y-67882642D01*
X192396975Y-67870736D01*
X192511395Y-67837494D01*
X192532369Y-67825089D01*
X192600088Y-67807906D01*
X192658613Y-67825090D01*
X192678803Y-67837031D01*
X192825000Y-67879504D01*
X192825000Y-67573352D01*
X192842267Y-67510233D01*
X192847494Y-67501395D01*
X192849400Y-67494837D01*
X192892642Y-67345997D01*
X192892643Y-67345991D01*
X192894295Y-67325000D01*
X193325000Y-67325000D01*
X193325000Y-67879503D01*
X193471195Y-67837031D01*
X193610374Y-67754721D01*
X193610383Y-67754714D01*
X193724714Y-67640383D01*
X193724721Y-67640374D01*
X193807031Y-67501195D01*
X193807033Y-67501190D01*
X193852144Y-67345918D01*
X193852145Y-67345912D01*
X193853790Y-67325000D01*
X193325000Y-67325000D01*
X192894295Y-67325000D01*
X192895500Y-67309692D01*
X192895500Y-66840308D01*
X192894295Y-66825000D01*
X193325000Y-66825000D01*
X193853790Y-66825000D01*
X193852145Y-66804089D01*
X193807031Y-66648804D01*
X193724721Y-66509625D01*
X193724714Y-66509616D01*
X193610383Y-66395285D01*
X193610374Y-66395278D01*
X193471193Y-66312967D01*
X193471190Y-66312965D01*
X193325001Y-66270493D01*
X193325000Y-66270494D01*
X193325000Y-66825000D01*
X192894295Y-66825000D01*
X192892643Y-66804008D01*
X192892642Y-66804002D01*
X192847495Y-66648608D01*
X192847492Y-66648600D01*
X192842266Y-66639763D01*
X192825000Y-66576645D01*
X192825000Y-66270494D01*
X192824998Y-66270493D01*
X192678809Y-66312965D01*
X192678806Y-66312967D01*
X192658608Y-66324912D01*
X192590884Y-66342092D01*
X192532370Y-66324910D01*
X192511397Y-66312507D01*
X192511390Y-66312504D01*
X192355997Y-66267357D01*
X192355991Y-66267356D01*
X192319692Y-66264500D01*
X192319690Y-66264500D01*
X191910310Y-66264500D01*
X191910308Y-66264500D01*
X191874008Y-66267356D01*
X191874002Y-66267357D01*
X191718609Y-66312504D01*
X191718606Y-66312505D01*
X191695186Y-66326356D01*
X191647065Y-66354815D01*
X191642978Y-66357232D01*
X191579857Y-66374500D01*
X190137320Y-66374500D01*
X190070281Y-66354815D01*
X190038052Y-66324809D01*
X190032548Y-66317457D01*
X190032546Y-66317454D01*
X190026552Y-66312967D01*
X189917335Y-66231206D01*
X189917328Y-66231202D01*
X189782482Y-66180908D01*
X189782483Y-66180908D01*
X189722883Y-66174501D01*
X189722881Y-66174500D01*
X189722873Y-66174500D01*
X189722864Y-66174500D01*
X188577129Y-66174500D01*
X188577123Y-66174501D01*
X188517516Y-66180908D01*
X188382671Y-66231202D01*
X188382665Y-66231206D01*
X188305638Y-66288868D01*
X188240174Y-66313285D01*
X188205548Y-66310891D01*
X188093146Y-66287000D01*
X187903854Y-66287000D01*
X187895066Y-66288868D01*
X187718697Y-66326355D01*
X187718692Y-66326357D01*
X187545770Y-66403348D01*
X187545765Y-66403351D01*
X187392630Y-66514610D01*
X187392626Y-66514614D01*
X187386900Y-66520974D01*
X187327413Y-66557621D01*
X187294752Y-66562000D01*
X186349660Y-66562000D01*
X186282621Y-66542315D01*
X186267658Y-66531015D01*
X186266370Y-66529879D01*
X186260886Y-66525625D01*
X186256461Y-66521847D01*
X186222482Y-66489938D01*
X186222480Y-66489936D01*
X186222477Y-66489935D01*
X186204929Y-66480288D01*
X186188663Y-66469604D01*
X186172833Y-66457325D01*
X186130068Y-66438818D01*
X186124822Y-66436248D01*
X186083993Y-66413803D01*
X186083992Y-66413802D01*
X186064593Y-66408822D01*
X186046181Y-66402518D01*
X186027798Y-66394562D01*
X186027792Y-66394560D01*
X185981774Y-66387272D01*
X185976052Y-66386087D01*
X185966176Y-66383552D01*
X185906138Y-66347814D01*
X185897753Y-66337768D01*
X185882546Y-66317454D01*
X185876552Y-66312967D01*
X185767335Y-66231206D01*
X185767328Y-66231202D01*
X185632482Y-66180908D01*
X185632483Y-66180908D01*
X185572883Y-66174501D01*
X185572881Y-66174500D01*
X185572873Y-66174500D01*
X185572865Y-66174500D01*
X184986251Y-66174500D01*
X184919212Y-66154815D01*
X184873457Y-66102011D01*
X184863513Y-66032853D01*
X184892538Y-65969297D01*
X184898570Y-65962819D01*
X185864724Y-64996665D01*
X187042962Y-63818427D01*
X187104283Y-63784944D01*
X187162734Y-63786335D01*
X187190583Y-63793797D01*
X187344592Y-63835063D01*
X187521034Y-63850500D01*
X187579999Y-63855659D01*
X187580000Y-63855659D01*
X187580001Y-63855659D01*
X187638966Y-63850500D01*
X187815408Y-63835063D01*
X188043663Y-63773903D01*
X188257830Y-63674035D01*
X188451401Y-63538495D01*
X188618495Y-63371401D01*
X188748730Y-63185405D01*
X188803307Y-63141781D01*
X188872805Y-63134587D01*
X188935160Y-63166110D01*
X188951879Y-63185405D01*
X189081890Y-63371078D01*
X189248917Y-63538105D01*
X189442421Y-63673600D01*
X189656507Y-63773429D01*
X189656516Y-63773433D01*
X189870000Y-63830634D01*
X189870000Y-62935501D01*
X189977685Y-62984680D01*
X190084237Y-63000000D01*
X190155763Y-63000000D01*
X190262315Y-62984680D01*
X190370000Y-62935501D01*
X190370000Y-63830633D01*
X190583483Y-63773433D01*
X190583492Y-63773429D01*
X190797578Y-63673600D01*
X190991082Y-63538105D01*
X191158105Y-63371082D01*
X191288425Y-63184968D01*
X191343002Y-63141344D01*
X191412501Y-63134151D01*
X191474855Y-63165673D01*
X191491575Y-63184968D01*
X191621894Y-63371082D01*
X191788917Y-63538105D01*
X191982421Y-63673600D01*
X192196507Y-63773429D01*
X192196516Y-63773433D01*
X192410000Y-63830634D01*
X192410000Y-62935501D01*
X192517685Y-62984680D01*
X192624237Y-63000000D01*
X192695763Y-63000000D01*
X192802315Y-62984680D01*
X192910000Y-62935501D01*
X192910000Y-63830633D01*
X193123483Y-63773433D01*
X193123492Y-63773429D01*
X193337578Y-63673600D01*
X193531082Y-63538105D01*
X193698105Y-63371082D01*
X193833600Y-63177578D01*
X193933429Y-62963492D01*
X193933432Y-62963486D01*
X193990636Y-62750000D01*
X193093686Y-62750000D01*
X193119493Y-62709844D01*
X193160000Y-62571889D01*
X193160000Y-62428111D01*
X193119493Y-62290156D01*
X193093686Y-62250000D01*
X193990636Y-62250000D01*
X193990635Y-62249999D01*
X193933432Y-62036513D01*
X193933429Y-62036507D01*
X193833600Y-61822422D01*
X193833599Y-61822420D01*
X193698113Y-61628926D01*
X193698108Y-61628920D01*
X193531082Y-61461894D01*
X193337578Y-61326399D01*
X193123492Y-61226570D01*
X193123486Y-61226567D01*
X192910000Y-61169364D01*
X192910000Y-62064498D01*
X192802315Y-62015320D01*
X192695763Y-62000000D01*
X192624237Y-62000000D01*
X192517685Y-62015320D01*
X192410000Y-62064498D01*
X192410000Y-61169364D01*
X192409999Y-61169364D01*
X192196513Y-61226567D01*
X192196507Y-61226570D01*
X191982422Y-61326399D01*
X191982420Y-61326400D01*
X191788926Y-61461886D01*
X191788920Y-61461891D01*
X191621891Y-61628920D01*
X191621890Y-61628922D01*
X191491575Y-61815031D01*
X191436998Y-61858655D01*
X191367499Y-61865848D01*
X191305145Y-61834326D01*
X191288425Y-61815031D01*
X191158109Y-61628922D01*
X191158108Y-61628920D01*
X190991082Y-61461894D01*
X190797578Y-61326399D01*
X190583492Y-61226570D01*
X190583486Y-61226567D01*
X190370000Y-61169364D01*
X190370000Y-62064498D01*
X190262315Y-62015320D01*
X190155763Y-62000000D01*
X190084237Y-62000000D01*
X189977685Y-62015320D01*
X189870000Y-62064498D01*
X189870000Y-61169364D01*
X189869999Y-61169364D01*
X189656513Y-61226567D01*
X189656507Y-61226570D01*
X189442422Y-61326399D01*
X189442420Y-61326400D01*
X189248926Y-61461886D01*
X189248920Y-61461891D01*
X189081891Y-61628920D01*
X189081890Y-61628922D01*
X188951880Y-61814595D01*
X188897303Y-61858219D01*
X188827804Y-61865412D01*
X188765450Y-61833890D01*
X188748730Y-61814594D01*
X188618494Y-61628597D01*
X188451402Y-61461506D01*
X188451395Y-61461501D01*
X188449201Y-61459965D01*
X188378130Y-61410200D01*
X188257834Y-61325967D01*
X188257830Y-61325965D01*
X188235564Y-61315582D01*
X188043663Y-61226097D01*
X188043659Y-61226096D01*
X188043655Y-61226094D01*
X187815413Y-61164938D01*
X187815403Y-61164936D01*
X187580001Y-61144341D01*
X187579999Y-61144341D01*
X187344596Y-61164936D01*
X187344586Y-61164938D01*
X187116344Y-61226094D01*
X187116335Y-61226098D01*
X186902171Y-61325964D01*
X186902169Y-61325965D01*
X186753891Y-61429790D01*
X186687685Y-61452117D01*
X186619917Y-61435106D01*
X186595087Y-61415896D01*
X186118503Y-60939312D01*
X186108680Y-60927050D01*
X186108459Y-60927234D01*
X186103486Y-60921223D01*
X186083581Y-60902531D01*
X186053064Y-60873873D01*
X186041497Y-60862306D01*
X186032175Y-60852983D01*
X186026686Y-60848725D01*
X186022261Y-60844947D01*
X185988282Y-60813038D01*
X185988280Y-60813036D01*
X185988277Y-60813035D01*
X185970729Y-60803388D01*
X185954463Y-60792704D01*
X185938633Y-60780425D01*
X185895868Y-60761918D01*
X185890622Y-60759348D01*
X185842957Y-60733145D01*
X185844454Y-60730420D01*
X185800734Y-60696300D01*
X185777638Y-60630358D01*
X185793859Y-60562397D01*
X185844248Y-60513995D01*
X185901475Y-60500000D01*
X194376000Y-60500000D01*
X194443039Y-60519685D01*
G37*
%TD.AperFunction*%
%TA.AperFunction,Conductor*%
G36*
X171492760Y-78972946D02*
G01*
X171548694Y-79014817D01*
X171573111Y-79080282D01*
X171573366Y-79085232D01*
X171574500Y-79121314D01*
X171574500Y-79150843D01*
X171574501Y-79150860D01*
X171575368Y-79157731D01*
X171575826Y-79163550D01*
X171577290Y-79210124D01*
X171577291Y-79210127D01*
X171582880Y-79229367D01*
X171586824Y-79248411D01*
X171589336Y-79268292D01*
X171603444Y-79303926D01*
X171606490Y-79311619D01*
X171608382Y-79317147D01*
X171621381Y-79361888D01*
X171631580Y-79379134D01*
X171640138Y-79396603D01*
X171647514Y-79415232D01*
X171674898Y-79452923D01*
X171678106Y-79457807D01*
X171701827Y-79497916D01*
X171701833Y-79497924D01*
X171715990Y-79512080D01*
X171728628Y-79526876D01*
X171740405Y-79543086D01*
X171740406Y-79543087D01*
X171776309Y-79572788D01*
X171780632Y-79576722D01*
X171988181Y-79784272D01*
X172021666Y-79845595D01*
X172024500Y-79871949D01*
X172024500Y-79897867D01*
X172024501Y-79897877D01*
X172030908Y-79957483D01*
X172081202Y-80092328D01*
X172081203Y-80092329D01*
X172081204Y-80092331D01*
X172167454Y-80207546D01*
X172196485Y-80229278D01*
X172222493Y-80255660D01*
X172228905Y-80264486D01*
X172264808Y-80294188D01*
X172269130Y-80298121D01*
X172403442Y-80432433D01*
X172531694Y-80560684D01*
X172541521Y-80572949D01*
X172541742Y-80572767D01*
X172546715Y-80578779D01*
X172597135Y-80626125D01*
X172618030Y-80647021D01*
X172623507Y-80651270D01*
X172627948Y-80655063D01*
X172661911Y-80686956D01*
X172661913Y-80686957D01*
X172661918Y-80686962D01*
X172679476Y-80696614D01*
X172695735Y-80707295D01*
X172711564Y-80719573D01*
X172754338Y-80738082D01*
X172759556Y-80740638D01*
X172800408Y-80763097D01*
X172819816Y-80768080D01*
X172838217Y-80774380D01*
X172856604Y-80782337D01*
X172896072Y-80788588D01*
X172902619Y-80789625D01*
X172908339Y-80790809D01*
X172953481Y-80802400D01*
X172973516Y-80802400D01*
X172992914Y-80803926D01*
X173012694Y-80807059D01*
X173012695Y-80807060D01*
X173012695Y-80807059D01*
X173012696Y-80807060D01*
X173059084Y-80802675D01*
X173064922Y-80802400D01*
X173929153Y-80802400D01*
X173952385Y-80804596D01*
X173953989Y-80804901D01*
X173960412Y-80806127D01*
X174017724Y-80802521D01*
X174021597Y-80802400D01*
X174039342Y-80802400D01*
X174039350Y-80802400D01*
X174056990Y-80800171D01*
X174060807Y-80799810D01*
X174118138Y-80796204D01*
X174125905Y-80793680D01*
X174148680Y-80788588D01*
X174156792Y-80787564D01*
X174210195Y-80766419D01*
X174213835Y-80765109D01*
X174268441Y-80747367D01*
X174268442Y-80747365D01*
X174275863Y-80744955D01*
X174276445Y-80746748D01*
X174335490Y-80737567D01*
X174399374Y-80765860D01*
X174437821Y-80824200D01*
X174438623Y-80894066D01*
X174427916Y-80920234D01*
X174413804Y-80945904D01*
X174408822Y-80965307D01*
X174402521Y-80983710D01*
X174394562Y-81002102D01*
X174394561Y-81002105D01*
X174387271Y-81048127D01*
X174386087Y-81053846D01*
X174374501Y-81098972D01*
X174374500Y-81098982D01*
X174374500Y-81119016D01*
X174372973Y-81138415D01*
X174369840Y-81158194D01*
X174369840Y-81158195D01*
X174374225Y-81204583D01*
X174374500Y-81210421D01*
X174374500Y-83848187D01*
X174354815Y-83915226D01*
X174302011Y-83960981D01*
X174232853Y-83970925D01*
X174169297Y-83941900D01*
X174152523Y-83924190D01*
X174151136Y-83922402D01*
X174037603Y-83808869D01*
X174037595Y-83808863D01*
X173899393Y-83727131D01*
X173899388Y-83727129D01*
X173745208Y-83682335D01*
X173745202Y-83682334D01*
X173709183Y-83679500D01*
X173709181Y-83679500D01*
X173443607Y-83679500D01*
X173310819Y-83679501D01*
X173274794Y-83682335D01*
X173120611Y-83727129D01*
X173120607Y-83727130D01*
X173062628Y-83761419D01*
X172994903Y-83778600D01*
X172936388Y-83761419D01*
X172879189Y-83727592D01*
X172879188Y-83727591D01*
X172740001Y-83687153D01*
X172740000Y-83687154D01*
X172740000Y-84242025D01*
X172739809Y-84246889D01*
X172739500Y-84250819D01*
X172739500Y-84475812D01*
X172739501Y-84626000D01*
X172719817Y-84693039D01*
X172667013Y-84738794D01*
X172615501Y-84750000D01*
X172374749Y-84750000D01*
X172307710Y-84730315D01*
X172287064Y-84713677D01*
X172276315Y-84702927D01*
X172242833Y-84641602D01*
X172240000Y-84615250D01*
X172240000Y-83687154D01*
X172239998Y-83687153D01*
X172100811Y-83727591D01*
X172100808Y-83727593D01*
X171962714Y-83809261D01*
X171962705Y-83809268D01*
X171849268Y-83922705D01*
X171849259Y-83922716D01*
X171799393Y-84007035D01*
X171748324Y-84054718D01*
X171679582Y-84067221D01*
X171614993Y-84040575D01*
X171604981Y-84031594D01*
X170749319Y-83175932D01*
X170715834Y-83114609D01*
X170713000Y-83088251D01*
X170713000Y-79701556D01*
X170732685Y-79634517D01*
X170749319Y-79613875D01*
X171051575Y-79311619D01*
X171361748Y-79001445D01*
X171423069Y-78967962D01*
X171492760Y-78972946D01*
G37*
%TD.AperFunction*%
%TA.AperFunction,Conductor*%
G36*
X176971345Y-81083485D02*
G01*
X177017100Y-81136289D01*
X177027044Y-81205447D01*
X177012969Y-81247535D01*
X176995504Y-81279305D01*
X176990522Y-81298707D01*
X176984221Y-81317110D01*
X176976262Y-81335502D01*
X176976261Y-81335505D01*
X176968971Y-81381527D01*
X176967787Y-81387246D01*
X176956201Y-81432372D01*
X176956200Y-81432382D01*
X176956200Y-81452416D01*
X176954673Y-81471813D01*
X176951540Y-81491596D01*
X176955531Y-81533815D01*
X176955925Y-81537983D01*
X176956200Y-81543821D01*
X176956200Y-84473797D01*
X176936515Y-84540836D01*
X176883711Y-84586591D01*
X176814553Y-84596535D01*
X176750997Y-84567510D01*
X176744519Y-84561478D01*
X176658853Y-84475812D01*
X176649030Y-84463550D01*
X176648809Y-84463734D01*
X176643836Y-84457723D01*
X176593414Y-84410373D01*
X176582969Y-84399928D01*
X176572525Y-84389483D01*
X176567036Y-84385225D01*
X176562611Y-84381447D01*
X176528632Y-84349538D01*
X176528630Y-84349536D01*
X176528627Y-84349535D01*
X176511079Y-84339888D01*
X176494813Y-84329204D01*
X176478983Y-84316925D01*
X176436218Y-84298418D01*
X176430972Y-84295848D01*
X176390143Y-84273403D01*
X176390142Y-84273402D01*
X176370743Y-84268422D01*
X176352331Y-84262118D01*
X176333948Y-84254162D01*
X176333942Y-84254160D01*
X176287924Y-84246872D01*
X176282202Y-84245687D01*
X176237071Y-84234100D01*
X176237069Y-84234100D01*
X176217034Y-84234100D01*
X176197636Y-84232573D01*
X176190212Y-84231397D01*
X176177855Y-84229440D01*
X176177854Y-84229440D01*
X176131466Y-84233825D01*
X176125628Y-84234100D01*
X175749500Y-84234100D01*
X175682461Y-84214415D01*
X175636706Y-84161611D01*
X175625500Y-84110100D01*
X175625500Y-81488452D01*
X175645185Y-81421413D01*
X175661819Y-81400771D01*
X175962471Y-81100119D01*
X176023794Y-81066634D01*
X176050152Y-81063800D01*
X176904306Y-81063800D01*
X176971345Y-81083485D01*
G37*
%TD.AperFunction*%
%TA.AperFunction,Conductor*%
G36*
X158992384Y-76642820D02*
G01*
X159036731Y-76671321D01*
X164249194Y-81883784D01*
X164259019Y-81896048D01*
X164259240Y-81895866D01*
X164264210Y-81901873D01*
X164264213Y-81901876D01*
X164264214Y-81901877D01*
X164314651Y-81949241D01*
X164335530Y-81970120D01*
X164341004Y-81974366D01*
X164345442Y-81978156D01*
X164379418Y-82010062D01*
X164379422Y-82010064D01*
X164396973Y-82019713D01*
X164413231Y-82030392D01*
X164429064Y-82042674D01*
X164451015Y-82052172D01*
X164471837Y-82061183D01*
X164477081Y-82063752D01*
X164517908Y-82086197D01*
X164537312Y-82091179D01*
X164555710Y-82097478D01*
X164574105Y-82105438D01*
X164620129Y-82112726D01*
X164625832Y-82113907D01*
X164670981Y-82125500D01*
X164691016Y-82125500D01*
X164710413Y-82127026D01*
X164730196Y-82130160D01*
X164776584Y-82125775D01*
X164782422Y-82125500D01*
X167276383Y-82125500D01*
X167343422Y-82145185D01*
X167389177Y-82197989D01*
X167395459Y-82214905D01*
X167401380Y-82235287D01*
X167401382Y-82235290D01*
X167411086Y-82251700D01*
X167411580Y-82252534D01*
X167420136Y-82270000D01*
X167423328Y-82278059D01*
X167427514Y-82288632D01*
X167454898Y-82326323D01*
X167458106Y-82331207D01*
X167481827Y-82371316D01*
X167486613Y-82377486D01*
X167484788Y-82378900D01*
X167512720Y-82430031D01*
X167514877Y-82443440D01*
X167532526Y-82611356D01*
X167532527Y-82611359D01*
X167591018Y-82791377D01*
X167591021Y-82791384D01*
X167685667Y-82955316D01*
X167805363Y-83088251D01*
X167812329Y-83095988D01*
X167965465Y-83207248D01*
X167965466Y-83207248D01*
X167965470Y-83207251D01*
X167987863Y-83217221D01*
X168041100Y-83262471D01*
X168061421Y-83329320D01*
X168042376Y-83396544D01*
X167990010Y-83442799D01*
X167937427Y-83454500D01*
X164894596Y-83454500D01*
X164827557Y-83434815D01*
X164806915Y-83418181D01*
X164777603Y-83388869D01*
X164777595Y-83388863D01*
X164639393Y-83307131D01*
X164639388Y-83307129D01*
X164485208Y-83262335D01*
X164485202Y-83262334D01*
X164449183Y-83259500D01*
X164449181Y-83259500D01*
X164365452Y-83259500D01*
X164298413Y-83239815D01*
X164277771Y-83223181D01*
X163875089Y-82820499D01*
X163456403Y-82401812D01*
X163446580Y-82389550D01*
X163446359Y-82389734D01*
X163441386Y-82383723D01*
X163434744Y-82377486D01*
X163390964Y-82336373D01*
X163380158Y-82325567D01*
X163370075Y-82315483D01*
X163364586Y-82311225D01*
X163360161Y-82307447D01*
X163326182Y-82275538D01*
X163326180Y-82275536D01*
X163326177Y-82275535D01*
X163308629Y-82265888D01*
X163292363Y-82255204D01*
X163288921Y-82252534D01*
X163276536Y-82242927D01*
X163276535Y-82242926D01*
X163276533Y-82242925D01*
X163233768Y-82224418D01*
X163228522Y-82221848D01*
X163187693Y-82199403D01*
X163187692Y-82199402D01*
X163168293Y-82194422D01*
X163149881Y-82188118D01*
X163131498Y-82180162D01*
X163131492Y-82180160D01*
X163085474Y-82172872D01*
X163079752Y-82171687D01*
X163034621Y-82160100D01*
X163034619Y-82160100D01*
X163014584Y-82160100D01*
X162995186Y-82158573D01*
X162987762Y-82157397D01*
X162975405Y-82155440D01*
X162975404Y-82155440D01*
X162929016Y-82159825D01*
X162923178Y-82160100D01*
X156650300Y-82160100D01*
X156583261Y-82140415D01*
X156537506Y-82087611D01*
X156526300Y-82036100D01*
X156526300Y-79983537D01*
X156528024Y-79967923D01*
X156527738Y-79967896D01*
X156528472Y-79960133D01*
X156526300Y-79891002D01*
X156526300Y-79861451D01*
X156526300Y-79861450D01*
X156525429Y-79854559D01*
X156524972Y-79848745D01*
X156523509Y-79802174D01*
X156523509Y-79802172D01*
X156517920Y-79782937D01*
X156513974Y-79763884D01*
X156512916Y-79755506D01*
X156511464Y-79744008D01*
X156494301Y-79700659D01*
X156492414Y-79695146D01*
X156491247Y-79691130D01*
X156490919Y-79690001D01*
X157694532Y-79690001D01*
X157714364Y-79916686D01*
X157714366Y-79916697D01*
X157773258Y-80136488D01*
X157773261Y-80136497D01*
X157869431Y-80342732D01*
X157869432Y-80342734D01*
X157999954Y-80529141D01*
X158160858Y-80690045D01*
X158160861Y-80690047D01*
X158347266Y-80820568D01*
X158553504Y-80916739D01*
X158553509Y-80916740D01*
X158553511Y-80916741D01*
X158606415Y-80930916D01*
X158773308Y-80975635D01*
X158935230Y-80989801D01*
X158999998Y-80995468D01*
X159000000Y-80995468D01*
X159000002Y-80995468D01*
X159056673Y-80990509D01*
X159226692Y-80975635D01*
X159446496Y-80916739D01*
X159652734Y-80820568D01*
X159839139Y-80690047D01*
X160000047Y-80529139D01*
X160130568Y-80342734D01*
X160226739Y-80136496D01*
X160285635Y-79916692D01*
X160305468Y-79690000D01*
X160303002Y-79661819D01*
X160295376Y-79574652D01*
X160285635Y-79463308D01*
X160226739Y-79243504D01*
X160130568Y-79037266D01*
X160000047Y-78850861D01*
X160000045Y-78850858D01*
X159839141Y-78689954D01*
X159652734Y-78559432D01*
X159652732Y-78559431D01*
X159446497Y-78463261D01*
X159446488Y-78463258D01*
X159226697Y-78404366D01*
X159226693Y-78404365D01*
X159226692Y-78404365D01*
X159226691Y-78404364D01*
X159226686Y-78404364D01*
X159000002Y-78384532D01*
X158999998Y-78384532D01*
X158773313Y-78404364D01*
X158773302Y-78404366D01*
X158553511Y-78463258D01*
X158553502Y-78463261D01*
X158347267Y-78559431D01*
X158347265Y-78559432D01*
X158160858Y-78689954D01*
X157999954Y-78850858D01*
X157869432Y-79037265D01*
X157869431Y-79037267D01*
X157773261Y-79243502D01*
X157773258Y-79243511D01*
X157714366Y-79463302D01*
X157714364Y-79463313D01*
X157694532Y-79689998D01*
X157694532Y-79690001D01*
X156490919Y-79690001D01*
X156479417Y-79650410D01*
X156469221Y-79633169D01*
X156460660Y-79615693D01*
X156457365Y-79607372D01*
X156453286Y-79597068D01*
X156453286Y-79597067D01*
X156438504Y-79576722D01*
X156425883Y-79559350D01*
X156422700Y-79554505D01*
X156398970Y-79514379D01*
X156398965Y-79514373D01*
X156384805Y-79500213D01*
X156372170Y-79485420D01*
X156360393Y-79469212D01*
X156324493Y-79439513D01*
X156320181Y-79435590D01*
X156209460Y-79324869D01*
X156175975Y-79263546D01*
X156180959Y-79193854D01*
X156222831Y-79137921D01*
X156262517Y-79118120D01*
X156265956Y-79117121D01*
X156285012Y-79113174D01*
X156304892Y-79110664D01*
X156348222Y-79093507D01*
X156353746Y-79091617D01*
X156362096Y-79089191D01*
X156398490Y-79078618D01*
X156415729Y-79068422D01*
X156433203Y-79059862D01*
X156451827Y-79052488D01*
X156451827Y-79052487D01*
X156451832Y-79052486D01*
X156489549Y-79025082D01*
X156494405Y-79021892D01*
X156534520Y-78998170D01*
X156548689Y-78983999D01*
X156563479Y-78971368D01*
X156579687Y-78959594D01*
X156609399Y-78923676D01*
X156613312Y-78919376D01*
X158861371Y-76671319D01*
X158922692Y-76637836D01*
X158992384Y-76642820D01*
G37*
%TD.AperFunction*%
%TA.AperFunction,Conductor*%
G36*
X145682349Y-78149985D02*
G01*
X145728104Y-78202789D01*
X145738048Y-78271947D01*
X145734386Y-78288895D01*
X145712335Y-78364791D01*
X145712334Y-78364797D01*
X145709500Y-78400817D01*
X145709501Y-78899181D01*
X145712335Y-78935205D01*
X145757129Y-79089388D01*
X145757131Y-79089393D01*
X145838863Y-79227595D01*
X145838869Y-79227603D01*
X145952396Y-79341130D01*
X145952400Y-79341133D01*
X145952402Y-79341135D01*
X146090607Y-79422869D01*
X146117204Y-79430596D01*
X146244791Y-79467664D01*
X146244794Y-79467664D01*
X146244796Y-79467665D01*
X146250006Y-79468075D01*
X146280817Y-79470500D01*
X146280818Y-79470499D01*
X146280819Y-79470500D01*
X146546393Y-79470499D01*
X146679181Y-79470499D01*
X146688065Y-79469800D01*
X146715204Y-79467665D01*
X146869393Y-79422869D01*
X146927369Y-79388581D01*
X146995093Y-79371398D01*
X147053612Y-79388581D01*
X147110805Y-79422404D01*
X147250000Y-79462844D01*
X147250000Y-78907973D01*
X147250191Y-78903106D01*
X147250500Y-78899181D01*
X147250499Y-78815452D01*
X147270183Y-78748415D01*
X147286819Y-78727771D01*
X147368074Y-78646518D01*
X147429397Y-78613033D01*
X147455754Y-78610200D01*
X147626000Y-78610200D01*
X147693039Y-78629885D01*
X147738794Y-78682689D01*
X147750000Y-78734200D01*
X147750000Y-79462843D01*
X147889194Y-79422404D01*
X148027285Y-79340738D01*
X148027294Y-79340731D01*
X148140731Y-79227294D01*
X148140738Y-79227285D01*
X148222406Y-79089191D01*
X148222407Y-79089188D01*
X148268935Y-78929041D01*
X148270801Y-78929583D01*
X148298077Y-78875354D01*
X148358234Y-78839816D01*
X148428054Y-78842444D01*
X148476351Y-78872342D01*
X148862128Y-79258119D01*
X148895613Y-79319442D01*
X148890629Y-79389134D01*
X148848757Y-79445067D01*
X148783293Y-79469484D01*
X148774447Y-79469800D01*
X148617443Y-79469800D01*
X148601822Y-79468075D01*
X148601795Y-79468361D01*
X148594033Y-79467626D01*
X148524872Y-79469800D01*
X148495349Y-79469800D01*
X148488478Y-79470667D01*
X148482659Y-79471125D01*
X148436074Y-79472589D01*
X148436068Y-79472590D01*
X148416826Y-79478180D01*
X148397787Y-79482123D01*
X148377917Y-79484634D01*
X148377903Y-79484637D01*
X148334583Y-79501788D01*
X148329058Y-79503680D01*
X148284313Y-79516680D01*
X148284310Y-79516681D01*
X148267066Y-79526879D01*
X148249605Y-79535433D01*
X148230974Y-79542810D01*
X148230962Y-79542817D01*
X148193270Y-79570202D01*
X148188387Y-79573409D01*
X148148280Y-79597129D01*
X148134114Y-79611295D01*
X148119324Y-79623927D01*
X148103114Y-79635704D01*
X148103111Y-79635707D01*
X148073410Y-79671609D01*
X148069477Y-79675931D01*
X146452226Y-81293181D01*
X146390903Y-81326666D01*
X146364546Y-81329500D01*
X146280819Y-81329501D01*
X146244794Y-81332335D01*
X146090611Y-81377129D01*
X146090606Y-81377131D01*
X145952404Y-81458863D01*
X145952396Y-81458869D01*
X145838869Y-81572396D01*
X145838863Y-81572404D01*
X145757131Y-81710606D01*
X145757129Y-81710611D01*
X145712335Y-81864791D01*
X145712334Y-81864797D01*
X145709500Y-81900817D01*
X145709501Y-82399181D01*
X145712334Y-82435201D01*
X145743451Y-82542306D01*
X145743251Y-82612175D01*
X145705308Y-82670845D01*
X145641670Y-82699688D01*
X145624374Y-82700900D01*
X145588853Y-82700900D01*
X145521814Y-82681215D01*
X145501172Y-82664581D01*
X143955003Y-81118412D01*
X143945180Y-81106150D01*
X143944959Y-81106334D01*
X143939986Y-81100323D01*
X143936372Y-81096929D01*
X143889564Y-81052973D01*
X143879119Y-81042528D01*
X143868675Y-81032083D01*
X143863186Y-81027825D01*
X143858761Y-81024047D01*
X143824782Y-80992138D01*
X143824780Y-80992136D01*
X143824777Y-80992135D01*
X143807229Y-80982488D01*
X143790963Y-80971804D01*
X143775136Y-80959527D01*
X143775135Y-80959526D01*
X143775133Y-80959525D01*
X143732368Y-80941018D01*
X143727122Y-80938448D01*
X143686293Y-80916003D01*
X143686292Y-80916002D01*
X143666893Y-80911022D01*
X143648481Y-80904718D01*
X143630098Y-80896762D01*
X143630092Y-80896760D01*
X143584074Y-80889472D01*
X143578352Y-80888287D01*
X143533221Y-80876700D01*
X143533219Y-80876700D01*
X143513184Y-80876700D01*
X143493786Y-80875173D01*
X143486362Y-80873997D01*
X143474005Y-80872040D01*
X143474004Y-80872040D01*
X143427616Y-80876425D01*
X143421778Y-80876700D01*
X141185843Y-80876700D01*
X141170222Y-80874975D01*
X141170196Y-80875261D01*
X141162434Y-80874527D01*
X141162433Y-80874527D01*
X141093286Y-80876700D01*
X141063749Y-80876700D01*
X141056866Y-80877569D01*
X141051049Y-80878026D01*
X141004473Y-80879490D01*
X140985229Y-80885081D01*
X140966179Y-80889025D01*
X140938567Y-80892513D01*
X140938258Y-80890068D01*
X140880564Y-80888081D01*
X140823121Y-80848306D01*
X140796301Y-80783789D01*
X140808620Y-80715013D01*
X140831890Y-80682699D01*
X142007772Y-79506818D01*
X142069095Y-79473333D01*
X142095453Y-79470499D01*
X142179180Y-79470499D01*
X142215204Y-79467665D01*
X142369393Y-79422869D01*
X142427369Y-79388581D01*
X142495093Y-79371398D01*
X142553612Y-79388581D01*
X142610805Y-79422404D01*
X142750000Y-79462844D01*
X142750000Y-78907973D01*
X142750191Y-78903106D01*
X142750436Y-78900000D01*
X143250000Y-78900000D01*
X143250000Y-79462843D01*
X143389194Y-79422404D01*
X143527285Y-79340738D01*
X143527294Y-79340731D01*
X143640731Y-79227294D01*
X143640738Y-79227285D01*
X143722406Y-79089191D01*
X143722407Y-79089188D01*
X143767166Y-78935128D01*
X143767167Y-78935122D01*
X143769931Y-78900000D01*
X143250000Y-78900000D01*
X142750436Y-78900000D01*
X142750500Y-78899183D01*
X142750500Y-78721777D01*
X142750499Y-78523999D01*
X142770183Y-78456961D01*
X142822987Y-78411206D01*
X142874499Y-78400000D01*
X143769931Y-78400000D01*
X143767167Y-78364877D01*
X143767166Y-78364871D01*
X143745093Y-78288895D01*
X143745292Y-78219025D01*
X143783234Y-78160355D01*
X143846873Y-78131512D01*
X143864169Y-78130300D01*
X145615310Y-78130300D01*
X145682349Y-78149985D01*
G37*
%TD.AperFunction*%
%TA.AperFunction,Conductor*%
G36*
X154025115Y-79222309D02*
G01*
X154110607Y-79272869D01*
X154116235Y-79274504D01*
X154264791Y-79317664D01*
X154264794Y-79317664D01*
X154264796Y-79317665D01*
X154273801Y-79318373D01*
X154300816Y-79320500D01*
X154300818Y-79320499D01*
X154300819Y-79320500D01*
X154384547Y-79320499D01*
X154451585Y-79340183D01*
X154472228Y-79356818D01*
X155032503Y-79917093D01*
X155065988Y-79978416D01*
X155061004Y-80048108D01*
X155019132Y-80104041D01*
X154953668Y-80128458D01*
X154919043Y-80126065D01*
X154816646Y-80104300D01*
X154627354Y-80104300D01*
X154594897Y-80111198D01*
X154442197Y-80143655D01*
X154442192Y-80143657D01*
X154269270Y-80220648D01*
X154269265Y-80220651D01*
X154116129Y-80331911D01*
X153989466Y-80472585D01*
X153894821Y-80636515D01*
X153894818Y-80636522D01*
X153839291Y-80807418D01*
X153836326Y-80816544D01*
X153818885Y-80982488D01*
X153818679Y-80984450D01*
X153792094Y-81049064D01*
X153783039Y-81059169D01*
X153504028Y-81338181D01*
X153442705Y-81371666D01*
X153416347Y-81374500D01*
X152354596Y-81374500D01*
X152287557Y-81354815D01*
X152266915Y-81338181D01*
X152237603Y-81308869D01*
X152237595Y-81308863D01*
X152099393Y-81227131D01*
X152099388Y-81227129D01*
X151945208Y-81182335D01*
X151945202Y-81182334D01*
X151909183Y-81179500D01*
X151909181Y-81179500D01*
X151643607Y-81179500D01*
X151510819Y-81179501D01*
X151474794Y-81182335D01*
X151320611Y-81227129D01*
X151320604Y-81227132D01*
X151263119Y-81261128D01*
X151195395Y-81278309D01*
X151136881Y-81261128D01*
X151079395Y-81227132D01*
X151079388Y-81227129D01*
X150925208Y-81182335D01*
X150925202Y-81182334D01*
X150889183Y-81179500D01*
X150889181Y-81179500D01*
X150623607Y-81179500D01*
X150490819Y-81179501D01*
X150454794Y-81182335D01*
X150300611Y-81227129D01*
X150300606Y-81227131D01*
X150162404Y-81308863D01*
X150162396Y-81308869D01*
X150048869Y-81422396D01*
X150048863Y-81422404D01*
X149967131Y-81560606D01*
X149967129Y-81560611D01*
X149922335Y-81714791D01*
X149922334Y-81714797D01*
X149919500Y-81750817D01*
X149919500Y-81834547D01*
X149899815Y-81901586D01*
X149883181Y-81922228D01*
X149140828Y-82664581D01*
X149079505Y-82698066D01*
X149053147Y-82700900D01*
X148355105Y-82700900D01*
X148288066Y-82681215D01*
X148242311Y-82628411D01*
X148232367Y-82559253D01*
X148236028Y-82542306D01*
X148267167Y-82435122D01*
X148269931Y-82400000D01*
X147413951Y-82400000D01*
X147346912Y-82380315D01*
X147301157Y-82327511D01*
X147291213Y-82258353D01*
X147320238Y-82194797D01*
X147326270Y-82188319D01*
X147578270Y-81936319D01*
X147639593Y-81902834D01*
X147665951Y-81900000D01*
X148269931Y-81900000D01*
X148267167Y-81864877D01*
X148267166Y-81864871D01*
X148222407Y-81710811D01*
X148222406Y-81710808D01*
X148140738Y-81572714D01*
X148140731Y-81572705D01*
X148128988Y-81560962D01*
X148095503Y-81499639D01*
X148100487Y-81429947D01*
X148128985Y-81385604D01*
X148757471Y-80757119D01*
X148818794Y-80723634D01*
X148845152Y-80720800D01*
X152289157Y-80720800D01*
X152304777Y-80722524D01*
X152304804Y-80722239D01*
X152312560Y-80722971D01*
X152312567Y-80722973D01*
X152381714Y-80720800D01*
X152411250Y-80720800D01*
X152418128Y-80719930D01*
X152423941Y-80719472D01*
X152470527Y-80718009D01*
X152489769Y-80712417D01*
X152508812Y-80708474D01*
X152528692Y-80705964D01*
X152572022Y-80688807D01*
X152577546Y-80686917D01*
X152581296Y-80685827D01*
X152622290Y-80673918D01*
X152639529Y-80663722D01*
X152657003Y-80655162D01*
X152675627Y-80647788D01*
X152675627Y-80647787D01*
X152675632Y-80647786D01*
X152713349Y-80620382D01*
X152718205Y-80617192D01*
X152758320Y-80593470D01*
X152772489Y-80579299D01*
X152787279Y-80566668D01*
X152803487Y-80554894D01*
X152833199Y-80518976D01*
X152837112Y-80514676D01*
X153596287Y-79755502D01*
X153608542Y-79745686D01*
X153608359Y-79745464D01*
X153614366Y-79740492D01*
X153614377Y-79740486D01*
X153645275Y-79707582D01*
X153661727Y-79690064D01*
X153672171Y-79679618D01*
X153682620Y-79669171D01*
X153686879Y-79663678D01*
X153690652Y-79659261D01*
X153722562Y-79625282D01*
X153732215Y-79607720D01*
X153742889Y-79591470D01*
X153755173Y-79575636D01*
X153773680Y-79532867D01*
X153776249Y-79527624D01*
X153782266Y-79516680D01*
X153798697Y-79486792D01*
X153803677Y-79467391D01*
X153809978Y-79448988D01*
X153817938Y-79430596D01*
X153825230Y-79384549D01*
X153826411Y-79378852D01*
X153828325Y-79371398D01*
X153838000Y-79333719D01*
X153838000Y-79329044D01*
X153857685Y-79262005D01*
X153910489Y-79216250D01*
X153979647Y-79206306D01*
X154025115Y-79222309D01*
G37*
%TD.AperFunction*%
%TA.AperFunction,Conductor*%
G36*
X166256587Y-79645185D02*
G01*
X166277229Y-79661819D01*
X167278229Y-80662819D01*
X167311714Y-80724142D01*
X167306730Y-80793834D01*
X167264858Y-80849767D01*
X167199394Y-80874184D01*
X167190548Y-80874500D01*
X165060452Y-80874500D01*
X164993413Y-80854815D01*
X164972771Y-80838181D01*
X164166771Y-80032180D01*
X164133286Y-79970857D01*
X164138270Y-79901165D01*
X164180142Y-79845232D01*
X164245606Y-79820815D01*
X164254438Y-79820499D01*
X164449180Y-79820499D01*
X164449181Y-79820499D01*
X164452015Y-79820275D01*
X164485204Y-79817665D01*
X164639393Y-79772869D01*
X164777598Y-79691135D01*
X164778735Y-79689998D01*
X164806915Y-79661819D01*
X164868238Y-79628334D01*
X164894596Y-79625500D01*
X166189548Y-79625500D01*
X166256587Y-79645185D01*
G37*
%TD.AperFunction*%
%TA.AperFunction,Conductor*%
G36*
X180579719Y-69795185D02*
G01*
X180611948Y-69825191D01*
X180617454Y-69832546D01*
X180646095Y-69853987D01*
X180732664Y-69918793D01*
X180732671Y-69918797D01*
X180742337Y-69922402D01*
X180867517Y-69969091D01*
X180927127Y-69975500D01*
X181568600Y-69975499D01*
X181635639Y-69995183D01*
X181681394Y-70047987D01*
X181692600Y-70099499D01*
X181692600Y-71088455D01*
X181690875Y-71104072D01*
X181691161Y-71104099D01*
X181690426Y-71111865D01*
X181692600Y-71181014D01*
X181692600Y-71210543D01*
X181692601Y-71210560D01*
X181693468Y-71217431D01*
X181693926Y-71223250D01*
X181695390Y-71269824D01*
X181695391Y-71269827D01*
X181700980Y-71289067D01*
X181704924Y-71308111D01*
X181707436Y-71327992D01*
X181718849Y-71356818D01*
X181724590Y-71371319D01*
X181726482Y-71376847D01*
X181739481Y-71421588D01*
X181749680Y-71438834D01*
X181758236Y-71456300D01*
X181764145Y-71471222D01*
X181765614Y-71474932D01*
X181786650Y-71503886D01*
X181810129Y-71569693D01*
X181794303Y-71637746D01*
X181744196Y-71686441D01*
X181675718Y-71700315D01*
X181673086Y-71700060D01*
X181667873Y-71699500D01*
X181667870Y-71699500D01*
X181172129Y-71699500D01*
X181172123Y-71699501D01*
X181112517Y-71705908D01*
X181062616Y-71724520D01*
X180992925Y-71729503D01*
X180975953Y-71724519D01*
X180927383Y-71706403D01*
X180927372Y-71706401D01*
X180867844Y-71700000D01*
X180820000Y-71700000D01*
X180820000Y-71857893D01*
X180800315Y-71924932D01*
X180795267Y-71932204D01*
X180776204Y-71957668D01*
X180776202Y-71957671D01*
X180725910Y-72092513D01*
X180725909Y-72092517D01*
X180719500Y-72152127D01*
X180719500Y-72588515D01*
X180719501Y-72676000D01*
X180699817Y-72743039D01*
X180647013Y-72788794D01*
X180595501Y-72800000D01*
X178820000Y-72800000D01*
X178820000Y-72950500D01*
X178800315Y-73017539D01*
X178747511Y-73063294D01*
X178696000Y-73074500D01*
X177322774Y-73074500D01*
X177255735Y-73054815D01*
X177239805Y-73042653D01*
X177238869Y-73041810D01*
X177085734Y-72930551D01*
X177085729Y-72930548D01*
X176912807Y-72853557D01*
X176912802Y-72853555D01*
X176767001Y-72822565D01*
X176727646Y-72814200D01*
X176538354Y-72814200D01*
X176505897Y-72821098D01*
X176353197Y-72853555D01*
X176353192Y-72853557D01*
X176180270Y-72930548D01*
X176180265Y-72930551D01*
X176027129Y-73041811D01*
X175900466Y-73182485D01*
X175805821Y-73346415D01*
X175805818Y-73346422D01*
X175749360Y-73520183D01*
X175747326Y-73526444D01*
X175727540Y-73714700D01*
X175747326Y-73902956D01*
X175747327Y-73902959D01*
X175805818Y-74082977D01*
X175805821Y-74082984D01*
X175900467Y-74246916D01*
X176015345Y-74374501D01*
X176027129Y-74387588D01*
X176180265Y-74498848D01*
X176180270Y-74498851D01*
X176353192Y-74575842D01*
X176353197Y-74575844D01*
X176538354Y-74615200D01*
X176538355Y-74615200D01*
X176727644Y-74615200D01*
X176727646Y-74615200D01*
X176912803Y-74575844D01*
X177085730Y-74498851D01*
X177085738Y-74498844D01*
X177088829Y-74497061D01*
X177090853Y-74496569D01*
X177091666Y-74496208D01*
X177091732Y-74496356D01*
X177156728Y-74480585D01*
X177222756Y-74503434D01*
X177265949Y-74558353D01*
X177274155Y-74591483D01*
X177284326Y-74688256D01*
X177284327Y-74688259D01*
X177342818Y-74868277D01*
X177342821Y-74868284D01*
X177437467Y-75032216D01*
X177538772Y-75144726D01*
X177564129Y-75172888D01*
X177717265Y-75284148D01*
X177717270Y-75284151D01*
X177890192Y-75361142D01*
X177890197Y-75361144D01*
X178075354Y-75400500D01*
X178075355Y-75400500D01*
X178264644Y-75400500D01*
X178264646Y-75400500D01*
X178449803Y-75361144D01*
X178622730Y-75284151D01*
X178775871Y-75172888D01*
X178780347Y-75167917D01*
X178781600Y-75166526D01*
X178841087Y-75129879D01*
X178873748Y-75125500D01*
X179012513Y-75125500D01*
X179071942Y-75140669D01*
X179077669Y-75143796D01*
X179184972Y-75183818D01*
X179240906Y-75225689D01*
X179265323Y-75291154D01*
X179250471Y-75359427D01*
X179201066Y-75408832D01*
X179184972Y-75416182D01*
X179077671Y-75456202D01*
X179077668Y-75456204D01*
X179052204Y-75475267D01*
X178986739Y-75499684D01*
X178977893Y-75500000D01*
X178820000Y-75500000D01*
X178820000Y-75547844D01*
X178826401Y-75607372D01*
X178826403Y-75607383D01*
X178844519Y-75655953D01*
X178849503Y-75725644D01*
X178844520Y-75742616D01*
X178828985Y-75784269D01*
X178825909Y-75792517D01*
X178819500Y-75852127D01*
X178819500Y-75852134D01*
X178819500Y-75852135D01*
X178819500Y-76347870D01*
X178819501Y-76347876D01*
X178825908Y-76407482D01*
X178831599Y-76422740D01*
X178843787Y-76455418D01*
X178844253Y-76456666D01*
X178849237Y-76526358D01*
X178844253Y-76543331D01*
X178825910Y-76592511D01*
X178825909Y-76592515D01*
X178825909Y-76592517D01*
X178819500Y-76652127D01*
X178819500Y-76652134D01*
X178819500Y-76652135D01*
X178819500Y-77147870D01*
X178819501Y-77147876D01*
X178825908Y-77207482D01*
X178835365Y-77232836D01*
X178842119Y-77250946D01*
X178844253Y-77256666D01*
X178849237Y-77326358D01*
X178844253Y-77343331D01*
X178825909Y-77392514D01*
X178825908Y-77392516D01*
X178819501Y-77452116D01*
X178819500Y-77452135D01*
X178819500Y-77806700D01*
X178799815Y-77873739D01*
X178749418Y-77917407D01*
X178749422Y-77917413D01*
X178749392Y-77917430D01*
X178747011Y-77919494D01*
X178744746Y-77920502D01*
X178742704Y-77921385D01*
X178725465Y-77931580D01*
X178707998Y-77940137D01*
X178689369Y-77947512D01*
X178689367Y-77947513D01*
X178651664Y-77974906D01*
X178646782Y-77978112D01*
X178606680Y-78001828D01*
X178592508Y-78016000D01*
X178577723Y-78028628D01*
X178561512Y-78040407D01*
X178531809Y-78076310D01*
X178527877Y-78080631D01*
X177812310Y-78796197D01*
X177750987Y-78829682D01*
X177681295Y-78824698D01*
X177625362Y-78782826D01*
X177606698Y-78746834D01*
X177567281Y-78625522D01*
X177567280Y-78625521D01*
X177567279Y-78625516D01*
X177472633Y-78461584D01*
X177345971Y-78320912D01*
X177345970Y-78320911D01*
X177192830Y-78209648D01*
X177166975Y-78198137D01*
X177129730Y-78172539D01*
X175996503Y-77039312D01*
X175986680Y-77027050D01*
X175986459Y-77027234D01*
X175981486Y-77021223D01*
X175974707Y-77014857D01*
X175931064Y-76973873D01*
X175920619Y-76963428D01*
X175910175Y-76952983D01*
X175904686Y-76948725D01*
X175900261Y-76944947D01*
X175866282Y-76913038D01*
X175866280Y-76913036D01*
X175866277Y-76913035D01*
X175848729Y-76903388D01*
X175832463Y-76892704D01*
X175816633Y-76880425D01*
X175773868Y-76861918D01*
X175768622Y-76859348D01*
X175727793Y-76836903D01*
X175727792Y-76836902D01*
X175708393Y-76831922D01*
X175689981Y-76825618D01*
X175671598Y-76817662D01*
X175671592Y-76817660D01*
X175625574Y-76810372D01*
X175619852Y-76809187D01*
X175574721Y-76797600D01*
X175574719Y-76797600D01*
X175554684Y-76797600D01*
X175535286Y-76796073D01*
X175521395Y-76793873D01*
X175515505Y-76792940D01*
X175515504Y-76792940D01*
X175469116Y-76797325D01*
X175463278Y-76797600D01*
X173420847Y-76797600D01*
X173397615Y-76795404D01*
X173389588Y-76793873D01*
X173389586Y-76793873D01*
X173380633Y-76794436D01*
X173332275Y-76797478D01*
X173328403Y-76797600D01*
X173310643Y-76797600D01*
X173293032Y-76799825D01*
X173289161Y-76800190D01*
X173272398Y-76801245D01*
X173257287Y-76802196D01*
X173189143Y-76786760D01*
X173140163Y-76736934D01*
X173125500Y-76678441D01*
X173125500Y-75432931D01*
X173145185Y-75365892D01*
X173197989Y-75320137D01*
X173239771Y-75309313D01*
X173260993Y-75307643D01*
X173260995Y-75307642D01*
X173260997Y-75307642D01*
X173317748Y-75291154D01*
X173416395Y-75262494D01*
X173437369Y-75250089D01*
X173505088Y-75232906D01*
X173563613Y-75250090D01*
X173583803Y-75262031D01*
X173730000Y-75304504D01*
X173730000Y-74998352D01*
X173747267Y-74935233D01*
X173752494Y-74926395D01*
X173752505Y-74926359D01*
X173797642Y-74770997D01*
X173797643Y-74770991D01*
X173797917Y-74767517D01*
X173799295Y-74750000D01*
X174230000Y-74750000D01*
X174230000Y-75304503D01*
X174376195Y-75262031D01*
X174515374Y-75179721D01*
X174515383Y-75179714D01*
X174629714Y-75065383D01*
X174629721Y-75065374D01*
X174712031Y-74926195D01*
X174712033Y-74926190D01*
X174757144Y-74770918D01*
X174757145Y-74770912D01*
X174758790Y-74750000D01*
X174230000Y-74750000D01*
X173799295Y-74750000D01*
X173800500Y-74734690D01*
X173800500Y-74265310D01*
X173799295Y-74250000D01*
X174230000Y-74250000D01*
X174758790Y-74250000D01*
X174757145Y-74229089D01*
X174712031Y-74073804D01*
X174629721Y-73934625D01*
X174629714Y-73934616D01*
X174515383Y-73820285D01*
X174515374Y-73820278D01*
X174376193Y-73737967D01*
X174376190Y-73737965D01*
X174230001Y-73695493D01*
X174230000Y-73695494D01*
X174230000Y-74250000D01*
X173799295Y-74250000D01*
X173797643Y-74229007D01*
X173796827Y-74226199D01*
X173752495Y-74073608D01*
X173752492Y-74073600D01*
X173747266Y-74064763D01*
X173730000Y-74001645D01*
X173730000Y-73695494D01*
X173695047Y-73669251D01*
X173653256Y-73613257D01*
X173645500Y-73570090D01*
X173645500Y-72938552D01*
X173665185Y-72871513D01*
X173681819Y-72850871D01*
X174232690Y-72300000D01*
X178820000Y-72300000D01*
X179420000Y-72300000D01*
X179420000Y-71700000D01*
X179920000Y-71700000D01*
X179920000Y-72300000D01*
X180420000Y-72300000D01*
X180420000Y-71700000D01*
X180372155Y-71700000D01*
X180312627Y-71706401D01*
X180312619Y-71706403D01*
X180263333Y-71724786D01*
X180193641Y-71729770D01*
X180176667Y-71724786D01*
X180127380Y-71706403D01*
X180127372Y-71706401D01*
X180067844Y-71700000D01*
X179920000Y-71700000D01*
X179420000Y-71700000D01*
X179272155Y-71700000D01*
X179212627Y-71706401D01*
X179212620Y-71706403D01*
X179077913Y-71756645D01*
X179077906Y-71756649D01*
X178962812Y-71842809D01*
X178962809Y-71842812D01*
X178876649Y-71957906D01*
X178876645Y-71957913D01*
X178826403Y-72092620D01*
X178826401Y-72092627D01*
X178820000Y-72152155D01*
X178820000Y-72300000D01*
X174232690Y-72300000D01*
X174553939Y-71978751D01*
X175432299Y-71100390D01*
X175450282Y-71085514D01*
X175457038Y-71080924D01*
X175495014Y-71037847D01*
X175497667Y-71035023D01*
X175510220Y-71022471D01*
X175510220Y-71022469D01*
X175515582Y-71017109D01*
X175515597Y-71017091D01*
X176549064Y-69983625D01*
X176610385Y-69950142D01*
X176680074Y-69955125D01*
X176680077Y-69955126D01*
X176680078Y-69955127D01*
X176717511Y-69969089D01*
X176717512Y-69969089D01*
X176717517Y-69969091D01*
X176777127Y-69975500D01*
X177922872Y-69975499D01*
X177982483Y-69969091D01*
X178117331Y-69918796D01*
X178232546Y-69832546D01*
X178238052Y-69825191D01*
X178293985Y-69783319D01*
X178337320Y-69775500D01*
X180512680Y-69775500D01*
X180579719Y-69795185D01*
G37*
%TD.AperFunction*%
%TA.AperFunction,Conductor*%
G36*
X167132540Y-74565185D02*
G01*
X167178295Y-74617989D01*
X167189501Y-74669500D01*
X167189501Y-74669180D01*
X167192335Y-74705204D01*
X167237129Y-74859388D01*
X167237131Y-74859393D01*
X167317232Y-74994837D01*
X167334500Y-75057958D01*
X167334500Y-76652046D01*
X167314815Y-76719085D01*
X167298181Y-76739727D01*
X166116208Y-77921699D01*
X166103951Y-77931520D01*
X166104134Y-77931741D01*
X166098123Y-77936713D01*
X166050772Y-77987136D01*
X166029889Y-78008019D01*
X166029877Y-78008032D01*
X166025621Y-78013517D01*
X166021837Y-78017947D01*
X165989937Y-78051918D01*
X165989936Y-78051920D01*
X165980284Y-78069476D01*
X165969610Y-78085726D01*
X165957329Y-78101561D01*
X165957324Y-78101568D01*
X165938815Y-78144338D01*
X165936245Y-78149584D01*
X165913803Y-78190406D01*
X165908822Y-78209807D01*
X165902521Y-78228210D01*
X165894562Y-78246602D01*
X165894560Y-78246608D01*
X165890872Y-78269898D01*
X165860943Y-78333033D01*
X165801631Y-78369964D01*
X165768399Y-78374500D01*
X164894596Y-78374500D01*
X164827557Y-78354815D01*
X164806915Y-78338181D01*
X164777603Y-78308869D01*
X164777595Y-78308863D01*
X164639393Y-78227131D01*
X164639388Y-78227129D01*
X164485208Y-78182335D01*
X164485202Y-78182334D01*
X164449183Y-78179500D01*
X164449181Y-78179500D01*
X164183607Y-78179500D01*
X164050819Y-78179501D01*
X164014794Y-78182335D01*
X163860611Y-78227129D01*
X163860604Y-78227132D01*
X163803119Y-78261128D01*
X163735395Y-78278309D01*
X163676881Y-78261128D01*
X163619395Y-78227132D01*
X163619388Y-78227129D01*
X163465208Y-78182335D01*
X163465202Y-78182334D01*
X163429183Y-78179500D01*
X163429181Y-78179500D01*
X163345452Y-78179500D01*
X163278413Y-78159815D01*
X163257771Y-78143181D01*
X160618895Y-75504304D01*
X160585410Y-75442981D01*
X160590394Y-75373289D01*
X160632266Y-75317356D01*
X160633543Y-75316412D01*
X160726071Y-75249188D01*
X160730974Y-75243743D01*
X160731800Y-75242826D01*
X160791287Y-75206179D01*
X160823948Y-75201800D01*
X162490957Y-75201800D01*
X162506577Y-75203524D01*
X162506604Y-75203239D01*
X162514360Y-75203971D01*
X162514367Y-75203973D01*
X162583514Y-75201800D01*
X162613050Y-75201800D01*
X162619928Y-75200930D01*
X162625741Y-75200472D01*
X162672327Y-75199009D01*
X162691569Y-75193417D01*
X162710612Y-75189474D01*
X162730492Y-75186964D01*
X162773822Y-75169807D01*
X162779346Y-75167917D01*
X162784134Y-75166526D01*
X162824090Y-75154918D01*
X162841329Y-75144722D01*
X162858803Y-75136162D01*
X162877427Y-75128788D01*
X162877427Y-75128787D01*
X162877432Y-75128786D01*
X162915149Y-75101382D01*
X162920005Y-75098192D01*
X162960120Y-75074470D01*
X162974289Y-75060299D01*
X162989079Y-75047668D01*
X163005287Y-75035894D01*
X163034999Y-74999976D01*
X163038912Y-74995676D01*
X163257773Y-74776815D01*
X163319095Y-74743333D01*
X163345453Y-74740499D01*
X163429180Y-74740499D01*
X163465204Y-74737665D01*
X163619393Y-74692869D01*
X163676882Y-74658869D01*
X163744602Y-74641688D01*
X163803117Y-74658869D01*
X163860607Y-74692869D01*
X163860610Y-74692869D01*
X163860612Y-74692871D01*
X164014791Y-74737664D01*
X164014794Y-74737664D01*
X164014796Y-74737665D01*
X164026803Y-74738610D01*
X164050817Y-74740500D01*
X164050818Y-74740499D01*
X164050819Y-74740500D01*
X164316393Y-74740499D01*
X164449181Y-74740499D01*
X164452015Y-74740275D01*
X164485204Y-74737665D01*
X164639393Y-74692869D01*
X164777598Y-74611135D01*
X164791606Y-74597127D01*
X164806915Y-74581819D01*
X164868238Y-74548334D01*
X164894596Y-74545500D01*
X167065501Y-74545500D01*
X167132540Y-74565185D01*
G37*
%TD.AperFunction*%
%TA.AperFunction,Conductor*%
G36*
X163312539Y-61967085D02*
G01*
X163358294Y-62019889D01*
X163369500Y-62071400D01*
X163369500Y-63397870D01*
X163369501Y-63397876D01*
X163375908Y-63457483D01*
X163426202Y-63592328D01*
X163426206Y-63592335D01*
X163512452Y-63707544D01*
X163512455Y-63707547D01*
X163627664Y-63793793D01*
X163627671Y-63793797D01*
X163762517Y-63844091D01*
X163762516Y-63844091D01*
X163769444Y-63844835D01*
X163822127Y-63850500D01*
X165617872Y-63850499D01*
X165677483Y-63844091D01*
X165812331Y-63793796D01*
X165927546Y-63707546D01*
X166013796Y-63592331D01*
X166062810Y-63460916D01*
X166104681Y-63404984D01*
X166170145Y-63380566D01*
X166238418Y-63395417D01*
X166266673Y-63416569D01*
X166388599Y-63538495D01*
X166484359Y-63605547D01*
X166582165Y-63674032D01*
X166582167Y-63674033D01*
X166582170Y-63674035D01*
X166654037Y-63707547D01*
X166670916Y-63715418D01*
X166723355Y-63761591D01*
X166742507Y-63828784D01*
X166722291Y-63895665D01*
X166669126Y-63941000D01*
X166618511Y-63951800D01*
X166610649Y-63951800D01*
X166603766Y-63952669D01*
X166597949Y-63953126D01*
X166551373Y-63954590D01*
X166532129Y-63960181D01*
X166513079Y-63964125D01*
X166493211Y-63966634D01*
X166449884Y-63983788D01*
X166444358Y-63985679D01*
X166399614Y-63998679D01*
X166399610Y-63998681D01*
X166382366Y-64008879D01*
X166364905Y-64017433D01*
X166346274Y-64024810D01*
X166346262Y-64024817D01*
X166308570Y-64052202D01*
X166303687Y-64055409D01*
X166263580Y-64079129D01*
X166249414Y-64093295D01*
X166234624Y-64105927D01*
X166218414Y-64117704D01*
X166218411Y-64117707D01*
X166188710Y-64153609D01*
X166184777Y-64157931D01*
X161357918Y-68984789D01*
X161296595Y-69018274D01*
X161226903Y-69013290D01*
X161170970Y-68971418D01*
X161163509Y-68960234D01*
X161141135Y-68922402D01*
X161141133Y-68922400D01*
X161141130Y-68922396D01*
X161027603Y-68808869D01*
X161027595Y-68808863D01*
X160889393Y-68727131D01*
X160889388Y-68727129D01*
X160735208Y-68682335D01*
X160735202Y-68682334D01*
X160699183Y-68679500D01*
X160699181Y-68679500D01*
X160615452Y-68679500D01*
X160548413Y-68659815D01*
X160527771Y-68643181D01*
X160442972Y-68558382D01*
X160331803Y-68447212D01*
X160321980Y-68434950D01*
X160321759Y-68435134D01*
X160316786Y-68429123D01*
X160266364Y-68381773D01*
X160255135Y-68370544D01*
X160245475Y-68360883D01*
X160239986Y-68356625D01*
X160235561Y-68352847D01*
X160201582Y-68320938D01*
X160201580Y-68320936D01*
X160201577Y-68320935D01*
X160184029Y-68311288D01*
X160167763Y-68300604D01*
X160166747Y-68299816D01*
X160151936Y-68288327D01*
X160151935Y-68288326D01*
X160151933Y-68288325D01*
X160109168Y-68269818D01*
X160103922Y-68267248D01*
X160063093Y-68244803D01*
X160063092Y-68244802D01*
X160043693Y-68239822D01*
X160025281Y-68233518D01*
X160006898Y-68225562D01*
X160006892Y-68225560D01*
X159960874Y-68218272D01*
X159955152Y-68217087D01*
X159910021Y-68205500D01*
X159910019Y-68205500D01*
X159889984Y-68205500D01*
X159870586Y-68203973D01*
X159863162Y-68202797D01*
X159850805Y-68200840D01*
X159850804Y-68200840D01*
X159804416Y-68205225D01*
X159798578Y-68205500D01*
X157326743Y-68205500D01*
X157311122Y-68203775D01*
X157311096Y-68204061D01*
X157303334Y-68203327D01*
X157303333Y-68203327D01*
X157234186Y-68205500D01*
X157204649Y-68205500D01*
X157197766Y-68206369D01*
X157191949Y-68206826D01*
X157145373Y-68208290D01*
X157126129Y-68213881D01*
X157107079Y-68217825D01*
X157087211Y-68220334D01*
X157043884Y-68237488D01*
X157038358Y-68239379D01*
X156993614Y-68252379D01*
X156993610Y-68252381D01*
X156976366Y-68262579D01*
X156958905Y-68271133D01*
X156940274Y-68278510D01*
X156940262Y-68278517D01*
X156902570Y-68305902D01*
X156897687Y-68309109D01*
X156857580Y-68332829D01*
X156843414Y-68346995D01*
X156828624Y-68359627D01*
X156812414Y-68371404D01*
X156812411Y-68371407D01*
X156782714Y-68407304D01*
X156778782Y-68411625D01*
X156702229Y-68488180D01*
X156640907Y-68521666D01*
X156614547Y-68524500D01*
X156308318Y-68524500D01*
X156209816Y-68534563D01*
X156209815Y-68534564D01*
X156152655Y-68553505D01*
X156050215Y-68587450D01*
X156050204Y-68587455D01*
X155907112Y-68675716D01*
X155907107Y-68675719D01*
X155874827Y-68708000D01*
X155813503Y-68741485D01*
X155743812Y-68736499D01*
X155699467Y-68708000D01*
X155667580Y-68676114D01*
X155524577Y-68587908D01*
X155524572Y-68587906D01*
X155365083Y-68535057D01*
X155266650Y-68525000D01*
X155250000Y-68525000D01*
X155250000Y-70474999D01*
X155266636Y-70474999D01*
X155266652Y-70474998D01*
X155365083Y-70464943D01*
X155524572Y-70412093D01*
X155524577Y-70412091D01*
X155667580Y-70323885D01*
X155699466Y-70292000D01*
X155760789Y-70258515D01*
X155830481Y-70263499D01*
X155874828Y-70292000D01*
X155907108Y-70324280D01*
X155907112Y-70324283D01*
X156050204Y-70412544D01*
X156050207Y-70412545D01*
X156050213Y-70412549D01*
X156209815Y-70465436D01*
X156308326Y-70475500D01*
X156308331Y-70475500D01*
X156841669Y-70475500D01*
X156841674Y-70475500D01*
X156940185Y-70465436D01*
X157099787Y-70412549D01*
X157242891Y-70324281D01*
X157361781Y-70205391D01*
X157450049Y-70062287D01*
X157502936Y-69902685D01*
X157513000Y-69804174D01*
X157513000Y-69580499D01*
X157532685Y-69513461D01*
X157585489Y-69467706D01*
X157637000Y-69456500D01*
X158585500Y-69456500D01*
X158652539Y-69476185D01*
X158698294Y-69528989D01*
X158709500Y-69580499D01*
X158709501Y-69749180D01*
X158709501Y-69749181D01*
X158712335Y-69785205D01*
X158757129Y-69939388D01*
X158757131Y-69939393D01*
X158838863Y-70077595D01*
X158838869Y-70077603D01*
X158952396Y-70191130D01*
X158952400Y-70191133D01*
X158952402Y-70191135D01*
X159090607Y-70272869D01*
X159131268Y-70284682D01*
X159244791Y-70317664D01*
X159244794Y-70317664D01*
X159244796Y-70317665D01*
X159253801Y-70318373D01*
X159280816Y-70320500D01*
X159280818Y-70320499D01*
X159280819Y-70320500D01*
X159364547Y-70320499D01*
X159431585Y-70340183D01*
X159452228Y-70356818D01*
X159654597Y-70559188D01*
X159664422Y-70571451D01*
X159664643Y-70571269D01*
X159669614Y-70577278D01*
X159690443Y-70596837D01*
X159720035Y-70624626D01*
X159740929Y-70645520D01*
X159746411Y-70649773D01*
X159750843Y-70653557D01*
X159784818Y-70685462D01*
X159802376Y-70695114D01*
X159818633Y-70705793D01*
X159834464Y-70718073D01*
X159854137Y-70726586D01*
X159877233Y-70736582D01*
X159882477Y-70739150D01*
X159923308Y-70761597D01*
X159935923Y-70764835D01*
X159942705Y-70766577D01*
X159961119Y-70772881D01*
X159979504Y-70780838D01*
X160025557Y-70788132D01*
X160031226Y-70789306D01*
X160076381Y-70800900D01*
X160096416Y-70800900D01*
X160115813Y-70802426D01*
X160135596Y-70805560D01*
X160181984Y-70801175D01*
X160187822Y-70800900D01*
X160969157Y-70800900D01*
X160984777Y-70802624D01*
X160984804Y-70802339D01*
X160992560Y-70803071D01*
X160992567Y-70803073D01*
X161061714Y-70800900D01*
X161091250Y-70800900D01*
X161098128Y-70800030D01*
X161103941Y-70799572D01*
X161150527Y-70798109D01*
X161169769Y-70792517D01*
X161188812Y-70788574D01*
X161208692Y-70786064D01*
X161252022Y-70768907D01*
X161257546Y-70767017D01*
X161261296Y-70765927D01*
X161302290Y-70754018D01*
X161319529Y-70743822D01*
X161337003Y-70735262D01*
X161355627Y-70727888D01*
X161355627Y-70727887D01*
X161355632Y-70727886D01*
X161393349Y-70700482D01*
X161398205Y-70697292D01*
X161438320Y-70673570D01*
X161452489Y-70659399D01*
X161467279Y-70646768D01*
X161483487Y-70634994D01*
X161513199Y-70599076D01*
X161517112Y-70594776D01*
X162519875Y-69592013D01*
X162581198Y-69558529D01*
X162650890Y-69563513D01*
X162706823Y-69605385D01*
X162731240Y-69670849D01*
X162726633Y-69714289D01*
X162722356Y-69729008D01*
X162721218Y-69735243D01*
X162719180Y-69734870D01*
X162697714Y-69791184D01*
X162686665Y-69803843D01*
X158264308Y-74226199D01*
X158252051Y-74236020D01*
X158252234Y-74236241D01*
X158246223Y-74241213D01*
X158198872Y-74291636D01*
X158177989Y-74312519D01*
X158177977Y-74312532D01*
X158173721Y-74318017D01*
X158169937Y-74322447D01*
X158138037Y-74356418D01*
X158138036Y-74356420D01*
X158128384Y-74373976D01*
X158117710Y-74390226D01*
X158105429Y-74406061D01*
X158105424Y-74406068D01*
X158086915Y-74448838D01*
X158084345Y-74454084D01*
X158061903Y-74494906D01*
X158056922Y-74514307D01*
X158050621Y-74532710D01*
X158042662Y-74551102D01*
X158042661Y-74551105D01*
X158035371Y-74597127D01*
X158034187Y-74602846D01*
X158022601Y-74647972D01*
X158022600Y-74647982D01*
X158022600Y-74668016D01*
X158021073Y-74687413D01*
X158017940Y-74707196D01*
X158020539Y-74734690D01*
X158022325Y-74753583D01*
X158022600Y-74759421D01*
X158022600Y-75429152D01*
X158020405Y-75452379D01*
X158018873Y-75460412D01*
X158022478Y-75517724D01*
X158022600Y-75521595D01*
X158022600Y-75539356D01*
X158024825Y-75556968D01*
X158025190Y-75560837D01*
X158026179Y-75576546D01*
X158028796Y-75618138D01*
X158031322Y-75625914D01*
X158036409Y-75648675D01*
X158037591Y-75658027D01*
X158026468Y-75727006D01*
X158002251Y-75761257D01*
X157485516Y-76277992D01*
X157424193Y-76311477D01*
X157354501Y-76306493D01*
X157298568Y-76264621D01*
X157274151Y-76199157D01*
X157274546Y-76177049D01*
X157274999Y-76172829D01*
X157275000Y-76172827D01*
X157275000Y-76125000D01*
X157273627Y-76125000D01*
X157206588Y-76105315D01*
X157160833Y-76052511D01*
X157150889Y-75983353D01*
X157174356Y-75926695D01*
X157175853Y-75924695D01*
X157231784Y-75882821D01*
X157274972Y-75875027D01*
X157275000Y-75875000D01*
X157275000Y-75827172D01*
X157274999Y-75827160D01*
X157268380Y-75765604D01*
X157268380Y-75739090D01*
X157269090Y-75732485D01*
X157269091Y-75732483D01*
X157275500Y-75672873D01*
X157275499Y-75327128D01*
X157269091Y-75267517D01*
X157269089Y-75267513D01*
X157268632Y-75263255D01*
X157268632Y-75236745D01*
X157269089Y-75232486D01*
X157269091Y-75232483D01*
X157275500Y-75172873D01*
X157275499Y-74827128D01*
X157269465Y-74770993D01*
X157269091Y-74767516D01*
X157218797Y-74632671D01*
X157218793Y-74632664D01*
X157132547Y-74517455D01*
X157132544Y-74517452D01*
X157017335Y-74431206D01*
X157017328Y-74431202D01*
X156882482Y-74380908D01*
X156882483Y-74380908D01*
X156822883Y-74374501D01*
X156822881Y-74374500D01*
X156822873Y-74374500D01*
X156822865Y-74374500D01*
X155968947Y-74374500D01*
X155945715Y-74372304D01*
X155937688Y-74370773D01*
X155937686Y-74370773D01*
X155928733Y-74371336D01*
X155880375Y-74374378D01*
X155876503Y-74374500D01*
X155858743Y-74374500D01*
X155841132Y-74376725D01*
X155837264Y-74377090D01*
X155805475Y-74379090D01*
X155779959Y-74380696D01*
X155772185Y-74383222D01*
X155749420Y-74388310D01*
X155741318Y-74389333D01*
X155741305Y-74389337D01*
X155687910Y-74410477D01*
X155684254Y-74411792D01*
X155672557Y-74415594D01*
X155629656Y-74429534D01*
X155622752Y-74433915D01*
X155601980Y-74444499D01*
X155594373Y-74447511D01*
X155594362Y-74447517D01*
X155547914Y-74481263D01*
X155544695Y-74483451D01*
X155496223Y-74514213D01*
X155496220Y-74514216D01*
X155490629Y-74520170D01*
X155473129Y-74535599D01*
X155466513Y-74540405D01*
X155466512Y-74540406D01*
X155429912Y-74584646D01*
X155427338Y-74587565D01*
X155388037Y-74629417D01*
X155388035Y-74629420D01*
X155384094Y-74636589D01*
X155370989Y-74655873D01*
X155365777Y-74662173D01*
X155365774Y-74662178D01*
X155341331Y-74714121D01*
X155339564Y-74717589D01*
X155311904Y-74767903D01*
X155311903Y-74767908D01*
X155309869Y-74775828D01*
X155301970Y-74797768D01*
X155298486Y-74805172D01*
X155298484Y-74805178D01*
X155294297Y-74827130D01*
X155288143Y-74859393D01*
X155287729Y-74861561D01*
X155286879Y-74865361D01*
X155272600Y-74920976D01*
X155272600Y-74929152D01*
X155270405Y-74952379D01*
X155268873Y-74960412D01*
X155272478Y-75017724D01*
X155272600Y-75021595D01*
X155272600Y-76791446D01*
X155252915Y-76858485D01*
X155236281Y-76879127D01*
X154472226Y-77643181D01*
X154410903Y-77676666D01*
X154384546Y-77679500D01*
X154300819Y-77679501D01*
X154264794Y-77682335D01*
X154110611Y-77727129D01*
X154110605Y-77727131D01*
X154025121Y-77777687D01*
X153957397Y-77794870D01*
X153891134Y-77772710D01*
X153847371Y-77718244D01*
X153838000Y-77670955D01*
X153838000Y-74289742D01*
X153839724Y-74274122D01*
X153839439Y-74274095D01*
X153840173Y-74266333D01*
X153838000Y-74197172D01*
X153838000Y-74167656D01*
X153838000Y-74167650D01*
X153837131Y-74160779D01*
X153836673Y-74154952D01*
X153836437Y-74147431D01*
X153835210Y-74108373D01*
X153829619Y-74089130D01*
X153825673Y-74070078D01*
X153823164Y-74050208D01*
X153806004Y-74006867D01*
X153804124Y-74001379D01*
X153791118Y-73956610D01*
X153786791Y-73949294D01*
X153780923Y-73939371D01*
X153772361Y-73921894D01*
X153764987Y-73903270D01*
X153764759Y-73902956D01*
X153737579Y-73865545D01*
X153734388Y-73860686D01*
X153734102Y-73860203D01*
X153710670Y-73820580D01*
X153710668Y-73820578D01*
X153710665Y-73820574D01*
X153696506Y-73806415D01*
X153683868Y-73791619D01*
X153672094Y-73775413D01*
X153671390Y-73774831D01*
X153636188Y-73745709D01*
X153631876Y-73741786D01*
X153198645Y-73308554D01*
X153165160Y-73247231D01*
X153162708Y-73230600D01*
X153162571Y-73228865D01*
X153160098Y-73197431D01*
X153155755Y-73182484D01*
X153114245Y-73039606D01*
X153114244Y-73039602D01*
X153113371Y-73038126D01*
X153113038Y-73036816D01*
X153111146Y-73032443D01*
X153111851Y-73032137D01*
X153096185Y-72970403D01*
X153111639Y-72917770D01*
X153111146Y-72917557D01*
X153112876Y-72913558D01*
X153113371Y-72911874D01*
X153114243Y-72910399D01*
X153114244Y-72910398D01*
X153160098Y-72752569D01*
X153163000Y-72715694D01*
X153163000Y-72284306D01*
X153162946Y-72283625D01*
X153160098Y-72247432D01*
X153160097Y-72247426D01*
X153120304Y-72110460D01*
X153114244Y-72089602D01*
X153030581Y-71948135D01*
X153030579Y-71948133D01*
X153030576Y-71948129D01*
X152914370Y-71831923D01*
X152914362Y-71831917D01*
X152814699Y-71772977D01*
X152772898Y-71748256D01*
X152772897Y-71748255D01*
X152772896Y-71748255D01*
X152772893Y-71748254D01*
X152615073Y-71702402D01*
X152615067Y-71702401D01*
X152578196Y-71699500D01*
X152578194Y-71699500D01*
X151421806Y-71699500D01*
X151421804Y-71699500D01*
X151384932Y-71702401D01*
X151384926Y-71702402D01*
X151227106Y-71748254D01*
X151227103Y-71748255D01*
X151085637Y-71831917D01*
X151085629Y-71831923D01*
X150969423Y-71948129D01*
X150969414Y-71948140D01*
X150969229Y-71948455D01*
X150969019Y-71948650D01*
X150964639Y-71954298D01*
X150963727Y-71953591D01*
X150918157Y-71996136D01*
X150849415Y-72008637D01*
X150784827Y-71981988D01*
X150760643Y-71954078D01*
X150760361Y-71954298D01*
X150756323Y-71949092D01*
X150755771Y-71948455D01*
X150755585Y-71948140D01*
X150755576Y-71948129D01*
X150639370Y-71831923D01*
X150639362Y-71831917D01*
X150539699Y-71772977D01*
X150497898Y-71748256D01*
X150497897Y-71748255D01*
X150497896Y-71748255D01*
X150497893Y-71748254D01*
X150340073Y-71702402D01*
X150340067Y-71702401D01*
X150303196Y-71699500D01*
X150303194Y-71699500D01*
X150285300Y-71699500D01*
X150218261Y-71679815D01*
X150172506Y-71627011D01*
X150161300Y-71575500D01*
X150161300Y-69750000D01*
X154062501Y-69750000D01*
X154062501Y-69804152D01*
X154072556Y-69902583D01*
X154125406Y-70062072D01*
X154125408Y-70062077D01*
X154213614Y-70205080D01*
X154332419Y-70323885D01*
X154475422Y-70412091D01*
X154475427Y-70412093D01*
X154634916Y-70464942D01*
X154733356Y-70474999D01*
X154750000Y-70474998D01*
X154750000Y-69750000D01*
X154062501Y-69750000D01*
X150161300Y-69750000D01*
X150161300Y-69250000D01*
X154062500Y-69250000D01*
X154750000Y-69250000D01*
X154750000Y-68524999D01*
X154733356Y-68525000D01*
X154634915Y-68535057D01*
X154475427Y-68587906D01*
X154475422Y-68587908D01*
X154332419Y-68676114D01*
X154213614Y-68794919D01*
X154125408Y-68937922D01*
X154125406Y-68937927D01*
X154072557Y-69097416D01*
X154062500Y-69195849D01*
X154062500Y-69250000D01*
X150161300Y-69250000D01*
X150161300Y-68322744D01*
X150163497Y-68299506D01*
X150165027Y-68291488D01*
X150161421Y-68234175D01*
X150161300Y-68230303D01*
X150161300Y-67900952D01*
X150180985Y-67833913D01*
X150197619Y-67813271D01*
X150390898Y-67619992D01*
X150592018Y-67418871D01*
X150653339Y-67385388D01*
X150723030Y-67390372D01*
X150778964Y-67432243D01*
X150795878Y-67463220D01*
X150806643Y-67492081D01*
X150806649Y-67492093D01*
X150892809Y-67607187D01*
X150892812Y-67607190D01*
X151007906Y-67693350D01*
X151007913Y-67693354D01*
X151142620Y-67743596D01*
X151142627Y-67743598D01*
X151202155Y-67749999D01*
X151202172Y-67750000D01*
X151750000Y-67750000D01*
X151750000Y-67050000D01*
X152250000Y-67050000D01*
X152250000Y-67750000D01*
X152797828Y-67750000D01*
X152797844Y-67749999D01*
X152857372Y-67743598D01*
X152857379Y-67743596D01*
X152992086Y-67693354D01*
X152992093Y-67693350D01*
X153107187Y-67607190D01*
X153107190Y-67607187D01*
X153193350Y-67492093D01*
X153193354Y-67492086D01*
X153243596Y-67357379D01*
X153243598Y-67357372D01*
X153249999Y-67297844D01*
X153250000Y-67297827D01*
X153250000Y-67050000D01*
X152250000Y-67050000D01*
X151750000Y-67050000D01*
X151750000Y-66674000D01*
X151769685Y-66606961D01*
X151822489Y-66561206D01*
X151874000Y-66550000D01*
X153250000Y-66550000D01*
X153250000Y-66302172D01*
X153249999Y-66302155D01*
X153243598Y-66242627D01*
X153243596Y-66242620D01*
X153193354Y-66107913D01*
X153193350Y-66107906D01*
X153107190Y-65992812D01*
X153107187Y-65992809D01*
X152992093Y-65906649D01*
X152992086Y-65906645D01*
X152857379Y-65856403D01*
X152857372Y-65856401D01*
X152797844Y-65850000D01*
X152460253Y-65850000D01*
X152393214Y-65830315D01*
X152347459Y-65777511D01*
X152337515Y-65708353D01*
X152366540Y-65644797D01*
X152372572Y-65638319D01*
X152645672Y-65365219D01*
X152706995Y-65331734D01*
X152733353Y-65328900D01*
X153253857Y-65328900D01*
X153269477Y-65330624D01*
X153269504Y-65330339D01*
X153277260Y-65331071D01*
X153277267Y-65331073D01*
X153346414Y-65328900D01*
X153375950Y-65328900D01*
X153382828Y-65328030D01*
X153388641Y-65327572D01*
X153435227Y-65326109D01*
X153454469Y-65320517D01*
X153473512Y-65316574D01*
X153493392Y-65314064D01*
X153536722Y-65296907D01*
X153542246Y-65295017D01*
X153545996Y-65293927D01*
X153586990Y-65282018D01*
X153604229Y-65271822D01*
X153621703Y-65263262D01*
X153640327Y-65255888D01*
X153640327Y-65255887D01*
X153640332Y-65255886D01*
X153678049Y-65228482D01*
X153682905Y-65225292D01*
X153723020Y-65201570D01*
X153737189Y-65187399D01*
X153751979Y-65174768D01*
X153768187Y-65162994D01*
X153797899Y-65127076D01*
X153801812Y-65122776D01*
X155077772Y-63846819D01*
X155139095Y-63813334D01*
X155165453Y-63810500D01*
X155244692Y-63810500D01*
X155262841Y-63809071D01*
X155280993Y-63807643D01*
X155280995Y-63807642D01*
X155280997Y-63807642D01*
X155328664Y-63793793D01*
X155436395Y-63762494D01*
X155457369Y-63750089D01*
X155525088Y-63732906D01*
X155583613Y-63750090D01*
X155603803Y-63762031D01*
X155750000Y-63804504D01*
X155750000Y-63498352D01*
X155767267Y-63435233D01*
X155772494Y-63426395D01*
X155780782Y-63397870D01*
X155817642Y-63270997D01*
X155817643Y-63270991D01*
X155817650Y-63270910D01*
X155820500Y-63234690D01*
X155820500Y-63090280D01*
X155840185Y-63023241D01*
X155892989Y-62977486D01*
X155962147Y-62967542D01*
X155975321Y-62970172D01*
X155980881Y-62971600D01*
X156000916Y-62971600D01*
X156020314Y-62973126D01*
X156040094Y-62976259D01*
X156040095Y-62976260D01*
X156040095Y-62976259D01*
X156040096Y-62976260D01*
X156086484Y-62971875D01*
X156092322Y-62971600D01*
X156126000Y-62971600D01*
X156193039Y-62991285D01*
X156238794Y-63044089D01*
X156250000Y-63095600D01*
X156250000Y-63804503D01*
X156396195Y-63762031D01*
X156535374Y-63679721D01*
X156535383Y-63679714D01*
X156649714Y-63565383D01*
X156649721Y-63565374D01*
X156732030Y-63426196D01*
X156777145Y-63270910D01*
X156777145Y-63270907D01*
X156779999Y-63234639D01*
X156779999Y-63095601D01*
X156799683Y-63028561D01*
X156852487Y-62982806D01*
X156903999Y-62971600D01*
X157575682Y-62971600D01*
X157642721Y-62991285D01*
X157663356Y-63007911D01*
X157723174Y-63067719D01*
X157756664Y-63129040D01*
X157759500Y-63155408D01*
X157759500Y-63234692D01*
X157762356Y-63270991D01*
X157762357Y-63270997D01*
X157807504Y-63426390D01*
X157807505Y-63426393D01*
X157889881Y-63565684D01*
X157889887Y-63565692D01*
X158004307Y-63680112D01*
X158004311Y-63680115D01*
X158004313Y-63680117D01*
X158143605Y-63762494D01*
X158181243Y-63773429D01*
X158299002Y-63807642D01*
X158299005Y-63807642D01*
X158299007Y-63807643D01*
X158311108Y-63808595D01*
X158335308Y-63810500D01*
X158335310Y-63810500D01*
X158744692Y-63810500D01*
X158762841Y-63809071D01*
X158780993Y-63807643D01*
X158780995Y-63807642D01*
X158780997Y-63807642D01*
X158828664Y-63793793D01*
X158936395Y-63762494D01*
X158957369Y-63750089D01*
X159025088Y-63732906D01*
X159083613Y-63750090D01*
X159103803Y-63762031D01*
X159250000Y-63804504D01*
X159250000Y-63498352D01*
X159267267Y-63435233D01*
X159272494Y-63426395D01*
X159280782Y-63397870D01*
X159317642Y-63270997D01*
X159317643Y-63270991D01*
X159317650Y-63270910D01*
X159319295Y-63250000D01*
X159750000Y-63250000D01*
X159750000Y-63804503D01*
X159896195Y-63762031D01*
X160035374Y-63679721D01*
X160035383Y-63679714D01*
X160149714Y-63565383D01*
X160149721Y-63565374D01*
X160232031Y-63426195D01*
X160232033Y-63426190D01*
X160277144Y-63270918D01*
X160277145Y-63270912D01*
X160278790Y-63250000D01*
X159750000Y-63250000D01*
X159319295Y-63250000D01*
X159320500Y-63234690D01*
X159320500Y-63073752D01*
X159340185Y-63006713D01*
X159356819Y-62986071D01*
X159556571Y-62786319D01*
X159617894Y-62752834D01*
X159644252Y-62750000D01*
X160278790Y-62750000D01*
X160277145Y-62729089D01*
X160232031Y-62573804D01*
X160149721Y-62434625D01*
X160149714Y-62434616D01*
X160116674Y-62401576D01*
X160083189Y-62340253D01*
X160088173Y-62270561D01*
X160116667Y-62226223D01*
X160359174Y-61983716D01*
X160420496Y-61950234D01*
X160446853Y-61947400D01*
X163245500Y-61947400D01*
X163312539Y-61967085D01*
G37*
%TD.AperFunction*%
%TA.AperFunction,Conductor*%
G36*
X170830239Y-74182167D02*
G01*
X170874588Y-74210668D01*
X171838181Y-75174261D01*
X171871666Y-75235584D01*
X171874500Y-75261942D01*
X171874500Y-75492387D01*
X171854815Y-75559426D01*
X171802011Y-75605181D01*
X171732853Y-75615125D01*
X171669297Y-75586100D01*
X171650181Y-75565271D01*
X171643094Y-75555517D01*
X171643094Y-75555516D01*
X171607188Y-75525813D01*
X171602876Y-75521890D01*
X170661819Y-74580832D01*
X170628334Y-74519509D01*
X170625500Y-74493151D01*
X170625500Y-74335757D01*
X170645185Y-74268718D01*
X170661818Y-74248077D01*
X170674017Y-74235878D01*
X170699226Y-74210668D01*
X170760547Y-74177183D01*
X170830239Y-74182167D01*
G37*
%TD.AperFunction*%
%TA.AperFunction,Conductor*%
G36*
X184172162Y-63545841D02*
G01*
X184199948Y-63560446D01*
X184362170Y-63674035D01*
X184576337Y-63773903D01*
X184804592Y-63835063D01*
X184955831Y-63848295D01*
X185020898Y-63873746D01*
X185061877Y-63930337D01*
X185065755Y-64000099D01*
X185032703Y-64059503D01*
X182651287Y-66440919D01*
X182589964Y-66474404D01*
X182520272Y-66469420D01*
X182464340Y-66427549D01*
X182382190Y-66317812D01*
X182382187Y-66317809D01*
X182267093Y-66231649D01*
X182267086Y-66231645D01*
X182132379Y-66181403D01*
X182132372Y-66181401D01*
X182072844Y-66175000D01*
X181750000Y-66175000D01*
X181750000Y-66924500D01*
X181730315Y-66991539D01*
X181677511Y-67037294D01*
X181626000Y-67048500D01*
X174083653Y-67048500D01*
X174016614Y-67028815D01*
X173995972Y-67012181D01*
X173856819Y-66873028D01*
X173823334Y-66811705D01*
X173820500Y-66785347D01*
X173820500Y-66750000D01*
X176325000Y-66750000D01*
X177100000Y-66750000D01*
X177100000Y-66175000D01*
X177600000Y-66175000D01*
X177600000Y-66750000D01*
X178375000Y-66750000D01*
X180475000Y-66750000D01*
X181250000Y-66750000D01*
X181250000Y-66175000D01*
X180927155Y-66175000D01*
X180867627Y-66181401D01*
X180867620Y-66181403D01*
X180732913Y-66231645D01*
X180732906Y-66231649D01*
X180617812Y-66317809D01*
X180617809Y-66317812D01*
X180531649Y-66432906D01*
X180531645Y-66432913D01*
X180481403Y-66567620D01*
X180481401Y-66567627D01*
X180475000Y-66627155D01*
X180475000Y-66750000D01*
X178375000Y-66750000D01*
X178375000Y-66627172D01*
X178374999Y-66627155D01*
X178368598Y-66567627D01*
X178368596Y-66567620D01*
X178318354Y-66432913D01*
X178318350Y-66432906D01*
X178232190Y-66317812D01*
X178232187Y-66317809D01*
X178117093Y-66231649D01*
X178117086Y-66231645D01*
X177982379Y-66181403D01*
X177982372Y-66181401D01*
X177922844Y-66175000D01*
X177600000Y-66175000D01*
X177100000Y-66175000D01*
X176777155Y-66175000D01*
X176717627Y-66181401D01*
X176717620Y-66181403D01*
X176582913Y-66231645D01*
X176582906Y-66231649D01*
X176467812Y-66317809D01*
X176467809Y-66317812D01*
X176381649Y-66432906D01*
X176381645Y-66432913D01*
X176331403Y-66567620D01*
X176331401Y-66567627D01*
X176325000Y-66627155D01*
X176325000Y-66750000D01*
X173820500Y-66750000D01*
X173820500Y-66685308D01*
X173819295Y-66670000D01*
X174250000Y-66670000D01*
X174778790Y-66670000D01*
X174777145Y-66649089D01*
X174732031Y-66493804D01*
X174649721Y-66354625D01*
X174649714Y-66354616D01*
X174535383Y-66240285D01*
X174535374Y-66240278D01*
X174396193Y-66157967D01*
X174396190Y-66157965D01*
X174250001Y-66115493D01*
X174250000Y-66115494D01*
X174250000Y-66670000D01*
X173819295Y-66670000D01*
X173817643Y-66649008D01*
X173817642Y-66649002D01*
X173772495Y-66493608D01*
X173772492Y-66493600D01*
X173767266Y-66484763D01*
X173750000Y-66421645D01*
X173750000Y-66115494D01*
X173749998Y-66115493D01*
X173603809Y-66157965D01*
X173603806Y-66157967D01*
X173583608Y-66169912D01*
X173515884Y-66187092D01*
X173457370Y-66169910D01*
X173436397Y-66157507D01*
X173436390Y-66157504D01*
X173280997Y-66112357D01*
X173280991Y-66112356D01*
X173244692Y-66109500D01*
X173244690Y-66109500D01*
X173165453Y-66109500D01*
X173098414Y-66089815D01*
X173077772Y-66073181D01*
X172862203Y-65857612D01*
X172852380Y-65845350D01*
X172852159Y-65845534D01*
X172847186Y-65839523D01*
X172839454Y-65832262D01*
X172796764Y-65792173D01*
X172782102Y-65777511D01*
X172775875Y-65771283D01*
X172770386Y-65767025D01*
X172765961Y-65763247D01*
X172731982Y-65731338D01*
X172731980Y-65731336D01*
X172731977Y-65731335D01*
X172714429Y-65721688D01*
X172698163Y-65711004D01*
X172682336Y-65698727D01*
X172682335Y-65698726D01*
X172682333Y-65698725D01*
X172639568Y-65680218D01*
X172634322Y-65677648D01*
X172593493Y-65655203D01*
X172593492Y-65655202D01*
X172574093Y-65650222D01*
X172555681Y-65643918D01*
X172537298Y-65635962D01*
X172537292Y-65635960D01*
X172491274Y-65628672D01*
X172485552Y-65627487D01*
X172440421Y-65615900D01*
X172440419Y-65615900D01*
X172420384Y-65615900D01*
X172400986Y-65614373D01*
X172393562Y-65613197D01*
X172381205Y-65611240D01*
X172381204Y-65611240D01*
X172334816Y-65615625D01*
X172328978Y-65615900D01*
X168741337Y-65615900D01*
X168725720Y-65614176D01*
X168725693Y-65614462D01*
X168717931Y-65613727D01*
X168648803Y-65615900D01*
X168619250Y-65615900D01*
X168618529Y-65615990D01*
X168612357Y-65616769D01*
X168606545Y-65617226D01*
X168559978Y-65618690D01*
X168559967Y-65618692D01*
X168540734Y-65624279D01*
X168521694Y-65628222D01*
X168501817Y-65630734D01*
X168501810Y-65630735D01*
X168501808Y-65630736D01*
X168501806Y-65630736D01*
X168501805Y-65630737D01*
X168458468Y-65647894D01*
X168452942Y-65649786D01*
X168408211Y-65662782D01*
X168408208Y-65662783D01*
X168390963Y-65672981D01*
X168373501Y-65681535D01*
X168354872Y-65688911D01*
X168354867Y-65688913D01*
X168317164Y-65716306D01*
X168312282Y-65719512D01*
X168272180Y-65743228D01*
X168258008Y-65757400D01*
X168243223Y-65770028D01*
X168227487Y-65781462D01*
X168227012Y-65781807D01*
X168197309Y-65817710D01*
X168193377Y-65822031D01*
X167952226Y-66063181D01*
X167890903Y-66096666D01*
X167864546Y-66099500D01*
X167780819Y-66099501D01*
X167744794Y-66102335D01*
X167590611Y-66147129D01*
X167590606Y-66147131D01*
X167452404Y-66228863D01*
X167452396Y-66228869D01*
X167338869Y-66342396D01*
X167338863Y-66342404D01*
X167257131Y-66480606D01*
X167257129Y-66480611D01*
X167212335Y-66634791D01*
X167212334Y-66634797D01*
X167209500Y-66670817D01*
X167209501Y-67169181D01*
X167212335Y-67205205D01*
X167257129Y-67359388D01*
X167257131Y-67359393D01*
X167337232Y-67494837D01*
X167354500Y-67557958D01*
X167354500Y-69625728D01*
X167350603Y-69656572D01*
X167348821Y-69663511D01*
X167342521Y-69681910D01*
X167334562Y-69700302D01*
X167334561Y-69700305D01*
X167327271Y-69746327D01*
X167326087Y-69752046D01*
X167314501Y-69797172D01*
X167314500Y-69797182D01*
X167314500Y-69817216D01*
X167312973Y-69836615D01*
X167309840Y-69856394D01*
X167309839Y-69856404D01*
X167309915Y-69857201D01*
X167309795Y-69857818D01*
X167309595Y-69864193D01*
X167308566Y-69864160D01*
X167296623Y-69925795D01*
X167293198Y-69931983D01*
X167217130Y-70060608D01*
X167217129Y-70060611D01*
X167172335Y-70214791D01*
X167172334Y-70214797D01*
X167169500Y-70250817D01*
X167169500Y-70334546D01*
X167149815Y-70401585D01*
X167133180Y-70422228D01*
X167091207Y-70464200D01*
X167078951Y-70474020D01*
X167079134Y-70474241D01*
X167073123Y-70479213D01*
X167025772Y-70529636D01*
X167004889Y-70550519D01*
X167004877Y-70550532D01*
X167000621Y-70556017D01*
X166996837Y-70560447D01*
X166964937Y-70594418D01*
X166964936Y-70594420D01*
X166955284Y-70611976D01*
X166944610Y-70628226D01*
X166932329Y-70644061D01*
X166932324Y-70644068D01*
X166913815Y-70686838D01*
X166911245Y-70692084D01*
X166888803Y-70732906D01*
X166883822Y-70752307D01*
X166877521Y-70770710D01*
X166869562Y-70789102D01*
X166869561Y-70789105D01*
X166862271Y-70835127D01*
X166861087Y-70840846D01*
X166849501Y-70885972D01*
X166849500Y-70885982D01*
X166849500Y-70906016D01*
X166847973Y-70925415D01*
X166844840Y-70945194D01*
X166844840Y-70945195D01*
X166849225Y-70991583D01*
X166849500Y-70997421D01*
X166849500Y-73170500D01*
X166829815Y-73237539D01*
X166777011Y-73283294D01*
X166725500Y-73294500D01*
X164894596Y-73294500D01*
X164827557Y-73274815D01*
X164806915Y-73258181D01*
X164777603Y-73228869D01*
X164777595Y-73228863D01*
X164639393Y-73147131D01*
X164639388Y-73147129D01*
X164485208Y-73102335D01*
X164485202Y-73102334D01*
X164449183Y-73099500D01*
X164449181Y-73099500D01*
X164183607Y-73099500D01*
X164050819Y-73099501D01*
X164014794Y-73102335D01*
X163860611Y-73147129D01*
X163860604Y-73147132D01*
X163803119Y-73181128D01*
X163735395Y-73198309D01*
X163676881Y-73181128D01*
X163619395Y-73147132D01*
X163619388Y-73147129D01*
X163465208Y-73102335D01*
X163465202Y-73102334D01*
X163429183Y-73099500D01*
X163429181Y-73099500D01*
X163163607Y-73099500D01*
X163030819Y-73099501D01*
X162994794Y-73102335D01*
X162840611Y-73147129D01*
X162840606Y-73147131D01*
X162702404Y-73228863D01*
X162702396Y-73228869D01*
X162588871Y-73342395D01*
X162588863Y-73342404D01*
X162507131Y-73480606D01*
X162507129Y-73480611D01*
X162462335Y-73634791D01*
X162462334Y-73634797D01*
X162459500Y-73670817D01*
X162459500Y-73754545D01*
X162439815Y-73821584D01*
X162423182Y-73842226D01*
X162350928Y-73914481D01*
X162289605Y-73947966D01*
X162263246Y-73950800D01*
X160823948Y-73950800D01*
X160756909Y-73931115D01*
X160731800Y-73909774D01*
X160726073Y-73903414D01*
X160726069Y-73903410D01*
X160629346Y-73833137D01*
X160586680Y-73777807D01*
X160580701Y-73708194D01*
X160613307Y-73646399D01*
X160614478Y-73645210D01*
X163412871Y-70846819D01*
X163474194Y-70813334D01*
X163500552Y-70810500D01*
X163704692Y-70810500D01*
X163722841Y-70809071D01*
X163740993Y-70807643D01*
X163740995Y-70807642D01*
X163740997Y-70807642D01*
X163793039Y-70792522D01*
X163896395Y-70762494D01*
X163917369Y-70750089D01*
X163985088Y-70732906D01*
X164043613Y-70750090D01*
X164063803Y-70762031D01*
X164210000Y-70804504D01*
X164210000Y-70498352D01*
X164227267Y-70435233D01*
X164232494Y-70426395D01*
X164264084Y-70317665D01*
X164277642Y-70270997D01*
X164277643Y-70270991D01*
X164279295Y-70250000D01*
X164710000Y-70250000D01*
X164710000Y-70804503D01*
X164856195Y-70762031D01*
X164995374Y-70679721D01*
X164995383Y-70679714D01*
X165109714Y-70565383D01*
X165109721Y-70565374D01*
X165192031Y-70426195D01*
X165192033Y-70426190D01*
X165237144Y-70270918D01*
X165237145Y-70270912D01*
X165238790Y-70250000D01*
X164710000Y-70250000D01*
X164279295Y-70250000D01*
X164280500Y-70234692D01*
X164280500Y-69765308D01*
X164279295Y-69750000D01*
X164710000Y-69750000D01*
X165238790Y-69750000D01*
X165237145Y-69729089D01*
X165192031Y-69573804D01*
X165109721Y-69434625D01*
X165109714Y-69434616D01*
X164995383Y-69320285D01*
X164995374Y-69320278D01*
X164856193Y-69237967D01*
X164856190Y-69237965D01*
X164710001Y-69195493D01*
X164710000Y-69195494D01*
X164710000Y-69750000D01*
X164279295Y-69750000D01*
X164277643Y-69729008D01*
X164277642Y-69729002D01*
X164232495Y-69573608D01*
X164232492Y-69573600D01*
X164227266Y-69564763D01*
X164210000Y-69501645D01*
X164210000Y-69195494D01*
X164209998Y-69195493D01*
X164063809Y-69237965D01*
X164063806Y-69237967D01*
X164043608Y-69249912D01*
X163975884Y-69267092D01*
X163917370Y-69249910D01*
X163896397Y-69237507D01*
X163896390Y-69237504D01*
X163740997Y-69192357D01*
X163740991Y-69192356D01*
X163704692Y-69189500D01*
X163704690Y-69189500D01*
X163295310Y-69189500D01*
X163295308Y-69189500D01*
X163259008Y-69192356D01*
X163244289Y-69196633D01*
X163174419Y-69196432D01*
X163115750Y-69158490D01*
X163086907Y-69094851D01*
X163097049Y-69025721D01*
X163122012Y-68989876D01*
X166872772Y-65239119D01*
X166934095Y-65205634D01*
X166960453Y-65202800D01*
X182070857Y-65202800D01*
X182086477Y-65204524D01*
X182086504Y-65204239D01*
X182094260Y-65204971D01*
X182094267Y-65204973D01*
X182163414Y-65202800D01*
X182192950Y-65202800D01*
X182199828Y-65201930D01*
X182205641Y-65201472D01*
X182252227Y-65200009D01*
X182271469Y-65194417D01*
X182290512Y-65190474D01*
X182310392Y-65187964D01*
X182353722Y-65170807D01*
X182359246Y-65168917D01*
X182362996Y-65167827D01*
X182403990Y-65155918D01*
X182421229Y-65145722D01*
X182438703Y-65137162D01*
X182457327Y-65129788D01*
X182457327Y-65129787D01*
X182457332Y-65129786D01*
X182495049Y-65102382D01*
X182499905Y-65099192D01*
X182540020Y-65075470D01*
X182554189Y-65061299D01*
X182568979Y-65048668D01*
X182585187Y-65036894D01*
X182614899Y-65000976D01*
X182618812Y-64996676D01*
X184041149Y-63574340D01*
X184102470Y-63540857D01*
X184172162Y-63545841D01*
G37*
%TD.AperFunction*%
%TA.AperFunction,Conductor*%
G36*
X171108687Y-67565185D02*
G01*
X171129329Y-67581819D01*
X174067828Y-70520318D01*
X174101313Y-70581641D01*
X174096329Y-70651333D01*
X174067828Y-70695680D01*
X172636208Y-72127299D01*
X172623951Y-72137120D01*
X172624134Y-72137341D01*
X172618123Y-72142313D01*
X172570772Y-72192736D01*
X172549889Y-72213619D01*
X172549877Y-72213632D01*
X172545621Y-72219117D01*
X172541837Y-72223547D01*
X172509937Y-72257518D01*
X172509936Y-72257520D01*
X172500284Y-72275076D01*
X172489610Y-72291326D01*
X172477329Y-72307161D01*
X172477324Y-72307168D01*
X172458815Y-72349938D01*
X172456245Y-72355184D01*
X172433803Y-72396006D01*
X172428822Y-72415407D01*
X172422521Y-72433810D01*
X172414562Y-72452202D01*
X172414561Y-72452205D01*
X172407271Y-72498227D01*
X172406087Y-72503946D01*
X172394501Y-72549072D01*
X172394500Y-72549082D01*
X172394500Y-72569116D01*
X172392973Y-72588515D01*
X172389840Y-72608294D01*
X172389840Y-72608295D01*
X172394225Y-72654683D01*
X172394500Y-72660521D01*
X172394500Y-73662037D01*
X172374815Y-73729076D01*
X172322011Y-73774831D01*
X172252853Y-73784775D01*
X172189297Y-73755750D01*
X172182819Y-73749718D01*
X171836819Y-73403718D01*
X171803334Y-73342395D01*
X171800500Y-73316037D01*
X171800500Y-72635451D01*
X171820185Y-72568412D01*
X171836815Y-72547774D01*
X172310896Y-72073692D01*
X172328879Y-72058816D01*
X172335638Y-72054224D01*
X172373625Y-72011134D01*
X172376265Y-72008324D01*
X172388820Y-71995770D01*
X172399707Y-71981732D01*
X172402154Y-71978774D01*
X172440150Y-71935678D01*
X172443859Y-71928398D01*
X172456368Y-71908689D01*
X172458539Y-71905891D01*
X172461374Y-71902236D01*
X172484179Y-71849535D01*
X172485828Y-71846027D01*
X172511898Y-71794865D01*
X172513680Y-71786893D01*
X172520892Y-71764695D01*
X172524138Y-71757195D01*
X172533125Y-71700446D01*
X172533843Y-71696683D01*
X172546373Y-71640633D01*
X172546116Y-71632463D01*
X172547583Y-71609166D01*
X172548297Y-71604659D01*
X172548860Y-71601104D01*
X172543455Y-71543942D01*
X172543212Y-71540072D01*
X172541409Y-71482673D01*
X172539128Y-71474823D01*
X172534755Y-71451901D01*
X172533987Y-71443767D01*
X172514541Y-71389753D01*
X172513337Y-71386048D01*
X172497318Y-71330911D01*
X172497318Y-71330910D01*
X172493160Y-71323880D01*
X172483223Y-71302764D01*
X172480454Y-71295071D01*
X172465367Y-71272871D01*
X172448173Y-71247571D01*
X172446085Y-71244281D01*
X172436406Y-71227915D01*
X172416870Y-71194880D01*
X172411097Y-71189107D01*
X172396221Y-71171126D01*
X172391624Y-71164362D01*
X172348540Y-71126378D01*
X172345701Y-71123711D01*
X171508425Y-70286435D01*
X170674403Y-69452412D01*
X170664580Y-69440150D01*
X170664359Y-69440334D01*
X170659386Y-69434323D01*
X170659375Y-69434313D01*
X170608964Y-69386973D01*
X170588071Y-69366080D01*
X170588069Y-69366078D01*
X170546225Y-69324234D01*
X170512740Y-69262911D01*
X170517724Y-69193219D01*
X170546225Y-69148871D01*
X170629717Y-69065379D01*
X170629721Y-69065374D01*
X170712031Y-68926195D01*
X170712033Y-68926190D01*
X170757144Y-68770918D01*
X170757145Y-68770912D01*
X170758790Y-68750000D01*
X170023353Y-68750000D01*
X169956314Y-68730315D01*
X169935672Y-68713681D01*
X169836819Y-68614828D01*
X169803334Y-68553505D01*
X169800500Y-68527147D01*
X169800500Y-68374000D01*
X169820185Y-68306961D01*
X169872989Y-68261206D01*
X169924500Y-68250000D01*
X170758790Y-68250000D01*
X170757145Y-68229089D01*
X170712031Y-68073804D01*
X170629721Y-67934625D01*
X170629714Y-67934616D01*
X170515383Y-67820285D01*
X170515374Y-67820278D01*
X170440896Y-67776232D01*
X170393212Y-67725163D01*
X170380709Y-67656421D01*
X170407355Y-67591832D01*
X170464690Y-67551902D01*
X170504017Y-67545500D01*
X171041648Y-67545500D01*
X171108687Y-67565185D01*
G37*
%TD.AperFunction*%
%TA.AperFunction,Conductor*%
G36*
X168513117Y-71238869D02*
G01*
X168570607Y-71272869D01*
X168570610Y-71272869D01*
X168570612Y-71272871D01*
X168724791Y-71317664D01*
X168724794Y-71317664D01*
X168724796Y-71317665D01*
X168733801Y-71318373D01*
X168760816Y-71320500D01*
X168760818Y-71320499D01*
X168760819Y-71320500D01*
X168844547Y-71320499D01*
X168911585Y-71340183D01*
X168932228Y-71356818D01*
X170063181Y-72487771D01*
X170096666Y-72549094D01*
X170099500Y-72575452D01*
X170099500Y-72989851D01*
X170079815Y-73056890D01*
X170063181Y-73077532D01*
X169616208Y-73524504D01*
X169603951Y-73534325D01*
X169604134Y-73534546D01*
X169598123Y-73539518D01*
X169550772Y-73589941D01*
X169529889Y-73610824D01*
X169529874Y-73610840D01*
X169525617Y-73616326D01*
X169521826Y-73620764D01*
X169519472Y-73623270D01*
X169459226Y-73658657D01*
X169389412Y-73655854D01*
X169376655Y-73650005D01*
X169376558Y-73650231D01*
X169369391Y-73647130D01*
X169215208Y-73602335D01*
X169215202Y-73602334D01*
X169179183Y-73599500D01*
X169179181Y-73599500D01*
X168913607Y-73599500D01*
X168780819Y-73599501D01*
X168744794Y-73602335D01*
X168590611Y-73647129D01*
X168590604Y-73647132D01*
X168533119Y-73681128D01*
X168465395Y-73698309D01*
X168406881Y-73681128D01*
X168349395Y-73647132D01*
X168349388Y-73647129D01*
X168189905Y-73600795D01*
X168131019Y-73563189D01*
X168101813Y-73499716D01*
X168100500Y-73481719D01*
X168100500Y-71432470D01*
X168120185Y-71365431D01*
X168172989Y-71319676D01*
X168189897Y-71313396D01*
X168329393Y-71272869D01*
X168386882Y-71238869D01*
X168454602Y-71221688D01*
X168513117Y-71238869D01*
G37*
%TD.AperFunction*%
%TA.AperFunction,Conductor*%
G36*
X192200507Y-62290156D02*
G01*
X192160000Y-62428111D01*
X192160000Y-62571889D01*
X192200507Y-62709844D01*
X192226314Y-62750000D01*
X190553686Y-62750000D01*
X190579493Y-62709844D01*
X190620000Y-62571889D01*
X190620000Y-62428111D01*
X190579493Y-62290156D01*
X190553686Y-62250000D01*
X192226314Y-62250000D01*
X192200507Y-62290156D01*
G37*
%TD.AperFunction*%
%TD*%
M02*
