M48
; DRILL file {KiCad 7.0.9-dirty} date Wed Dec 27 00:33:43 2023
; FORMAT={-:-/ absolute / inch / decimal}
; #@! TF.CreationDate,2023-12-27T00:33:43-08:00
; #@! TF.GenerationSoftware,Kicad,Pcbnew,7.0.9-dirty
; #@! TF.FileFunction,Plated,1,2,PTH
FMAT,2
INCH
; #@! TA.AperFunction,Plated,PTH,ViaDrill
T1C0.0157
; #@! TA.AperFunction,Plated,PTH,ComponentDrill
T2C0.0236
; #@! TA.AperFunction,Plated,PTH,ComponentDrill
T3C0.0315
; #@! TA.AperFunction,Plated,PTH,ComponentDrill
T4C0.0394
%
G90
G05
T1
X5.1575Y-2.4213
X5.1772Y-3.5039
X5.1969Y-3.3071
X5.2165Y-2.4606
X5.2953Y-3.4843
X5.315Y-3.3661
X5.3937Y-3.4252
X5.4724Y-2.5
X5.4724Y-3.3661
X5.4921Y-3.4843
X5.5512Y-2.874
X5.6102Y-2.7953
X5.6299Y-3.2874
X5.6496Y-3.1693
X5.689Y-3.3661
X5.689Y-3.5236
X5.7087Y-2.7559
X5.7087Y-3.1102
X5.7283Y-2.8937
X5.7677Y-3.1693
X5.8071Y-2.7953
X5.8071Y-3.5236
X5.8661Y-3.2087
X5.9297Y-2.5155
X5.9449Y-3.5236
X5.9591Y-3.0535
X6.0433Y-3.3661
X6.063Y-3.5236
X6.0827Y-2.9528
X6.0914Y-3.1892
X6.1024Y-2.8543
X6.1417Y-3.5039
X6.1614Y-3.3661
X6.1811Y-2.5787
X6.1811Y-3.1299
X6.2008Y-2.8543
X6.2205Y-2.7559
X6.2402Y-3.0512
X6.2992Y-2.8346
X6.2992Y-3.5236
X6.3039Y-2.9361
X6.3189Y-2.6181
X6.3386Y-3.1299
X6.3583Y-2.6772
X6.3583Y-3.4252
X6.378Y-2.5984
X6.3976Y-2.9921
X6.3976Y-3.3661
X6.437Y-3.4055
X6.4961Y-3.1496
X6.5354Y-2.874
X6.5354Y-2.9724
X6.5354Y-3.0512
X6.5551Y-2.7165
X6.6306Y-3.245
X6.6339Y-2.8346
X6.6929Y-2.874
X6.711Y-3.0585
X6.7323Y-2.9331
X6.7342Y-3.3867
X6.752Y-3.1299
X6.7717Y-2.874
X6.8504Y-3.2677
X6.8504Y-3.4055
X6.8878Y-2.8937
X6.896Y-3.1025
X6.9094Y-2.9724
X6.9291Y-3.248
X6.9307Y-3.1382
X6.9488Y-2.815
X6.9541Y-2.9022
X6.9583Y-3.11
X7.0146Y-2.9331
X7.0472Y-2.7953
X7.126Y-2.7953
X7.134Y-3.0211
X7.1614Y-3.2221
X7.2065Y-2.7696
X7.2406Y-2.8185
X7.2762Y-3.2319
X7.3118Y-3.2827
X7.3425Y-3.3858
X7.3468Y-2.9233
X7.3622Y-3.2283
X7.4015Y-2.6452
X7.4409Y-3.4055
X7.5984Y-3.4055
T3
X5.7252Y-3.4449
X5.8252Y-3.4449
X5.9252Y-3.4449
X6.0252Y-3.4449
X6.2598Y-3.1374
X6.2598Y-3.4374
T4
X6.485Y-2.4606
X6.5047Y-3.5039
X6.585Y-2.4606
X6.6047Y-3.5039
X6.685Y-2.4606
X6.7047Y-3.5039
X6.785Y-2.4606
X6.8047Y-3.5039
X6.885Y-2.4606
X6.9047Y-3.5039
X6.985Y-2.4606
X7.0047Y-3.5039
X7.085Y-2.4606
X7.1047Y-3.5039
X7.185Y-2.4606
X7.2047Y-3.5039
X7.285Y-2.4606
X7.3047Y-3.5039
X7.385Y-2.4606
X7.4047Y-3.5039
X7.485Y-2.4606
X7.5047Y-3.5039
X7.585Y-2.4606
X7.6047Y-3.5039
T2
G00X5.2443Y-2.8768
M15
G01X5.2207Y-2.8768
M16
G05
G00X5.2443Y-3.2169
M15
G01X5.2207Y-3.2169
M16
G05
G00X5.4187Y-2.8768
M15
G01X5.3754Y-2.8768
M16
G05
G00X5.4187Y-3.2169
M15
G01X5.3754Y-3.2169
M16
G05
T0
M30
