%TF.GenerationSoftware,KiCad,Pcbnew,7.0.9-dirty*%
%TF.CreationDate,2023-12-27T00:33:38-08:00*%
%TF.ProjectId,hardware,68617264-7761-4726-952e-6b696361645f,rev?*%
%TF.SameCoordinates,Original*%
%TF.FileFunction,Copper,L2,Bot*%
%TF.FilePolarity,Positive*%
%FSLAX46Y46*%
G04 Gerber Fmt 4.6, Leading zero omitted, Abs format (unit mm)*
G04 Created by KiCad (PCBNEW 7.0.9-dirty) date 2023-12-27 00:33:38*
%MOMM*%
%LPD*%
G01*
G04 APERTURE LIST*
%TA.AperFunction,ComponentPad*%
%ADD10R,1.500000X1.500000*%
%TD*%
%TA.AperFunction,ComponentPad*%
%ADD11C,1.500000*%
%TD*%
%TA.AperFunction,ComponentPad*%
%ADD12O,2.100000X1.000000*%
%TD*%
%TA.AperFunction,ComponentPad*%
%ADD13O,1.600000X1.000000*%
%TD*%
%TA.AperFunction,ComponentPad*%
%ADD14R,1.700000X1.700000*%
%TD*%
%TA.AperFunction,ComponentPad*%
%ADD15O,1.700000X1.700000*%
%TD*%
%TA.AperFunction,ComponentPad*%
%ADD16R,1.600000X1.600000*%
%TD*%
%TA.AperFunction,ComponentPad*%
%ADD17O,1.600000X1.600000*%
%TD*%
%TA.AperFunction,ViaPad*%
%ADD18C,0.800000*%
%TD*%
%TA.AperFunction,Conductor*%
%ADD19C,0.250000*%
%TD*%
G04 APERTURE END LIST*
D10*
%TO.P,U4,1,VDD*%
%TO.N,3V3*%
X145420000Y-87500000D03*
D11*
%TO.P,U4,2,DATA*%
%TO.N,IO3_SDA*%
X147960000Y-87500000D03*
%TO.P,U4,3,NC*%
%TO.N,unconnected-(U4-NC-Pad3)*%
X150500000Y-87500000D03*
%TO.P,U4,4,GND*%
%TO.N,GND*%
X153040000Y-87500000D03*
%TD*%
D12*
%TO.P,J1,S1,SHIELD*%
%TO.N,unconnected-(J1-SHIELD-PadS1)*%
X137085000Y-73070000D03*
D13*
X132905000Y-73070000D03*
D12*
X137085000Y-81710000D03*
D13*
X132905000Y-81710000D03*
%TD*%
D14*
%TO.P,J4,1,Pin_1*%
%TO.N,IO2*%
X165220000Y-89000000D03*
D15*
%TO.P,J4,2,Pin_2*%
%TO.N,IO3_SDA*%
X167760000Y-89000000D03*
%TO.P,J4,3,Pin_3*%
%TO.N,IO4_SCL*%
X170300000Y-89000000D03*
%TO.P,J4,4,Pin_4*%
%TO.N,GND*%
X172840000Y-89000000D03*
%TO.P,J4,5,Pin_5*%
%TO.N,3V3*%
X175380000Y-89000000D03*
%TO.P,J4,6,Pin_6*%
%TO.N,IO5*%
X177920000Y-89000000D03*
%TO.P,J4,7,Pin_7*%
%TO.N,IO6*%
X180460000Y-89000000D03*
%TO.P,J4,8,Pin_8*%
%TO.N,IO7*%
X183000000Y-89000000D03*
%TO.P,J4,9,Pin_9*%
%TO.N,IO8*%
X185540000Y-89000000D03*
%TO.P,J4,10,Pin_10*%
%TO.N,IO9_BOOT*%
X188080000Y-89000000D03*
%TO.P,J4,11,Pin_11*%
%TO.N,3V3*%
X190620000Y-89000000D03*
%TO.P,J4,12,Pin_12*%
%TO.N,GND*%
X193160000Y-89000000D03*
%TD*%
D16*
%TO.P,D3,1,K*%
%TO.N,IO4_SCL*%
X159000000Y-87310000D03*
D17*
%TO.P,D3,2,A*%
%TO.N,Net-(D3-A)*%
X159000000Y-79690000D03*
%TD*%
D14*
%TO.P,J2,1,Pin_1*%
%TO.N,IO0*%
X164720000Y-62500000D03*
D15*
%TO.P,J2,2,Pin_2*%
%TO.N,IO1*%
X167260000Y-62500000D03*
%TO.P,J2,3,Pin_3*%
%TO.N,IO18*%
X169800000Y-62500000D03*
%TO.P,J2,4,Pin_4*%
%TO.N,GND*%
X172340000Y-62500000D03*
%TO.P,J2,5,Pin_5*%
%TO.N,3V3*%
X174880000Y-62500000D03*
%TO.P,J2,6,Pin_6*%
%TO.N,IO19*%
X177420000Y-62500000D03*
%TO.P,J2,7,Pin_7*%
%TO.N,IO20_RX*%
X179960000Y-62500000D03*
%TO.P,J2,8,Pin_8*%
%TO.N,IO21_TX*%
X182500000Y-62500000D03*
%TO.P,J2,9,Pin_9*%
%TO.N,IO10*%
X185040000Y-62500000D03*
%TO.P,J2,10,Pin_10*%
%TO.N,3V3*%
X187580000Y-62500000D03*
%TO.P,J2,11,Pin_11*%
%TO.N,GND*%
X190120000Y-62500000D03*
%TO.P,J2,12,Pin_12*%
X192660000Y-62500000D03*
%TD*%
D18*
%TO.N,GND*%
X171000000Y-74500000D03*
X189000000Y-86500000D03*
X193000000Y-86500000D03*
X171500000Y-79500000D03*
X176000000Y-82500000D03*
X174000000Y-83000000D03*
X157000000Y-65500000D03*
X160500000Y-66500000D03*
X168500000Y-72000000D03*
X170000000Y-73000000D03*
X172000000Y-73000000D03*
X149000000Y-81500000D03*
X146500000Y-80500000D03*
X143500000Y-80500000D03*
X145000000Y-79000000D03*
X174000000Y-86500000D03*
X158000000Y-70000000D03*
X160000000Y-72000000D03*
X157500000Y-72500000D03*
X155000000Y-72500000D03*
X154500000Y-75000000D03*
X158500000Y-77500000D03*
X157000000Y-79500000D03*
X161000000Y-79500000D03*
X160000000Y-89500000D03*
X144500000Y-85500000D03*
X144500000Y-89500000D03*
X147500000Y-89500000D03*
X151000000Y-89500000D03*
X154000000Y-89500000D03*
X139500000Y-88500000D03*
X134500000Y-88500000D03*
X137000000Y-87000000D03*
X132000000Y-84000000D03*
X135000000Y-85500000D03*
X139000000Y-85500000D03*
X143000000Y-83500000D03*
X145000000Y-70000000D03*
X141000000Y-73000000D03*
X142500000Y-71000000D03*
X147500000Y-71000000D03*
X145500000Y-73500000D03*
X174950856Y-73500000D03*
X175500000Y-75500000D03*
X176500000Y-71500000D03*
X179000000Y-71000000D03*
X181000000Y-71000000D03*
X187000000Y-82000000D03*
X186500000Y-86000000D03*
X165000000Y-80000000D03*
X162500000Y-76000000D03*
X131500000Y-89000000D03*
X162000000Y-66000000D03*
X156000000Y-89000000D03*
X161500000Y-87000000D03*
X156500000Y-85500000D03*
X153500000Y-85500000D03*
X166000000Y-73000000D03*
X162500000Y-85500000D03*
X131000000Y-61500000D03*
X139000000Y-63500000D03*
X163500000Y-86500000D03*
X161500000Y-68000000D03*
X166000000Y-75500000D03*
X132500000Y-62500000D03*
X166000000Y-77500000D03*
X166500000Y-69000000D03*
%TO.N,IO6*%
X176740100Y-78993800D03*
X171047700Y-86023300D03*
%TO.N,IO3_SDA*%
X175159100Y-78802300D03*
X183911500Y-71589200D03*
X168418200Y-82423100D03*
%TO.N,IO10*%
X186607900Y-74252400D03*
%TO.N,IO21_TX*%
X185720700Y-83379600D03*
%TO.N,IO20_RX*%
X184816100Y-82089800D03*
%TO.N,IO19*%
X181899000Y-81842200D03*
X154722000Y-81004800D03*
%TO.N,IO18*%
X151361600Y-77559800D03*
X181204200Y-76736100D03*
%TO.N,IO1*%
X178170000Y-74500000D03*
%TO.N,IO0*%
X176633000Y-73714700D03*
%TO.N,Net-(D3-A)*%
X160120200Y-74576300D03*
%TO.N,IO4_SCL*%
X176040700Y-79711400D03*
%TO.N,IO2*%
X170458500Y-77684900D03*
X183045000Y-70348100D03*
X150613900Y-63893700D03*
%TO.N,IO9_BOOT*%
X187998500Y-67187500D03*
%TD*%
D19*
%TO.N,IO3_SDA*%
X168496900Y-82501800D02*
X168001800Y-82501800D01*
X168001800Y-82501800D02*
X168000000Y-82500000D01*
X168000000Y-82500000D02*
X167760000Y-82740000D01*
X167760000Y-82740000D02*
X167760000Y-89000000D01*
%TO.N,IO2*%
X165220000Y-81731700D02*
X165220000Y-89000000D01*
X170458500Y-77684900D02*
X170458500Y-81731700D01*
X170458500Y-81731700D02*
X168752105Y-81731700D01*
X168084295Y-81731700D02*
X165220000Y-81731700D01*
X168752105Y-81731700D02*
X168718505Y-81698100D01*
X168718505Y-81698100D02*
X168117895Y-81698100D01*
X168117895Y-81698100D02*
X168084295Y-81731700D01*
%TO.N,IO19*%
X181782300Y-77468400D02*
X178646000Y-77468400D01*
X178646000Y-77468400D02*
X178076200Y-76898600D01*
X178076200Y-76898600D02*
X169601400Y-76898600D01*
X169601400Y-76898600D02*
X169265100Y-77234900D01*
X169265100Y-77234900D02*
X169080404Y-77234900D01*
X169080404Y-77234900D02*
X165310504Y-81004800D01*
X165310504Y-81004800D02*
X154722000Y-81004800D01*
%TO.N,IO6*%
X180460000Y-89000000D02*
X180460000Y-87823100D01*
X176838400Y-79092100D02*
X176740100Y-78993800D01*
X176838400Y-84627600D02*
X176838400Y-79092100D01*
X177264500Y-84627600D02*
X176838400Y-84627600D01*
X180460000Y-87823100D02*
X177264500Y-84627600D01*
X172443400Y-84627600D02*
X171047700Y-86023300D01*
X176838400Y-84627600D02*
X172443400Y-84627600D01*
%TO.N,IO3_SDA*%
X175694600Y-78266800D02*
X175159100Y-78802300D01*
X177046700Y-78266800D02*
X175694600Y-78266800D01*
X180085000Y-81305100D02*
X177046700Y-78266800D01*
X180085000Y-81705000D02*
X180085000Y-81305100D01*
X181468200Y-83088200D02*
X180085000Y-81705000D01*
X182320100Y-83088200D02*
X181468200Y-83088200D01*
X183911500Y-81496800D02*
X182320100Y-83088200D01*
X183911500Y-71589200D02*
X183911500Y-81496800D01*
X171459600Y-82501800D02*
X168496900Y-82501800D01*
X175159100Y-78802300D02*
X171459600Y-82501800D01*
X168496900Y-82501800D02*
X168418200Y-82423100D01*
%TO.N,IO10*%
X185040000Y-62500000D02*
X185040000Y-63676900D01*
X186607900Y-65244800D02*
X186607900Y-74252400D01*
X185040000Y-63676900D02*
X186607900Y-65244800D01*
%TO.N,IO21_TX*%
X182500000Y-62500000D02*
X182500000Y-63676900D01*
X185720700Y-66897600D02*
X182500000Y-63676900D01*
X185720700Y-83379600D02*
X185720700Y-66897600D01*
%TO.N,IO20_RX*%
X184816100Y-68533000D02*
X179960000Y-63676900D01*
X184816100Y-82089800D02*
X184816100Y-68533000D01*
X179960000Y-62500000D02*
X179960000Y-63676900D01*
%TO.N,IO19*%
X177420000Y-62500000D02*
X177420000Y-63676900D01*
X181899000Y-77585100D02*
X181782300Y-77468400D01*
X181899000Y-81842200D02*
X181899000Y-77585100D01*
X181967800Y-77282900D02*
X181782300Y-77468400D01*
X181967800Y-68224700D02*
X181967800Y-77282900D01*
X177420000Y-63676900D02*
X181967800Y-68224700D01*
%TO.N,IO18*%
X169800000Y-62500000D02*
X168623100Y-62500000D01*
X169800000Y-62500000D02*
X169800000Y-63676900D01*
X181204200Y-75081100D02*
X181204200Y-76736100D01*
X169800000Y-63676900D02*
X181204200Y-75081100D01*
X151361600Y-73654400D02*
X151361600Y-77559800D01*
X163694100Y-61321900D02*
X151361600Y-73654400D01*
X167810800Y-61321900D02*
X163694100Y-61321900D01*
X168623100Y-62134200D02*
X167810800Y-61321900D01*
X168623100Y-62500000D02*
X168623100Y-62134200D01*
%TO.N,IO1*%
X167647500Y-63676900D02*
X167260000Y-63676900D01*
X178170000Y-74199400D02*
X167647500Y-63676900D01*
X178170000Y-74500000D02*
X178170000Y-74199400D01*
X167260000Y-62500000D02*
X167260000Y-63676900D01*
%TO.N,IO0*%
X164720000Y-62500000D02*
X165896900Y-62500000D01*
X165896900Y-62978600D02*
X176633000Y-73714700D01*
X165896900Y-62500000D02*
X165896900Y-62978600D01*
%TO.N,unconnected-(J1-SHIELD-PadS1)*%
X134031900Y-81710000D02*
X134031900Y-73070000D01*
X132905000Y-81710000D02*
X133468500Y-81710000D01*
X133468500Y-81710000D02*
X134031900Y-81710000D01*
X134031900Y-81710000D02*
X137085000Y-81710000D01*
X132905000Y-73070000D02*
X133468500Y-73070000D01*
X133468500Y-73070000D02*
X134031900Y-73070000D01*
X134031900Y-73070000D02*
X137085000Y-73070000D01*
%TO.N,Net-(D3-A)*%
X160120200Y-77442900D02*
X160120200Y-74576300D01*
X159000000Y-78563100D02*
X160120200Y-77442900D01*
X159000000Y-79690000D02*
X159000000Y-78563100D01*
%TO.N,IO4_SCL*%
X170300000Y-89000000D02*
X170300000Y-87823100D01*
X170300000Y-85452100D02*
X170300000Y-87823100D01*
X176040700Y-79711400D02*
X170300000Y-85452100D01*
%TO.N,IO2*%
X177142200Y-77684900D02*
X170458500Y-77684900D01*
X180696200Y-81238900D02*
X177142200Y-77684900D01*
X180696200Y-81670100D02*
X180696200Y-81238900D01*
X181646800Y-82620700D02*
X180696200Y-81670100D01*
X182148500Y-82620700D02*
X181646800Y-82620700D01*
X183045000Y-81724200D02*
X182148500Y-82620700D01*
X183045000Y-70348100D02*
X183045000Y-81724200D01*
X154421000Y-81731700D02*
X165220000Y-81731700D01*
X150613900Y-77924600D02*
X154421000Y-81731700D01*
X150613900Y-63893700D02*
X150613900Y-77924600D01*
%TO.N,IO9_BOOT*%
X188080000Y-67269000D02*
X187998500Y-67187500D01*
X188080000Y-89000000D02*
X188080000Y-67269000D01*
%TO.N,3V3*%
X190620000Y-89000000D02*
X189443100Y-89000000D01*
X175380000Y-89000000D02*
X176556900Y-89000000D01*
X189787800Y-86990900D02*
X190620000Y-87823100D01*
X189787800Y-65884700D02*
X189787800Y-86990900D01*
X187580000Y-63676900D02*
X189787800Y-65884700D01*
X187580000Y-62500000D02*
X187580000Y-63676900D01*
X190620000Y-89000000D02*
X190620000Y-87823100D01*
X176556900Y-89365800D02*
X176556900Y-89000000D01*
X177370300Y-90179200D02*
X176556900Y-89365800D01*
X188631700Y-90179200D02*
X177370300Y-90179200D01*
X189443100Y-89367800D02*
X188631700Y-90179200D01*
X189443100Y-89000000D02*
X189443100Y-89367800D01*
%TD*%
%TA.AperFunction,Conductor*%
%TO.N,GND*%
G36*
X163476860Y-60519685D02*
G01*
X163522615Y-60572489D01*
X163532559Y-60641647D01*
X163503534Y-60705203D01*
X163450488Y-60739293D01*
X163450873Y-60740182D01*
X163445459Y-60742524D01*
X163444756Y-60742977D01*
X163444419Y-60743075D01*
X163443716Y-60743279D01*
X163443710Y-60743281D01*
X163426466Y-60753479D01*
X163409005Y-60762033D01*
X163390374Y-60769410D01*
X163390362Y-60769417D01*
X163352670Y-60796802D01*
X163347787Y-60800009D01*
X163307680Y-60823729D01*
X163293514Y-60837895D01*
X163278724Y-60850527D01*
X163262514Y-60862304D01*
X163262511Y-60862307D01*
X163232810Y-60898209D01*
X163228877Y-60902531D01*
X151451081Y-72680328D01*
X151389758Y-72713813D01*
X151320066Y-72708829D01*
X151264133Y-72666957D01*
X151239716Y-72601493D01*
X151239400Y-72592647D01*
X151239400Y-64592387D01*
X151259085Y-64525348D01*
X151271250Y-64509415D01*
X151289791Y-64488822D01*
X151346433Y-64425916D01*
X151441079Y-64261984D01*
X151499574Y-64081956D01*
X151519360Y-63893700D01*
X151499574Y-63705444D01*
X151441079Y-63525416D01*
X151346433Y-63361484D01*
X151219771Y-63220812D01*
X151171639Y-63185842D01*
X151066634Y-63109551D01*
X151066629Y-63109548D01*
X150893707Y-63032557D01*
X150893702Y-63032555D01*
X150740538Y-63000000D01*
X150708546Y-62993200D01*
X150519254Y-62993200D01*
X150487262Y-63000000D01*
X150334097Y-63032555D01*
X150334092Y-63032557D01*
X150161170Y-63109548D01*
X150161165Y-63109551D01*
X150008029Y-63220811D01*
X149881366Y-63361485D01*
X149786721Y-63525415D01*
X149786718Y-63525422D01*
X149730503Y-63698436D01*
X149728226Y-63705444D01*
X149708440Y-63893700D01*
X149728226Y-64081956D01*
X149728227Y-64081959D01*
X149786718Y-64261977D01*
X149786721Y-64261984D01*
X149881367Y-64425916D01*
X149924672Y-64474010D01*
X149956550Y-64509415D01*
X149986780Y-64572406D01*
X149988400Y-64592387D01*
X149988400Y-77841855D01*
X149986675Y-77857472D01*
X149986961Y-77857499D01*
X149986226Y-77865265D01*
X149988400Y-77934414D01*
X149988400Y-77963943D01*
X149988401Y-77963960D01*
X149989268Y-77970831D01*
X149989726Y-77976650D01*
X149991190Y-78023224D01*
X149991191Y-78023227D01*
X149996780Y-78042467D01*
X150000724Y-78061511D01*
X150003236Y-78081392D01*
X150010033Y-78098560D01*
X150020390Y-78124719D01*
X150022282Y-78130247D01*
X150035281Y-78174988D01*
X150045480Y-78192234D01*
X150054036Y-78209700D01*
X150060620Y-78226326D01*
X150061414Y-78228332D01*
X150088798Y-78266023D01*
X150092006Y-78270907D01*
X150115727Y-78311016D01*
X150115733Y-78311024D01*
X150129890Y-78325180D01*
X150142528Y-78339976D01*
X150150106Y-78350407D01*
X150154306Y-78356187D01*
X150187427Y-78383587D01*
X150190209Y-78385888D01*
X150194520Y-78389810D01*
X153071820Y-81267111D01*
X153920197Y-82115488D01*
X153930022Y-82127751D01*
X153930243Y-82127569D01*
X153935214Y-82133578D01*
X153955770Y-82152881D01*
X153985635Y-82180926D01*
X154006529Y-82201820D01*
X154012011Y-82206073D01*
X154016443Y-82209857D01*
X154050418Y-82241762D01*
X154067976Y-82251414D01*
X154084235Y-82262095D01*
X154100064Y-82274373D01*
X154142838Y-82292882D01*
X154148056Y-82295438D01*
X154188908Y-82317897D01*
X154208316Y-82322880D01*
X154226717Y-82329180D01*
X154245104Y-82337137D01*
X154283404Y-82343203D01*
X154291119Y-82344425D01*
X154296839Y-82345609D01*
X154341981Y-82357200D01*
X154362016Y-82357200D01*
X154381414Y-82358726D01*
X154401194Y-82361859D01*
X154401195Y-82361860D01*
X154401195Y-82361859D01*
X154401196Y-82361860D01*
X154447584Y-82357475D01*
X154453422Y-82357200D01*
X164470500Y-82357200D01*
X164537539Y-82376885D01*
X164583294Y-82429689D01*
X164594500Y-82481200D01*
X164594500Y-87525500D01*
X164574815Y-87592539D01*
X164522011Y-87638294D01*
X164470501Y-87649500D01*
X164322130Y-87649500D01*
X164322123Y-87649501D01*
X164262516Y-87655908D01*
X164127671Y-87706202D01*
X164127664Y-87706206D01*
X164012455Y-87792452D01*
X164012452Y-87792455D01*
X163926206Y-87907664D01*
X163926202Y-87907671D01*
X163875908Y-88042517D01*
X163869501Y-88102116D01*
X163869500Y-88102135D01*
X163869500Y-89897870D01*
X163869501Y-89897876D01*
X163875908Y-89957483D01*
X163926202Y-90092328D01*
X163926206Y-90092335D01*
X164012452Y-90207544D01*
X164012455Y-90207547D01*
X164104876Y-90276734D01*
X164146747Y-90332668D01*
X164151731Y-90402359D01*
X164118245Y-90463682D01*
X164056922Y-90497166D01*
X164030565Y-90500000D01*
X130124000Y-90500000D01*
X130056961Y-90480315D01*
X130011206Y-90427511D01*
X130000000Y-90376000D01*
X130000000Y-88297870D01*
X144169500Y-88297870D01*
X144169501Y-88297876D01*
X144175908Y-88357483D01*
X144226202Y-88492328D01*
X144226206Y-88492335D01*
X144312452Y-88607544D01*
X144312455Y-88607547D01*
X144427664Y-88693793D01*
X144427671Y-88693797D01*
X144562517Y-88744091D01*
X144562516Y-88744091D01*
X144569444Y-88744835D01*
X144622127Y-88750500D01*
X146217872Y-88750499D01*
X146277483Y-88744091D01*
X146412331Y-88693796D01*
X146527546Y-88607546D01*
X146613796Y-88492331D01*
X146664091Y-88357483D01*
X146670500Y-88297873D01*
X146670499Y-88231860D01*
X146690183Y-88164824D01*
X146742986Y-88119068D01*
X146812144Y-88109124D01*
X146875700Y-88138148D01*
X146896073Y-88160738D01*
X146950111Y-88237911D01*
X146998402Y-88306877D01*
X147153123Y-88461598D01*
X147332361Y-88587102D01*
X147530670Y-88679575D01*
X147742023Y-88736207D01*
X147924926Y-88752208D01*
X147959998Y-88755277D01*
X147960000Y-88755277D01*
X147960002Y-88755277D01*
X147988254Y-88752805D01*
X148177977Y-88736207D01*
X148389330Y-88679575D01*
X148587639Y-88587102D01*
X148766877Y-88461598D01*
X148921598Y-88306877D01*
X149047102Y-88127639D01*
X149117618Y-87976414D01*
X149163790Y-87923977D01*
X149230984Y-87904825D01*
X149297865Y-87925041D01*
X149342381Y-87976414D01*
X149412898Y-88127639D01*
X149538402Y-88306877D01*
X149693123Y-88461598D01*
X149872361Y-88587102D01*
X150070670Y-88679575D01*
X150282023Y-88736207D01*
X150464926Y-88752208D01*
X150499998Y-88755277D01*
X150500000Y-88755277D01*
X150500002Y-88755277D01*
X150528254Y-88752805D01*
X150717977Y-88736207D01*
X150929330Y-88679575D01*
X151127639Y-88587102D01*
X151306877Y-88461598D01*
X151461598Y-88306877D01*
X151587102Y-88127639D01*
X151657895Y-87975822D01*
X151704066Y-87923385D01*
X151771260Y-87904233D01*
X151838141Y-87924449D01*
X151882658Y-87975824D01*
X151953335Y-88127391D01*
X151996873Y-88189571D01*
X151996875Y-88189572D01*
X152642046Y-87544400D01*
X152654835Y-87625148D01*
X152712359Y-87738045D01*
X152801955Y-87827641D01*
X152914852Y-87885165D01*
X152995599Y-87897953D01*
X152350426Y-88543124D01*
X152412611Y-88586666D01*
X152412613Y-88586667D01*
X152610840Y-88679101D01*
X152610849Y-88679105D01*
X152822105Y-88735710D01*
X152822115Y-88735712D01*
X153039999Y-88754775D01*
X153040001Y-88754775D01*
X153257884Y-88735712D01*
X153257894Y-88735710D01*
X153469150Y-88679105D01*
X153469159Y-88679101D01*
X153667387Y-88586666D01*
X153729572Y-88543124D01*
X153084401Y-87897953D01*
X153165148Y-87885165D01*
X153278045Y-87827641D01*
X153367641Y-87738045D01*
X153425165Y-87625148D01*
X153437953Y-87544401D01*
X154083124Y-88189572D01*
X154105322Y-88157870D01*
X157699500Y-88157870D01*
X157699501Y-88157876D01*
X157705908Y-88217483D01*
X157756202Y-88352328D01*
X157756206Y-88352335D01*
X157842452Y-88467544D01*
X157842455Y-88467547D01*
X157957664Y-88553793D01*
X157957671Y-88553797D01*
X158092517Y-88604091D01*
X158092516Y-88604091D01*
X158099444Y-88604835D01*
X158152127Y-88610500D01*
X159847872Y-88610499D01*
X159907483Y-88604091D01*
X160042331Y-88553796D01*
X160157546Y-88467546D01*
X160243796Y-88352331D01*
X160294091Y-88217483D01*
X160300500Y-88157873D01*
X160300499Y-86462128D01*
X160294091Y-86402517D01*
X160290013Y-86391584D01*
X160243797Y-86267671D01*
X160243793Y-86267664D01*
X160157547Y-86152455D01*
X160157544Y-86152452D01*
X160042335Y-86066206D01*
X160042328Y-86066202D01*
X159907482Y-86015908D01*
X159907483Y-86015908D01*
X159847883Y-86009501D01*
X159847881Y-86009500D01*
X159847873Y-86009500D01*
X159847864Y-86009500D01*
X158152129Y-86009500D01*
X158152123Y-86009501D01*
X158092516Y-86015908D01*
X157957671Y-86066202D01*
X157957664Y-86066206D01*
X157842455Y-86152452D01*
X157842452Y-86152455D01*
X157756206Y-86267664D01*
X157756202Y-86267671D01*
X157705908Y-86402517D01*
X157699501Y-86462116D01*
X157699501Y-86462123D01*
X157699500Y-86462135D01*
X157699500Y-88157870D01*
X154105322Y-88157870D01*
X154126666Y-88127387D01*
X154219101Y-87929159D01*
X154219105Y-87929150D01*
X154275710Y-87717894D01*
X154275712Y-87717884D01*
X154294775Y-87500000D01*
X154294775Y-87499999D01*
X154275712Y-87282115D01*
X154275710Y-87282105D01*
X154219105Y-87070849D01*
X154219101Y-87070840D01*
X154126668Y-86872615D01*
X154083123Y-86810428D01*
X153437953Y-87455598D01*
X153425165Y-87374852D01*
X153367641Y-87261955D01*
X153278045Y-87172359D01*
X153165148Y-87114835D01*
X153084401Y-87102046D01*
X153729572Y-86456875D01*
X153729571Y-86456873D01*
X153667391Y-86413335D01*
X153469159Y-86320898D01*
X153469150Y-86320894D01*
X153257894Y-86264289D01*
X153257884Y-86264287D01*
X153040001Y-86245225D01*
X153039999Y-86245225D01*
X152822115Y-86264287D01*
X152822105Y-86264289D01*
X152610849Y-86320894D01*
X152610840Y-86320898D01*
X152412614Y-86413332D01*
X152412612Y-86413333D01*
X152350428Y-86456875D01*
X152350427Y-86456875D01*
X152995599Y-87102046D01*
X152914852Y-87114835D01*
X152801955Y-87172359D01*
X152712359Y-87261955D01*
X152654835Y-87374852D01*
X152642046Y-87455598D01*
X151996875Y-86810427D01*
X151996875Y-86810428D01*
X151953333Y-86872612D01*
X151953332Y-86872614D01*
X151882658Y-87024175D01*
X151836485Y-87076614D01*
X151769292Y-87095766D01*
X151702411Y-87075550D01*
X151657894Y-87024175D01*
X151646954Y-87000714D01*
X151587102Y-86872362D01*
X151587100Y-86872359D01*
X151587099Y-86872357D01*
X151461599Y-86693124D01*
X151410991Y-86642516D01*
X151306877Y-86538402D01*
X151168978Y-86441844D01*
X151127638Y-86412897D01*
X151028484Y-86366661D01*
X150929330Y-86320425D01*
X150929326Y-86320424D01*
X150929322Y-86320422D01*
X150717977Y-86263793D01*
X150500002Y-86244723D01*
X150499998Y-86244723D01*
X150372151Y-86255908D01*
X150282023Y-86263793D01*
X150282020Y-86263793D01*
X150070677Y-86320422D01*
X150070668Y-86320426D01*
X149872361Y-86412898D01*
X149872357Y-86412900D01*
X149693121Y-86538402D01*
X149538402Y-86693121D01*
X149412900Y-86872357D01*
X149412898Y-86872361D01*
X149342382Y-87023583D01*
X149296209Y-87076022D01*
X149229016Y-87095174D01*
X149162135Y-87074958D01*
X149117618Y-87023583D01*
X149103118Y-86992488D01*
X149047102Y-86872362D01*
X149047100Y-86872359D01*
X149047099Y-86872357D01*
X148921599Y-86693124D01*
X148870991Y-86642516D01*
X148766877Y-86538402D01*
X148628978Y-86441844D01*
X148587638Y-86412897D01*
X148488484Y-86366661D01*
X148389330Y-86320425D01*
X148389326Y-86320424D01*
X148389322Y-86320422D01*
X148177977Y-86263793D01*
X147960002Y-86244723D01*
X147959998Y-86244723D01*
X147832151Y-86255908D01*
X147742023Y-86263793D01*
X147742020Y-86263793D01*
X147530677Y-86320422D01*
X147530668Y-86320426D01*
X147332361Y-86412898D01*
X147332357Y-86412900D01*
X147153121Y-86538402D01*
X146998402Y-86693121D01*
X146896074Y-86839262D01*
X146841497Y-86882887D01*
X146771999Y-86890081D01*
X146709644Y-86858558D01*
X146674230Y-86798328D01*
X146670499Y-86768139D01*
X146670499Y-86702129D01*
X146670498Y-86702123D01*
X146670497Y-86702116D01*
X146664091Y-86642517D01*
X146613796Y-86507669D01*
X146613795Y-86507668D01*
X146613793Y-86507664D01*
X146527547Y-86392455D01*
X146527544Y-86392452D01*
X146412335Y-86306206D01*
X146412328Y-86306202D01*
X146277482Y-86255908D01*
X146277483Y-86255908D01*
X146217883Y-86249501D01*
X146217881Y-86249500D01*
X146217873Y-86249500D01*
X146217864Y-86249500D01*
X144622129Y-86249500D01*
X144622123Y-86249501D01*
X144562516Y-86255908D01*
X144427671Y-86306202D01*
X144427664Y-86306206D01*
X144312455Y-86392452D01*
X144312452Y-86392455D01*
X144226206Y-86507664D01*
X144226202Y-86507671D01*
X144175908Y-86642517D01*
X144169501Y-86702116D01*
X144169501Y-86702123D01*
X144169500Y-86702135D01*
X144169500Y-88297870D01*
X130000000Y-88297870D01*
X130000000Y-81760936D01*
X131600631Y-81760936D01*
X131631442Y-81962063D01*
X131631445Y-81962075D01*
X131702111Y-82152881D01*
X131702113Y-82152884D01*
X131702114Y-82152887D01*
X131719591Y-82180926D01*
X131809745Y-82325567D01*
X131809747Y-82325569D01*
X131809748Y-82325571D01*
X131949941Y-82473053D01*
X132054331Y-82545710D01*
X132116949Y-82589294D01*
X132116950Y-82589294D01*
X132116951Y-82589295D01*
X132303942Y-82669540D01*
X132503259Y-82710500D01*
X133255743Y-82710500D01*
X133407439Y-82695074D01*
X133601579Y-82634162D01*
X133601580Y-82634161D01*
X133601588Y-82634159D01*
X133779502Y-82535409D01*
X133933895Y-82402866D01*
X133948369Y-82384166D01*
X134004966Y-82343203D01*
X134038638Y-82336312D01*
X134049619Y-82335621D01*
X134053499Y-82335500D01*
X135695974Y-82335500D01*
X135763013Y-82355185D01*
X135785847Y-82374067D01*
X135879941Y-82473053D01*
X135984331Y-82545710D01*
X136046949Y-82589294D01*
X136046950Y-82589294D01*
X136046951Y-82589295D01*
X136233942Y-82669540D01*
X136433259Y-82710500D01*
X137685743Y-82710500D01*
X137837439Y-82695074D01*
X138031579Y-82634162D01*
X138031580Y-82634161D01*
X138031588Y-82634159D01*
X138209502Y-82535409D01*
X138363895Y-82402866D01*
X138488448Y-82241958D01*
X138578060Y-82059271D01*
X138629063Y-81862285D01*
X138639369Y-81659064D01*
X138608556Y-81457929D01*
X138537886Y-81267113D01*
X138436526Y-81104495D01*
X138430254Y-81094432D01*
X138430250Y-81094427D01*
X138423605Y-81087437D01*
X138290059Y-80946947D01*
X138191587Y-80878409D01*
X138123050Y-80830705D01*
X137936056Y-80750459D01*
X137736741Y-80709500D01*
X137185591Y-80709500D01*
X137118552Y-80689815D01*
X137072797Y-80637011D01*
X137062853Y-80567853D01*
X137071030Y-80538047D01*
X137110571Y-80442586D01*
X137115687Y-80430236D01*
X137135466Y-80280000D01*
X137115687Y-80129764D01*
X137057698Y-79989767D01*
X136965451Y-79869549D01*
X136845233Y-79777302D01*
X136845229Y-79777300D01*
X136767766Y-79745214D01*
X136705236Y-79719313D01*
X136691171Y-79717461D01*
X136592727Y-79704500D01*
X136592720Y-79704500D01*
X136517280Y-79704500D01*
X136517272Y-79704500D01*
X136404764Y-79719313D01*
X136404763Y-79719313D01*
X136264770Y-79777300D01*
X136144549Y-79869549D01*
X136052300Y-79989770D01*
X135994313Y-80129763D01*
X135994312Y-80129765D01*
X135974534Y-80279999D01*
X135974534Y-80280000D01*
X135994312Y-80430234D01*
X135994313Y-80430236D01*
X136052300Y-80570230D01*
X136052302Y-80570234D01*
X136106491Y-80640853D01*
X136131686Y-80706022D01*
X136117648Y-80774467D01*
X136068834Y-80824457D01*
X136068294Y-80824759D01*
X135960496Y-80884592D01*
X135960495Y-80884592D01*
X135806106Y-81017132D01*
X135791189Y-81036403D01*
X135734586Y-81077366D01*
X135693134Y-81084500D01*
X134781400Y-81084500D01*
X134714361Y-81064815D01*
X134668606Y-81012011D01*
X134657400Y-80960500D01*
X134657400Y-73819500D01*
X134677085Y-73752461D01*
X134729889Y-73706706D01*
X134781400Y-73695500D01*
X135695974Y-73695500D01*
X135763013Y-73715185D01*
X135785848Y-73734068D01*
X135874293Y-73827112D01*
X135879941Y-73833053D01*
X136046951Y-73949295D01*
X136054758Y-73952645D01*
X136108603Y-73997170D01*
X136129828Y-74063737D01*
X136111695Y-74131213D01*
X136104237Y-74142083D01*
X136052302Y-74209766D01*
X136052300Y-74209769D01*
X135994313Y-74349763D01*
X135994312Y-74349765D01*
X135974534Y-74499999D01*
X135974534Y-74500000D01*
X135994312Y-74650234D01*
X135994313Y-74650236D01*
X136052302Y-74790233D01*
X136144549Y-74910451D01*
X136264767Y-75002698D01*
X136404764Y-75060687D01*
X136517280Y-75075500D01*
X136517287Y-75075500D01*
X136592713Y-75075500D01*
X136592720Y-75075500D01*
X136705236Y-75060687D01*
X136845233Y-75002698D01*
X136965451Y-74910451D01*
X137057698Y-74790233D01*
X137115687Y-74650236D01*
X137135466Y-74500000D01*
X137115687Y-74349764D01*
X137071030Y-74241953D01*
X137063561Y-74172483D01*
X137094836Y-74110004D01*
X137154925Y-74074352D01*
X137185591Y-74070500D01*
X137685743Y-74070500D01*
X137837439Y-74055074D01*
X138031579Y-73994162D01*
X138031580Y-73994161D01*
X138031588Y-73994159D01*
X138209502Y-73895409D01*
X138363895Y-73762866D01*
X138488448Y-73601958D01*
X138578060Y-73419271D01*
X138629063Y-73222285D01*
X138639369Y-73019064D01*
X138608556Y-72817929D01*
X138557595Y-72680328D01*
X138537888Y-72627118D01*
X138537887Y-72627117D01*
X138537886Y-72627113D01*
X138430252Y-72454429D01*
X138290059Y-72306947D01*
X138191587Y-72238409D01*
X138123050Y-72190705D01*
X137936056Y-72110459D01*
X137736741Y-72069500D01*
X136484258Y-72069500D01*
X136484257Y-72069500D01*
X136332560Y-72084925D01*
X136138420Y-72145837D01*
X136138405Y-72145844D01*
X135960500Y-72244589D01*
X135960495Y-72244592D01*
X135806106Y-72377132D01*
X135791189Y-72396403D01*
X135734586Y-72437366D01*
X135693134Y-72444500D01*
X134102747Y-72444500D01*
X134079515Y-72442304D01*
X134071488Y-72440773D01*
X134071483Y-72440772D01*
X134049797Y-72442137D01*
X133981654Y-72426700D01*
X133952141Y-72403817D01*
X133860059Y-72306947D01*
X133748719Y-72229452D01*
X133693050Y-72190705D01*
X133506056Y-72110459D01*
X133306741Y-72069500D01*
X132554258Y-72069500D01*
X132554257Y-72069500D01*
X132402560Y-72084925D01*
X132208420Y-72145837D01*
X132208405Y-72145844D01*
X132030500Y-72244589D01*
X132030495Y-72244592D01*
X131876106Y-72377132D01*
X131876104Y-72377134D01*
X131751554Y-72538037D01*
X131751553Y-72538040D01*
X131661940Y-72720728D01*
X131610937Y-72917714D01*
X131600631Y-73120936D01*
X131631442Y-73322063D01*
X131631445Y-73322075D01*
X131702111Y-73512881D01*
X131702115Y-73512888D01*
X131809745Y-73685567D01*
X131809749Y-73685572D01*
X131944293Y-73827112D01*
X131949941Y-73833053D01*
X132067794Y-73915081D01*
X132116949Y-73949294D01*
X132116950Y-73949294D01*
X132116951Y-73949295D01*
X132303942Y-74029540D01*
X132503259Y-74070500D01*
X133255744Y-74070500D01*
X133259788Y-74070088D01*
X133269849Y-74069065D01*
X133338536Y-74081862D01*
X133389401Y-74129764D01*
X133406400Y-74192428D01*
X133406400Y-80585500D01*
X133386715Y-80652539D01*
X133333911Y-80698294D01*
X133282400Y-80709500D01*
X132554257Y-80709500D01*
X132402560Y-80724925D01*
X132208420Y-80785837D01*
X132208405Y-80785844D01*
X132030500Y-80884589D01*
X132030495Y-80884592D01*
X131876106Y-81017132D01*
X131876104Y-81017134D01*
X131751554Y-81178037D01*
X131751553Y-81178040D01*
X131661940Y-81360728D01*
X131610937Y-81557714D01*
X131600631Y-81760936D01*
X130000000Y-81760936D01*
X130000000Y-60624000D01*
X130019685Y-60556961D01*
X130072489Y-60511206D01*
X130124000Y-60500000D01*
X163409821Y-60500000D01*
X163476860Y-60519685D01*
G37*
%TD.AperFunction*%
%TA.AperFunction,Conductor*%
G36*
X176790785Y-85255296D02*
G01*
X176792389Y-85255601D01*
X176798812Y-85256827D01*
X176856124Y-85253221D01*
X176859997Y-85253100D01*
X176954048Y-85253100D01*
X177021087Y-85272785D01*
X177041729Y-85289419D01*
X179563525Y-87811215D01*
X179597010Y-87872538D01*
X179592026Y-87942230D01*
X179563526Y-87986577D01*
X179421503Y-88128600D01*
X179291575Y-88314158D01*
X179236998Y-88357783D01*
X179167500Y-88364977D01*
X179105145Y-88333454D01*
X179088425Y-88314158D01*
X178958494Y-88128597D01*
X178791402Y-87961506D01*
X178791395Y-87961501D01*
X178597834Y-87825967D01*
X178597830Y-87825965D01*
X178594474Y-87824400D01*
X178383663Y-87726097D01*
X178383659Y-87726096D01*
X178383655Y-87726094D01*
X178155413Y-87664938D01*
X178155403Y-87664936D01*
X177920001Y-87644341D01*
X177919999Y-87644341D01*
X177684596Y-87664936D01*
X177684586Y-87664938D01*
X177456344Y-87726094D01*
X177456335Y-87726098D01*
X177242171Y-87825964D01*
X177242169Y-87825965D01*
X177048597Y-87961505D01*
X176881508Y-88128594D01*
X176751574Y-88314160D01*
X176696997Y-88357784D01*
X176627498Y-88364977D01*
X176565144Y-88333455D01*
X176548429Y-88314164D01*
X176418495Y-88128599D01*
X176418493Y-88128596D01*
X176251402Y-87961506D01*
X176251395Y-87961501D01*
X176057834Y-87825967D01*
X176057830Y-87825965D01*
X176054474Y-87824400D01*
X175843663Y-87726097D01*
X175843659Y-87726096D01*
X175843655Y-87726094D01*
X175615413Y-87664938D01*
X175615403Y-87664936D01*
X175380001Y-87644341D01*
X175379999Y-87644341D01*
X175144596Y-87664936D01*
X175144586Y-87664938D01*
X174916344Y-87726094D01*
X174916335Y-87726098D01*
X174702171Y-87825964D01*
X174702169Y-87825965D01*
X174508597Y-87961505D01*
X174341508Y-88128594D01*
X174211269Y-88314595D01*
X174156692Y-88358219D01*
X174087193Y-88365412D01*
X174024839Y-88333890D01*
X174008119Y-88314594D01*
X173878113Y-88128926D01*
X173878108Y-88128920D01*
X173711082Y-87961894D01*
X173517578Y-87826399D01*
X173303492Y-87726570D01*
X173303486Y-87726567D01*
X173090000Y-87669364D01*
X173090000Y-88564498D01*
X172982315Y-88515320D01*
X172875763Y-88500000D01*
X172804237Y-88500000D01*
X172697685Y-88515320D01*
X172590000Y-88564498D01*
X172590000Y-87669364D01*
X172589999Y-87669364D01*
X172376513Y-87726567D01*
X172376507Y-87726570D01*
X172162422Y-87826399D01*
X172162420Y-87826400D01*
X171968926Y-87961886D01*
X171968920Y-87961891D01*
X171801891Y-88128920D01*
X171801890Y-88128922D01*
X171671880Y-88314595D01*
X171617303Y-88358219D01*
X171547804Y-88365412D01*
X171485450Y-88333890D01*
X171468730Y-88314594D01*
X171338494Y-88128597D01*
X171171402Y-87961506D01*
X171171401Y-87961505D01*
X170980224Y-87827641D01*
X170978376Y-87826347D01*
X170934751Y-87771770D01*
X170925500Y-87724772D01*
X170925500Y-87047800D01*
X170945185Y-86980761D01*
X170997989Y-86935006D01*
X171049500Y-86923800D01*
X171142344Y-86923800D01*
X171142346Y-86923800D01*
X171327503Y-86884444D01*
X171500430Y-86807451D01*
X171653571Y-86696188D01*
X171780233Y-86555516D01*
X171874879Y-86391584D01*
X171933374Y-86211556D01*
X171951021Y-86043644D01*
X171977604Y-85979034D01*
X171986650Y-85968939D01*
X172666172Y-85289419D01*
X172727495Y-85255934D01*
X172753853Y-85253100D01*
X176759381Y-85253100D01*
X176767553Y-85253100D01*
X176790785Y-85255296D01*
G37*
%TD.AperFunction*%
%TA.AperFunction,Conductor*%
G36*
X194443039Y-86019685D02*
G01*
X194488794Y-86072489D01*
X194500000Y-86124000D01*
X194500000Y-88166787D01*
X194480315Y-88233826D01*
X194427511Y-88279581D01*
X194358353Y-88289525D01*
X194294797Y-88260500D01*
X194274425Y-88237911D01*
X194198109Y-88128922D01*
X194198108Y-88128920D01*
X194031082Y-87961894D01*
X193837578Y-87826399D01*
X193623492Y-87726570D01*
X193623486Y-87726567D01*
X193410000Y-87669364D01*
X193410000Y-88564498D01*
X193302315Y-88515320D01*
X193195763Y-88500000D01*
X193124237Y-88500000D01*
X193017685Y-88515320D01*
X192910000Y-88564498D01*
X192910000Y-87669364D01*
X192909999Y-87669364D01*
X192696513Y-87726567D01*
X192696507Y-87726570D01*
X192482422Y-87826399D01*
X192482420Y-87826400D01*
X192288926Y-87961886D01*
X192288920Y-87961891D01*
X192121891Y-88128920D01*
X192121890Y-88128922D01*
X191991880Y-88314595D01*
X191937303Y-88358219D01*
X191867804Y-88365412D01*
X191805450Y-88333890D01*
X191788730Y-88314594D01*
X191658494Y-88128597D01*
X191491402Y-87961506D01*
X191491401Y-87961505D01*
X191297830Y-87825965D01*
X191295595Y-87824400D01*
X191251971Y-87769823D01*
X191243945Y-87732176D01*
X191243931Y-87732179D01*
X191243889Y-87731913D01*
X191242780Y-87726712D01*
X191242776Y-87726570D01*
X191242710Y-87724473D01*
X191237119Y-87705230D01*
X191233173Y-87686178D01*
X191230664Y-87666308D01*
X191213504Y-87622967D01*
X191211624Y-87617479D01*
X191198618Y-87572710D01*
X191188422Y-87555469D01*
X191179861Y-87537994D01*
X191172487Y-87519370D01*
X191172485Y-87519367D01*
X191145079Y-87481645D01*
X191141888Y-87476786D01*
X191118172Y-87436683D01*
X191118165Y-87436674D01*
X191104006Y-87422515D01*
X191091368Y-87407719D01*
X191084586Y-87398384D01*
X191079594Y-87391513D01*
X191079554Y-87391480D01*
X191043688Y-87361809D01*
X191039376Y-87357886D01*
X190449619Y-86768128D01*
X190416134Y-86706805D01*
X190413300Y-86680447D01*
X190413300Y-86124000D01*
X190432985Y-86056961D01*
X190485789Y-86011206D01*
X190537300Y-86000000D01*
X194376000Y-86000000D01*
X194443039Y-86019685D01*
G37*
%TD.AperFunction*%
%TA.AperFunction,Conductor*%
G36*
X187367693Y-74862671D02*
G01*
X187425742Y-74901558D01*
X187453552Y-74965655D01*
X187454500Y-74980962D01*
X187454500Y-87724773D01*
X187434815Y-87791812D01*
X187401623Y-87826348D01*
X187208597Y-87961505D01*
X187041505Y-88128597D01*
X186911575Y-88314158D01*
X186856998Y-88357783D01*
X186787500Y-88364977D01*
X186725145Y-88333454D01*
X186708425Y-88314158D01*
X186578494Y-88128597D01*
X186411402Y-87961506D01*
X186411395Y-87961501D01*
X186217834Y-87825967D01*
X186217830Y-87825965D01*
X186214474Y-87824400D01*
X186003663Y-87726097D01*
X186003659Y-87726096D01*
X186003655Y-87726094D01*
X185775413Y-87664938D01*
X185775403Y-87664936D01*
X185540001Y-87644341D01*
X185539999Y-87644341D01*
X185304596Y-87664936D01*
X185304586Y-87664938D01*
X185076344Y-87726094D01*
X185076335Y-87726098D01*
X184862171Y-87825964D01*
X184862169Y-87825965D01*
X184668597Y-87961505D01*
X184501505Y-88128597D01*
X184371575Y-88314158D01*
X184316998Y-88357783D01*
X184247500Y-88364977D01*
X184185145Y-88333454D01*
X184168425Y-88314158D01*
X184038494Y-88128597D01*
X183871402Y-87961506D01*
X183871395Y-87961501D01*
X183677834Y-87825967D01*
X183677830Y-87825965D01*
X183674474Y-87824400D01*
X183463663Y-87726097D01*
X183463659Y-87726096D01*
X183463655Y-87726094D01*
X183235413Y-87664938D01*
X183235403Y-87664936D01*
X183000001Y-87644341D01*
X182999999Y-87644341D01*
X182764596Y-87664936D01*
X182764586Y-87664938D01*
X182536344Y-87726094D01*
X182536335Y-87726098D01*
X182322171Y-87825964D01*
X182322169Y-87825965D01*
X182128597Y-87961505D01*
X181961505Y-88128597D01*
X181831575Y-88314158D01*
X181776998Y-88357783D01*
X181707500Y-88364977D01*
X181645145Y-88333454D01*
X181628425Y-88314158D01*
X181498494Y-88128597D01*
X181331402Y-87961506D01*
X181331396Y-87961501D01*
X181135595Y-87824400D01*
X181091970Y-87769823D01*
X181083945Y-87732180D01*
X181083931Y-87732183D01*
X181083888Y-87731916D01*
X181082779Y-87726711D01*
X181082775Y-87726570D01*
X181082709Y-87724472D01*
X181077120Y-87705237D01*
X181073174Y-87686184D01*
X181073172Y-87686169D01*
X181070664Y-87666308D01*
X181053501Y-87622959D01*
X181051614Y-87617446D01*
X181038617Y-87572710D01*
X181038616Y-87572708D01*
X181028421Y-87555469D01*
X181019860Y-87537993D01*
X181014914Y-87525500D01*
X181012486Y-87519368D01*
X181012486Y-87519367D01*
X180998414Y-87500000D01*
X180985083Y-87481650D01*
X180981900Y-87476805D01*
X180958170Y-87436679D01*
X180958165Y-87436673D01*
X180944005Y-87422513D01*
X180931370Y-87407720D01*
X180919593Y-87391512D01*
X180883693Y-87361813D01*
X180879381Y-87357890D01*
X177765303Y-84243812D01*
X177755480Y-84231550D01*
X177755259Y-84231734D01*
X177750286Y-84225723D01*
X177699864Y-84178373D01*
X177685239Y-84163748D01*
X177678975Y-84157483D01*
X177673486Y-84153225D01*
X177669061Y-84149447D01*
X177635082Y-84117538D01*
X177635080Y-84117536D01*
X177635077Y-84117535D01*
X177617529Y-84107888D01*
X177601263Y-84097204D01*
X177585432Y-84084924D01*
X177542669Y-84066418D01*
X177537423Y-84063849D01*
X177528166Y-84058760D01*
X177478900Y-84009215D01*
X177463900Y-83950096D01*
X177463900Y-79867952D01*
X177483585Y-79800913D01*
X177536389Y-79755158D01*
X177605547Y-79745214D01*
X177669103Y-79774239D01*
X177675581Y-79780271D01*
X179423181Y-81527871D01*
X179456666Y-81589194D01*
X179459500Y-81615552D01*
X179459500Y-81622255D01*
X179457775Y-81637872D01*
X179458061Y-81637899D01*
X179457326Y-81645665D01*
X179459500Y-81714814D01*
X179459500Y-81744343D01*
X179459501Y-81744360D01*
X179460368Y-81751231D01*
X179460826Y-81757050D01*
X179462290Y-81803624D01*
X179462291Y-81803627D01*
X179467880Y-81822867D01*
X179471824Y-81841911D01*
X179474336Y-81861792D01*
X179476879Y-81868215D01*
X179491490Y-81905119D01*
X179493382Y-81910647D01*
X179506382Y-81955390D01*
X179510335Y-81962075D01*
X179516580Y-81972634D01*
X179525138Y-81990103D01*
X179532514Y-82008732D01*
X179559898Y-82046423D01*
X179563106Y-82051307D01*
X179586827Y-82091416D01*
X179586833Y-82091424D01*
X179600990Y-82105580D01*
X179613628Y-82120376D01*
X179625405Y-82136586D01*
X179625406Y-82136587D01*
X179661309Y-82166288D01*
X179665620Y-82170210D01*
X180646391Y-83150982D01*
X180967397Y-83471988D01*
X180977222Y-83484251D01*
X180977443Y-83484069D01*
X180982414Y-83490078D01*
X181003243Y-83509637D01*
X181032835Y-83537426D01*
X181053729Y-83558320D01*
X181059211Y-83562573D01*
X181063643Y-83566357D01*
X181097618Y-83598262D01*
X181115176Y-83607914D01*
X181131435Y-83618595D01*
X181147264Y-83630873D01*
X181190038Y-83649382D01*
X181195256Y-83651938D01*
X181236108Y-83674397D01*
X181255516Y-83679380D01*
X181273917Y-83685680D01*
X181292304Y-83693637D01*
X181335688Y-83700508D01*
X181338319Y-83700925D01*
X181344039Y-83702109D01*
X181389181Y-83713700D01*
X181409216Y-83713700D01*
X181428614Y-83715226D01*
X181448394Y-83718359D01*
X181448395Y-83718360D01*
X181448395Y-83718359D01*
X181448396Y-83718360D01*
X181494784Y-83713975D01*
X181500622Y-83713700D01*
X182237357Y-83713700D01*
X182252977Y-83715424D01*
X182253004Y-83715139D01*
X182260760Y-83715871D01*
X182260767Y-83715873D01*
X182329914Y-83713700D01*
X182359450Y-83713700D01*
X182366328Y-83712830D01*
X182372141Y-83712372D01*
X182418727Y-83710909D01*
X182437969Y-83705317D01*
X182457012Y-83701374D01*
X182476892Y-83698864D01*
X182520222Y-83681707D01*
X182525746Y-83679817D01*
X182529496Y-83678727D01*
X182570490Y-83666818D01*
X182587729Y-83656622D01*
X182605203Y-83648062D01*
X182623827Y-83640688D01*
X182623827Y-83640687D01*
X182623832Y-83640686D01*
X182661549Y-83613282D01*
X182666405Y-83610092D01*
X182706520Y-83586370D01*
X182720689Y-83572199D01*
X182735479Y-83559568D01*
X182751687Y-83547794D01*
X182781399Y-83511876D01*
X182785312Y-83507576D01*
X183818243Y-82474645D01*
X183879565Y-82441162D01*
X183949257Y-82446146D01*
X184005190Y-82488018D01*
X184013310Y-82500328D01*
X184083565Y-82622014D01*
X184210229Y-82762688D01*
X184363365Y-82873948D01*
X184363370Y-82873951D01*
X184536292Y-82950942D01*
X184536297Y-82950944D01*
X184721454Y-82990300D01*
X184729678Y-82990300D01*
X184796717Y-83009985D01*
X184842472Y-83062789D01*
X184852416Y-83131947D01*
X184847609Y-83152617D01*
X184835026Y-83191344D01*
X184815240Y-83379600D01*
X184835026Y-83567856D01*
X184835027Y-83567859D01*
X184893518Y-83747877D01*
X184893521Y-83747884D01*
X184988167Y-83911816D01*
X185075866Y-84009215D01*
X185114829Y-84052488D01*
X185267965Y-84163748D01*
X185267970Y-84163751D01*
X185440892Y-84240742D01*
X185440897Y-84240744D01*
X185626054Y-84280100D01*
X185626055Y-84280100D01*
X185815344Y-84280100D01*
X185815346Y-84280100D01*
X186000503Y-84240744D01*
X186173430Y-84163751D01*
X186326571Y-84052488D01*
X186453233Y-83911816D01*
X186547879Y-83747884D01*
X186606374Y-83567856D01*
X186626160Y-83379600D01*
X186606374Y-83191344D01*
X186547879Y-83011316D01*
X186453233Y-82847384D01*
X186378050Y-82763884D01*
X186347820Y-82700892D01*
X186346200Y-82680912D01*
X186346200Y-75270518D01*
X186365885Y-75203479D01*
X186418689Y-75157724D01*
X186487847Y-75147780D01*
X186495952Y-75149222D01*
X186513254Y-75152900D01*
X186513258Y-75152900D01*
X186702544Y-75152900D01*
X186702546Y-75152900D01*
X186887703Y-75113544D01*
X187060630Y-75036551D01*
X187213771Y-74925288D01*
X187238350Y-74897989D01*
X187297836Y-74861341D01*
X187367693Y-74862671D01*
G37*
%TD.AperFunction*%
%TA.AperFunction,Conductor*%
G36*
X186394855Y-63166546D02*
G01*
X186411575Y-63185842D01*
X186541281Y-63371082D01*
X186541505Y-63371401D01*
X186708599Y-63538495D01*
X186902170Y-63674035D01*
X186902175Y-63674037D01*
X186904404Y-63675598D01*
X186948029Y-63730174D01*
X186956057Y-63767822D01*
X186956070Y-63767821D01*
X186956107Y-63768058D01*
X186957220Y-63773275D01*
X186957290Y-63775524D01*
X186957291Y-63775527D01*
X186962880Y-63794767D01*
X186966824Y-63813811D01*
X186969336Y-63833692D01*
X186974218Y-63846022D01*
X186986490Y-63877019D01*
X186988382Y-63882547D01*
X187001381Y-63927288D01*
X187011580Y-63944534D01*
X187020138Y-63962003D01*
X187027514Y-63980632D01*
X187054898Y-64018323D01*
X187058106Y-64023207D01*
X187081827Y-64063316D01*
X187081833Y-64063324D01*
X187095990Y-64077480D01*
X187108628Y-64092276D01*
X187120405Y-64108486D01*
X187120406Y-64108487D01*
X187156309Y-64138188D01*
X187160620Y-64142110D01*
X188145456Y-65126946D01*
X189125981Y-66107471D01*
X189159466Y-66168794D01*
X189162300Y-66195152D01*
X189162300Y-86908155D01*
X189160575Y-86923772D01*
X189160861Y-86923799D01*
X189160126Y-86931565D01*
X189162300Y-87000714D01*
X189162300Y-87030243D01*
X189162301Y-87030260D01*
X189163168Y-87037131D01*
X189163626Y-87042950D01*
X189165090Y-87089524D01*
X189165091Y-87089527D01*
X189170680Y-87108767D01*
X189174624Y-87127811D01*
X189176979Y-87146447D01*
X189177136Y-87147691D01*
X189194290Y-87191019D01*
X189196182Y-87196547D01*
X189209181Y-87241288D01*
X189219380Y-87258534D01*
X189227936Y-87276000D01*
X189230354Y-87282105D01*
X189235314Y-87294632D01*
X189262698Y-87332323D01*
X189265906Y-87337207D01*
X189289627Y-87377316D01*
X189289633Y-87377324D01*
X189303790Y-87391480D01*
X189316428Y-87406276D01*
X189328205Y-87422486D01*
X189328206Y-87422487D01*
X189364109Y-87452188D01*
X189368420Y-87456110D01*
X189550604Y-87638294D01*
X189723525Y-87811215D01*
X189757010Y-87872538D01*
X189752026Y-87942230D01*
X189723526Y-87986577D01*
X189581503Y-88128600D01*
X189451575Y-88314158D01*
X189396998Y-88357783D01*
X189327500Y-88364977D01*
X189265145Y-88333454D01*
X189248425Y-88314158D01*
X189118494Y-88128597D01*
X188951402Y-87961506D01*
X188951401Y-87961505D01*
X188760224Y-87827641D01*
X188758376Y-87826347D01*
X188714751Y-87771770D01*
X188705500Y-87724772D01*
X188705500Y-67795149D01*
X188725185Y-67728110D01*
X188729184Y-67722261D01*
X188731029Y-67719720D01*
X188731033Y-67719716D01*
X188825679Y-67555784D01*
X188884174Y-67375756D01*
X188903960Y-67187500D01*
X188884174Y-66999244D01*
X188825679Y-66819216D01*
X188731033Y-66655284D01*
X188604371Y-66514612D01*
X188599032Y-66510733D01*
X188451234Y-66403351D01*
X188451229Y-66403348D01*
X188278307Y-66326357D01*
X188278302Y-66326355D01*
X188132501Y-66295365D01*
X188093146Y-66287000D01*
X187903854Y-66287000D01*
X187871397Y-66293898D01*
X187718697Y-66326355D01*
X187718692Y-66326357D01*
X187545770Y-66403348D01*
X187545765Y-66403351D01*
X187430285Y-66487253D01*
X187364479Y-66510733D01*
X187296425Y-66494907D01*
X187247730Y-66444802D01*
X187233400Y-66386935D01*
X187233400Y-65327537D01*
X187235124Y-65311923D01*
X187234838Y-65311896D01*
X187235572Y-65304133D01*
X187233400Y-65235002D01*
X187233400Y-65205451D01*
X187233400Y-65205450D01*
X187232529Y-65198559D01*
X187232072Y-65192745D01*
X187230609Y-65146174D01*
X187230609Y-65146172D01*
X187225020Y-65126937D01*
X187221074Y-65107884D01*
X187218564Y-65088008D01*
X187201401Y-65044659D01*
X187199514Y-65039146D01*
X187186517Y-64994410D01*
X187186516Y-64994408D01*
X187176321Y-64977169D01*
X187167760Y-64959693D01*
X187160386Y-64941069D01*
X187160386Y-64941067D01*
X187150374Y-64927288D01*
X187132983Y-64903350D01*
X187129800Y-64898505D01*
X187106070Y-64858379D01*
X187106065Y-64858373D01*
X187091905Y-64844213D01*
X187079270Y-64829420D01*
X187067493Y-64813212D01*
X187031593Y-64783513D01*
X187027281Y-64779590D01*
X185936474Y-63688783D01*
X185902989Y-63627460D01*
X185907973Y-63557768D01*
X185936470Y-63513425D01*
X186078495Y-63371401D01*
X186208425Y-63185842D01*
X186263002Y-63142217D01*
X186332500Y-63135023D01*
X186394855Y-63166546D01*
G37*
%TD.AperFunction*%
%TA.AperFunction,Conductor*%
G36*
X176155939Y-80631585D02*
G01*
X176201694Y-80684389D01*
X176212900Y-80735900D01*
X176212900Y-83878100D01*
X176193215Y-83945139D01*
X176140411Y-83990894D01*
X176088900Y-84002100D01*
X172933952Y-84002100D01*
X172866913Y-83982415D01*
X172821158Y-83929611D01*
X172811214Y-83860453D01*
X172840239Y-83796897D01*
X172846271Y-83790419D01*
X175988471Y-80648219D01*
X176049794Y-80614734D01*
X176076152Y-80611900D01*
X176088900Y-80611900D01*
X176155939Y-80631585D01*
G37*
%TD.AperFunction*%
%TA.AperFunction,Conductor*%
G36*
X174268454Y-78330085D02*
G01*
X174314209Y-78382889D01*
X174324153Y-78452047D01*
X174319346Y-78472718D01*
X174276067Y-78605917D01*
X174273426Y-78614044D01*
X174265505Y-78689405D01*
X174255778Y-78781951D01*
X174229193Y-78846566D01*
X174220138Y-78856670D01*
X171295681Y-81781128D01*
X171234358Y-81814613D01*
X171164666Y-81809629D01*
X171108733Y-81767757D01*
X171084316Y-81702293D01*
X171084000Y-81693447D01*
X171084000Y-78434400D01*
X171103685Y-78367361D01*
X171156489Y-78321606D01*
X171208000Y-78310400D01*
X174201415Y-78310400D01*
X174268454Y-78330085D01*
G37*
%TD.AperFunction*%
%TA.AperFunction,Conductor*%
G36*
X163288834Y-62714268D02*
G01*
X163344767Y-62756140D01*
X163369184Y-62821604D01*
X163369500Y-62830450D01*
X163369500Y-63397870D01*
X163369501Y-63397876D01*
X163375908Y-63457483D01*
X163426202Y-63592328D01*
X163426206Y-63592335D01*
X163512452Y-63707544D01*
X163512455Y-63707547D01*
X163627664Y-63793793D01*
X163627671Y-63793797D01*
X163762517Y-63844091D01*
X163762516Y-63844091D01*
X163769444Y-63844835D01*
X163822127Y-63850500D01*
X165617872Y-63850499D01*
X165677483Y-63844091D01*
X165748718Y-63817521D01*
X165818408Y-63812537D01*
X165879731Y-63846021D01*
X165879732Y-63846022D01*
X175694038Y-73660329D01*
X175727523Y-73721652D01*
X175729678Y-73735048D01*
X175732602Y-73762865D01*
X175747326Y-73902956D01*
X175747327Y-73902959D01*
X175805818Y-74082977D01*
X175805821Y-74082984D01*
X175900467Y-74246916D01*
X175984691Y-74340456D01*
X176027129Y-74387588D01*
X176180265Y-74498848D01*
X176180270Y-74498851D01*
X176353192Y-74575842D01*
X176353197Y-74575844D01*
X176538354Y-74615200D01*
X176538355Y-74615200D01*
X176727644Y-74615200D01*
X176727646Y-74615200D01*
X176912803Y-74575844D01*
X177085730Y-74498851D01*
X177085738Y-74498844D01*
X177088829Y-74497061D01*
X177090853Y-74496569D01*
X177091666Y-74496208D01*
X177091732Y-74496356D01*
X177156728Y-74480585D01*
X177222756Y-74503434D01*
X177265949Y-74558353D01*
X177274155Y-74591483D01*
X177284326Y-74688256D01*
X177284327Y-74688259D01*
X177342818Y-74868277D01*
X177342821Y-74868284D01*
X177437467Y-75032216D01*
X177546132Y-75152900D01*
X177564129Y-75172888D01*
X177717265Y-75284148D01*
X177717270Y-75284151D01*
X177890192Y-75361142D01*
X177890197Y-75361144D01*
X178075354Y-75400500D01*
X178075355Y-75400500D01*
X178264644Y-75400500D01*
X178264646Y-75400500D01*
X178449803Y-75361144D01*
X178622730Y-75284151D01*
X178775871Y-75172888D01*
X178902533Y-75032216D01*
X178997179Y-74868284D01*
X179055674Y-74688256D01*
X179075460Y-74500000D01*
X179055674Y-74311744D01*
X178997179Y-74131716D01*
X178958522Y-74064761D01*
X178942050Y-73996862D01*
X178964903Y-73930835D01*
X179019824Y-73887644D01*
X179089377Y-73881003D01*
X179151480Y-73913019D01*
X179153591Y-73915081D01*
X180542381Y-75303871D01*
X180575866Y-75365194D01*
X180578700Y-75391552D01*
X180578700Y-76037412D01*
X180559015Y-76104451D01*
X180546850Y-76120384D01*
X180471666Y-76203884D01*
X180377021Y-76367815D01*
X180377018Y-76367822D01*
X180318527Y-76547840D01*
X180318526Y-76547844D01*
X180301167Y-76713009D01*
X180299186Y-76731861D01*
X180272602Y-76796476D01*
X180215304Y-76836461D01*
X180175865Y-76842900D01*
X178956452Y-76842900D01*
X178889413Y-76823215D01*
X178868771Y-76806581D01*
X178733636Y-76671446D01*
X178577003Y-76514812D01*
X178567180Y-76502550D01*
X178566959Y-76502734D01*
X178561986Y-76496723D01*
X178543356Y-76479228D01*
X178511564Y-76449373D01*
X178501119Y-76438928D01*
X178490675Y-76428483D01*
X178485186Y-76424225D01*
X178480761Y-76420447D01*
X178446782Y-76388538D01*
X178446780Y-76388536D01*
X178446777Y-76388535D01*
X178429229Y-76378888D01*
X178412963Y-76368204D01*
X178397133Y-76355925D01*
X178354368Y-76337418D01*
X178349122Y-76334848D01*
X178308293Y-76312403D01*
X178308292Y-76312402D01*
X178288893Y-76307422D01*
X178270481Y-76301118D01*
X178252098Y-76293162D01*
X178252092Y-76293160D01*
X178206074Y-76285872D01*
X178200352Y-76284687D01*
X178155221Y-76273100D01*
X178155219Y-76273100D01*
X178135184Y-76273100D01*
X178115786Y-76271573D01*
X178108362Y-76270397D01*
X178096005Y-76268440D01*
X178096004Y-76268440D01*
X178049616Y-76272825D01*
X178043778Y-76273100D01*
X169684143Y-76273100D01*
X169668522Y-76271375D01*
X169668496Y-76271661D01*
X169660734Y-76270927D01*
X169660733Y-76270927D01*
X169591586Y-76273100D01*
X169562049Y-76273100D01*
X169555166Y-76273969D01*
X169549349Y-76274426D01*
X169502773Y-76275890D01*
X169483529Y-76281481D01*
X169464479Y-76285425D01*
X169444611Y-76287934D01*
X169401284Y-76305088D01*
X169395758Y-76306979D01*
X169351014Y-76319979D01*
X169351010Y-76319981D01*
X169333766Y-76330179D01*
X169316305Y-76338733D01*
X169297674Y-76346110D01*
X169297662Y-76346117D01*
X169259970Y-76373502D01*
X169255087Y-76376709D01*
X169214980Y-76400429D01*
X169200815Y-76414594D01*
X169186023Y-76427228D01*
X169169812Y-76439005D01*
X169140110Y-76474908D01*
X169136178Y-76479228D01*
X169034511Y-76580897D01*
X168981417Y-76612294D01*
X168962530Y-76617780D01*
X168943491Y-76621723D01*
X168923621Y-76624234D01*
X168923607Y-76624237D01*
X168880287Y-76641388D01*
X168874762Y-76643280D01*
X168830017Y-76656280D01*
X168830014Y-76656281D01*
X168812770Y-76666479D01*
X168795309Y-76675033D01*
X168776678Y-76682410D01*
X168776666Y-76682417D01*
X168738974Y-76709802D01*
X168734091Y-76713009D01*
X168693984Y-76736729D01*
X168679818Y-76750895D01*
X168665028Y-76763527D01*
X168648818Y-76775304D01*
X168648815Y-76775307D01*
X168619114Y-76811209D01*
X168615181Y-76815531D01*
X165087732Y-80342981D01*
X165026409Y-80376466D01*
X165000051Y-80379300D01*
X160308158Y-80379300D01*
X160241119Y-80359615D01*
X160195364Y-80306811D01*
X160185420Y-80237653D01*
X160195776Y-80202895D01*
X160226739Y-80136496D01*
X160285635Y-79916692D01*
X160305468Y-79690000D01*
X160285635Y-79463308D01*
X160226739Y-79243504D01*
X160130568Y-79037266D01*
X160032839Y-78897693D01*
X160000045Y-78850858D01*
X159886119Y-78736932D01*
X159852634Y-78675609D01*
X159857618Y-78605917D01*
X159886117Y-78561572D01*
X160503988Y-77943701D01*
X160516242Y-77933886D01*
X160516059Y-77933664D01*
X160522066Y-77928692D01*
X160522077Y-77928686D01*
X160552975Y-77895782D01*
X160569427Y-77878264D01*
X160579871Y-77867818D01*
X160590320Y-77857371D01*
X160594579Y-77851878D01*
X160598352Y-77847461D01*
X160630262Y-77813482D01*
X160639915Y-77795920D01*
X160650589Y-77779670D01*
X160662873Y-77763836D01*
X160681380Y-77721067D01*
X160683949Y-77715824D01*
X160706396Y-77674993D01*
X160706397Y-77674992D01*
X160711377Y-77655591D01*
X160717678Y-77637188D01*
X160725638Y-77618796D01*
X160732930Y-77572749D01*
X160734111Y-77567052D01*
X160735973Y-77559800D01*
X160745700Y-77521919D01*
X160745700Y-77501883D01*
X160747227Y-77482482D01*
X160750360Y-77462704D01*
X160745975Y-77416315D01*
X160745700Y-77410477D01*
X160745700Y-75274987D01*
X160765385Y-75207948D01*
X160777550Y-75192015D01*
X160817379Y-75147780D01*
X160852733Y-75108516D01*
X160947379Y-74944584D01*
X161005874Y-74764556D01*
X161025660Y-74576300D01*
X161005874Y-74388044D01*
X160947379Y-74208016D01*
X160852733Y-74044084D01*
X160726071Y-73903412D01*
X160726070Y-73903411D01*
X160572934Y-73792151D01*
X160572929Y-73792148D01*
X160400007Y-73715157D01*
X160400002Y-73715155D01*
X160252069Y-73683712D01*
X160214846Y-73675800D01*
X160025554Y-73675800D01*
X159993097Y-73682698D01*
X159840397Y-73715155D01*
X159840392Y-73715157D01*
X159667470Y-73792148D01*
X159667465Y-73792151D01*
X159514329Y-73903411D01*
X159387666Y-74044085D01*
X159293021Y-74208015D01*
X159293018Y-74208022D01*
X159234674Y-74387588D01*
X159234526Y-74388044D01*
X159214740Y-74576300D01*
X159234526Y-74764556D01*
X159234527Y-74764559D01*
X159293018Y-74944577D01*
X159293021Y-74944584D01*
X159387667Y-75108516D01*
X159423021Y-75147780D01*
X159462850Y-75192015D01*
X159493080Y-75255006D01*
X159494700Y-75274987D01*
X159494700Y-77132446D01*
X159475015Y-77199485D01*
X159458381Y-77220127D01*
X158616208Y-78062299D01*
X158603951Y-78072120D01*
X158604134Y-78072341D01*
X158598123Y-78077313D01*
X158550772Y-78127736D01*
X158529889Y-78148619D01*
X158529877Y-78148632D01*
X158525621Y-78154117D01*
X158521837Y-78158547D01*
X158489937Y-78192518D01*
X158489936Y-78192520D01*
X158480284Y-78210076D01*
X158469610Y-78226326D01*
X158457329Y-78242161D01*
X158457324Y-78242168D01*
X158438815Y-78284938D01*
X158436245Y-78290184D01*
X158413803Y-78331006D01*
X158408822Y-78350407D01*
X158402521Y-78368810D01*
X158394562Y-78387202D01*
X158394561Y-78387205D01*
X158387271Y-78433227D01*
X158386087Y-78438946D01*
X158374500Y-78484077D01*
X158373586Y-78491311D01*
X158345652Y-78555354D01*
X158321687Y-78577341D01*
X158160859Y-78689953D01*
X157999954Y-78850858D01*
X157869432Y-79037265D01*
X157869431Y-79037267D01*
X157773261Y-79243502D01*
X157773258Y-79243511D01*
X157714366Y-79463302D01*
X157714364Y-79463313D01*
X157694532Y-79689998D01*
X157694532Y-79690001D01*
X157714364Y-79916686D01*
X157714366Y-79916697D01*
X157773258Y-80136488D01*
X157773261Y-80136497D01*
X157804224Y-80202895D01*
X157814716Y-80271972D01*
X157786197Y-80335756D01*
X157727720Y-80373996D01*
X157691842Y-80379300D01*
X155425748Y-80379300D01*
X155358709Y-80359615D01*
X155333600Y-80338274D01*
X155327873Y-80331914D01*
X155327869Y-80331910D01*
X155174734Y-80220651D01*
X155174729Y-80220648D01*
X155001807Y-80143657D01*
X155001802Y-80143655D01*
X154856001Y-80112665D01*
X154816646Y-80104300D01*
X154627354Y-80104300D01*
X154594897Y-80111198D01*
X154442197Y-80143655D01*
X154442192Y-80143657D01*
X154269270Y-80220648D01*
X154269265Y-80220651D01*
X154116135Y-80331906D01*
X154116130Y-80331910D01*
X154103908Y-80345484D01*
X154044419Y-80382130D01*
X153974562Y-80380797D01*
X153924080Y-80350189D01*
X151974447Y-78400556D01*
X151940962Y-78339233D01*
X151945946Y-78269541D01*
X151969974Y-78229907D01*
X152094133Y-78092016D01*
X152188779Y-77928084D01*
X152247274Y-77748056D01*
X152267060Y-77559800D01*
X152247274Y-77371544D01*
X152188779Y-77191516D01*
X152094133Y-77027584D01*
X152018950Y-76944084D01*
X151988720Y-76881092D01*
X151987100Y-76861112D01*
X151987100Y-73964851D01*
X152006785Y-73897812D01*
X152023414Y-73877175D01*
X163157821Y-62742767D01*
X163219142Y-62709284D01*
X163288834Y-62714268D01*
G37*
%TD.AperFunction*%
%TA.AperFunction,Conductor*%
G36*
X172590000Y-63830633D02*
G01*
X172803483Y-63773433D01*
X172803492Y-63773429D01*
X173017578Y-63673600D01*
X173211082Y-63538105D01*
X173378105Y-63371082D01*
X173508119Y-63185405D01*
X173562696Y-63141781D01*
X173632195Y-63134588D01*
X173694549Y-63166110D01*
X173711269Y-63185405D01*
X173841505Y-63371401D01*
X174008599Y-63538495D01*
X174105384Y-63606265D01*
X174202165Y-63674032D01*
X174202167Y-63674033D01*
X174202170Y-63674035D01*
X174416337Y-63773903D01*
X174416343Y-63773904D01*
X174416344Y-63773905D01*
X174422398Y-63775527D01*
X174644592Y-63835063D01*
X174821034Y-63850500D01*
X174879999Y-63855659D01*
X174880000Y-63855659D01*
X174880001Y-63855659D01*
X174938966Y-63850500D01*
X175115408Y-63835063D01*
X175343663Y-63773903D01*
X175557830Y-63674035D01*
X175751401Y-63538495D01*
X175918495Y-63371401D01*
X176048425Y-63185842D01*
X176103002Y-63142217D01*
X176172500Y-63135023D01*
X176234855Y-63166546D01*
X176251575Y-63185842D01*
X176381281Y-63371082D01*
X176381505Y-63371401D01*
X176548599Y-63538495D01*
X176742170Y-63674035D01*
X176742175Y-63674037D01*
X176744404Y-63675598D01*
X176788029Y-63730174D01*
X176796057Y-63767822D01*
X176796070Y-63767821D01*
X176796107Y-63768058D01*
X176797220Y-63773275D01*
X176797290Y-63775524D01*
X176797291Y-63775527D01*
X176802880Y-63794767D01*
X176806824Y-63813811D01*
X176809336Y-63833692D01*
X176814218Y-63846022D01*
X176826490Y-63877019D01*
X176828382Y-63882547D01*
X176841381Y-63927288D01*
X176851580Y-63944534D01*
X176860138Y-63962003D01*
X176867514Y-63980632D01*
X176894898Y-64018323D01*
X176898106Y-64023207D01*
X176921827Y-64063316D01*
X176921833Y-64063324D01*
X176935990Y-64077480D01*
X176948628Y-64092276D01*
X176960405Y-64108486D01*
X176960406Y-64108487D01*
X176996309Y-64138188D01*
X177000620Y-64142110D01*
X179184865Y-66326355D01*
X181305981Y-68447471D01*
X181339466Y-68508794D01*
X181342300Y-68535152D01*
X181342300Y-74035247D01*
X181322615Y-74102286D01*
X181269811Y-74148041D01*
X181200653Y-74157985D01*
X181137097Y-74128960D01*
X181130619Y-74122928D01*
X170696474Y-63688783D01*
X170662989Y-63627460D01*
X170667973Y-63557768D01*
X170696470Y-63513425D01*
X170838495Y-63371401D01*
X170968730Y-63185405D01*
X171023307Y-63141781D01*
X171092805Y-63134587D01*
X171155160Y-63166110D01*
X171171879Y-63185405D01*
X171301890Y-63371078D01*
X171468917Y-63538105D01*
X171662421Y-63673600D01*
X171876507Y-63773429D01*
X171876516Y-63773433D01*
X172090000Y-63830634D01*
X172090000Y-62935501D01*
X172197685Y-62984680D01*
X172304237Y-63000000D01*
X172375763Y-63000000D01*
X172482315Y-62984680D01*
X172590000Y-62935501D01*
X172590000Y-63830633D01*
G37*
%TD.AperFunction*%
%TA.AperFunction,Conductor*%
G36*
X168614854Y-63166545D02*
G01*
X168631572Y-63185838D01*
X168761505Y-63371401D01*
X168928599Y-63538495D01*
X169122170Y-63674035D01*
X169122175Y-63674037D01*
X169124404Y-63675598D01*
X169168029Y-63730174D01*
X169176057Y-63767822D01*
X169176070Y-63767821D01*
X169176107Y-63768058D01*
X169177220Y-63773275D01*
X169177290Y-63775524D01*
X169177291Y-63775527D01*
X169182880Y-63794767D01*
X169186824Y-63813811D01*
X169189336Y-63833692D01*
X169194218Y-63846022D01*
X169206490Y-63877019D01*
X169208382Y-63882547D01*
X169221381Y-63927288D01*
X169231580Y-63944534D01*
X169240138Y-63962003D01*
X169247514Y-63980632D01*
X169274898Y-64018323D01*
X169278106Y-64023207D01*
X169301827Y-64063316D01*
X169301833Y-64063324D01*
X169315990Y-64077480D01*
X169328628Y-64092276D01*
X169340405Y-64108486D01*
X169340406Y-64108487D01*
X169376309Y-64138188D01*
X169380620Y-64142110D01*
X174081962Y-68843452D01*
X178747420Y-73508910D01*
X178780905Y-73570233D01*
X178775921Y-73639925D01*
X178734049Y-73695858D01*
X178668585Y-73720275D01*
X178609304Y-73709871D01*
X178554728Y-73685572D01*
X178550549Y-73683711D01*
X178513304Y-73658113D01*
X168342455Y-63487264D01*
X168308970Y-63425941D01*
X168313954Y-63356249D01*
X168328553Y-63328472D01*
X168428429Y-63185835D01*
X168483001Y-63142216D01*
X168552500Y-63135023D01*
X168614854Y-63166545D01*
G37*
%TD.AperFunction*%
%TA.AperFunction,Conductor*%
G36*
X194443039Y-60519685D02*
G01*
X194488794Y-60572489D01*
X194500000Y-60624000D01*
X194500000Y-70876000D01*
X194480315Y-70943039D01*
X194427511Y-70988794D01*
X194376000Y-71000000D01*
X190537300Y-71000000D01*
X190470261Y-70980315D01*
X190424506Y-70927511D01*
X190413300Y-70876000D01*
X190413300Y-65967442D01*
X190415024Y-65951822D01*
X190414739Y-65951795D01*
X190415473Y-65944033D01*
X190413300Y-65874872D01*
X190413300Y-65845356D01*
X190413300Y-65845350D01*
X190412431Y-65838479D01*
X190411973Y-65832652D01*
X190410510Y-65786073D01*
X190404919Y-65766830D01*
X190400973Y-65747778D01*
X190398464Y-65727908D01*
X190381304Y-65684567D01*
X190379424Y-65679079D01*
X190366418Y-65634310D01*
X190356222Y-65617070D01*
X190347661Y-65599594D01*
X190340287Y-65580970D01*
X190340286Y-65580968D01*
X190312879Y-65543245D01*
X190309688Y-65538386D01*
X190285972Y-65498283D01*
X190285965Y-65498274D01*
X190271806Y-65484115D01*
X190259168Y-65469319D01*
X190257898Y-65467571D01*
X190247394Y-65453113D01*
X190211488Y-65423409D01*
X190207176Y-65419486D01*
X188476474Y-63688783D01*
X188442989Y-63627460D01*
X188447973Y-63557768D01*
X188476470Y-63513425D01*
X188618495Y-63371401D01*
X188748730Y-63185405D01*
X188803307Y-63141781D01*
X188872805Y-63134587D01*
X188935160Y-63166110D01*
X188951879Y-63185405D01*
X189081890Y-63371078D01*
X189248917Y-63538105D01*
X189442421Y-63673600D01*
X189656507Y-63773429D01*
X189656516Y-63773433D01*
X189870000Y-63830634D01*
X189870000Y-62935501D01*
X189977685Y-62984680D01*
X190084237Y-63000000D01*
X190155763Y-63000000D01*
X190262315Y-62984680D01*
X190370000Y-62935501D01*
X190370000Y-63830634D01*
X190583483Y-63773433D01*
X190583492Y-63773429D01*
X190797578Y-63673600D01*
X190991082Y-63538105D01*
X191158105Y-63371082D01*
X191288425Y-63184968D01*
X191343002Y-63141344D01*
X191412501Y-63134151D01*
X191474855Y-63165673D01*
X191491575Y-63184968D01*
X191621894Y-63371082D01*
X191788917Y-63538105D01*
X191982421Y-63673600D01*
X192196507Y-63773429D01*
X192196516Y-63773433D01*
X192410000Y-63830634D01*
X192410000Y-62935501D01*
X192517685Y-62984680D01*
X192624237Y-63000000D01*
X192695763Y-63000000D01*
X192802315Y-62984680D01*
X192910000Y-62935501D01*
X192910000Y-63830634D01*
X193123483Y-63773433D01*
X193123492Y-63773429D01*
X193337578Y-63673600D01*
X193531082Y-63538105D01*
X193698105Y-63371082D01*
X193833600Y-63177578D01*
X193933429Y-62963492D01*
X193933432Y-62963486D01*
X193990636Y-62750000D01*
X193093686Y-62750000D01*
X193119493Y-62709844D01*
X193160000Y-62571889D01*
X193160000Y-62428111D01*
X193119493Y-62290156D01*
X193093686Y-62250000D01*
X193990636Y-62250000D01*
X193990635Y-62249999D01*
X193933432Y-62036513D01*
X193933429Y-62036507D01*
X193833600Y-61822422D01*
X193833599Y-61822420D01*
X193698113Y-61628926D01*
X193698108Y-61628920D01*
X193531082Y-61461894D01*
X193337578Y-61326399D01*
X193123492Y-61226570D01*
X193123486Y-61226567D01*
X192910000Y-61169364D01*
X192910000Y-62064498D01*
X192802315Y-62015320D01*
X192695763Y-62000000D01*
X192624237Y-62000000D01*
X192517685Y-62015320D01*
X192410000Y-62064498D01*
X192410000Y-61169364D01*
X192409999Y-61169364D01*
X192196513Y-61226567D01*
X192196507Y-61226570D01*
X191982422Y-61326399D01*
X191982420Y-61326400D01*
X191788926Y-61461886D01*
X191788920Y-61461891D01*
X191621891Y-61628920D01*
X191621890Y-61628922D01*
X191491575Y-61815031D01*
X191436998Y-61858655D01*
X191367499Y-61865848D01*
X191305145Y-61834326D01*
X191288425Y-61815031D01*
X191158109Y-61628922D01*
X191158108Y-61628920D01*
X190991082Y-61461894D01*
X190797578Y-61326399D01*
X190583492Y-61226570D01*
X190583486Y-61226567D01*
X190370000Y-61169364D01*
X190370000Y-62064498D01*
X190262315Y-62015320D01*
X190155763Y-62000000D01*
X190084237Y-62000000D01*
X189977685Y-62015320D01*
X189870000Y-62064498D01*
X189870000Y-61169364D01*
X189869999Y-61169364D01*
X189656513Y-61226567D01*
X189656507Y-61226570D01*
X189442422Y-61326399D01*
X189442420Y-61326400D01*
X189248926Y-61461886D01*
X189248920Y-61461891D01*
X189081891Y-61628920D01*
X189081890Y-61628922D01*
X188951880Y-61814595D01*
X188897303Y-61858219D01*
X188827804Y-61865412D01*
X188765450Y-61833890D01*
X188748730Y-61814594D01*
X188618494Y-61628597D01*
X188451402Y-61461506D01*
X188451395Y-61461501D01*
X188257834Y-61325967D01*
X188257830Y-61325965D01*
X188257828Y-61325964D01*
X188043663Y-61226097D01*
X188043659Y-61226096D01*
X188043655Y-61226094D01*
X187815413Y-61164938D01*
X187815403Y-61164936D01*
X187580001Y-61144341D01*
X187579999Y-61144341D01*
X187344596Y-61164936D01*
X187344586Y-61164938D01*
X187116344Y-61226094D01*
X187116335Y-61226098D01*
X186902171Y-61325964D01*
X186902169Y-61325965D01*
X186708597Y-61461505D01*
X186541505Y-61628597D01*
X186411575Y-61814158D01*
X186356998Y-61857783D01*
X186287500Y-61864977D01*
X186225145Y-61833454D01*
X186208425Y-61814158D01*
X186078494Y-61628597D01*
X185911402Y-61461506D01*
X185911395Y-61461501D01*
X185717834Y-61325967D01*
X185717830Y-61325965D01*
X185717828Y-61325964D01*
X185503663Y-61226097D01*
X185503659Y-61226096D01*
X185503655Y-61226094D01*
X185275413Y-61164938D01*
X185275403Y-61164936D01*
X185040001Y-61144341D01*
X185039999Y-61144341D01*
X184804596Y-61164936D01*
X184804586Y-61164938D01*
X184576344Y-61226094D01*
X184576335Y-61226098D01*
X184362171Y-61325964D01*
X184362169Y-61325965D01*
X184168597Y-61461505D01*
X184001505Y-61628597D01*
X183871575Y-61814158D01*
X183816998Y-61857783D01*
X183747500Y-61864977D01*
X183685145Y-61833454D01*
X183668425Y-61814158D01*
X183538494Y-61628597D01*
X183371402Y-61461506D01*
X183371395Y-61461501D01*
X183177834Y-61325967D01*
X183177830Y-61325965D01*
X183177828Y-61325964D01*
X182963663Y-61226097D01*
X182963659Y-61226096D01*
X182963655Y-61226094D01*
X182735413Y-61164938D01*
X182735403Y-61164936D01*
X182500001Y-61144341D01*
X182499999Y-61144341D01*
X182264596Y-61164936D01*
X182264586Y-61164938D01*
X182036344Y-61226094D01*
X182036335Y-61226098D01*
X181822171Y-61325964D01*
X181822169Y-61325965D01*
X181628597Y-61461505D01*
X181461505Y-61628597D01*
X181331575Y-61814158D01*
X181276998Y-61857783D01*
X181207500Y-61864977D01*
X181145145Y-61833454D01*
X181128425Y-61814158D01*
X180998494Y-61628597D01*
X180831402Y-61461506D01*
X180831395Y-61461501D01*
X180637834Y-61325967D01*
X180637830Y-61325965D01*
X180637828Y-61325964D01*
X180423663Y-61226097D01*
X180423659Y-61226096D01*
X180423655Y-61226094D01*
X180195413Y-61164938D01*
X180195403Y-61164936D01*
X179960001Y-61144341D01*
X179959999Y-61144341D01*
X179724596Y-61164936D01*
X179724586Y-61164938D01*
X179496344Y-61226094D01*
X179496335Y-61226098D01*
X179282171Y-61325964D01*
X179282169Y-61325965D01*
X179088597Y-61461505D01*
X178921505Y-61628597D01*
X178791575Y-61814158D01*
X178736998Y-61857783D01*
X178667500Y-61864977D01*
X178605145Y-61833454D01*
X178588425Y-61814158D01*
X178458494Y-61628597D01*
X178291402Y-61461506D01*
X178291395Y-61461501D01*
X178097834Y-61325967D01*
X178097830Y-61325965D01*
X178097828Y-61325964D01*
X177883663Y-61226097D01*
X177883659Y-61226096D01*
X177883655Y-61226094D01*
X177655413Y-61164938D01*
X177655403Y-61164936D01*
X177420001Y-61144341D01*
X177419999Y-61144341D01*
X177184596Y-61164936D01*
X177184586Y-61164938D01*
X176956344Y-61226094D01*
X176956335Y-61226098D01*
X176742171Y-61325964D01*
X176742169Y-61325965D01*
X176548597Y-61461505D01*
X176381505Y-61628597D01*
X176251575Y-61814158D01*
X176196998Y-61857783D01*
X176127500Y-61864977D01*
X176065145Y-61833454D01*
X176048425Y-61814158D01*
X175918494Y-61628597D01*
X175751402Y-61461506D01*
X175751395Y-61461501D01*
X175557834Y-61325967D01*
X175557830Y-61325965D01*
X175557828Y-61325964D01*
X175343663Y-61226097D01*
X175343659Y-61226096D01*
X175343655Y-61226094D01*
X175115413Y-61164938D01*
X175115403Y-61164936D01*
X174880001Y-61144341D01*
X174879999Y-61144341D01*
X174644596Y-61164936D01*
X174644586Y-61164938D01*
X174416344Y-61226094D01*
X174416335Y-61226098D01*
X174202171Y-61325964D01*
X174202169Y-61325965D01*
X174008597Y-61461505D01*
X173841508Y-61628594D01*
X173711269Y-61814595D01*
X173656692Y-61858219D01*
X173587193Y-61865412D01*
X173524839Y-61833890D01*
X173508119Y-61814594D01*
X173378113Y-61628926D01*
X173378108Y-61628920D01*
X173211082Y-61461894D01*
X173017578Y-61326399D01*
X172803492Y-61226570D01*
X172803486Y-61226567D01*
X172590000Y-61169364D01*
X172590000Y-62064498D01*
X172482315Y-62015320D01*
X172375763Y-62000000D01*
X172304237Y-62000000D01*
X172197685Y-62015320D01*
X172090000Y-62064498D01*
X172090000Y-61169364D01*
X172089999Y-61169364D01*
X171876513Y-61226567D01*
X171876507Y-61226570D01*
X171662422Y-61326399D01*
X171662420Y-61326400D01*
X171468926Y-61461886D01*
X171468920Y-61461891D01*
X171301891Y-61628920D01*
X171301890Y-61628922D01*
X171171880Y-61814595D01*
X171117303Y-61858219D01*
X171047804Y-61865412D01*
X170985450Y-61833890D01*
X170968730Y-61814594D01*
X170838494Y-61628597D01*
X170671402Y-61461506D01*
X170671395Y-61461501D01*
X170477834Y-61325967D01*
X170477830Y-61325965D01*
X170477828Y-61325964D01*
X170263663Y-61226097D01*
X170263659Y-61226096D01*
X170263655Y-61226094D01*
X170035413Y-61164938D01*
X170035403Y-61164936D01*
X169800001Y-61144341D01*
X169799999Y-61144341D01*
X169564596Y-61164936D01*
X169564586Y-61164938D01*
X169336344Y-61226094D01*
X169336335Y-61226098D01*
X169122171Y-61325964D01*
X169122169Y-61325965D01*
X168958775Y-61440374D01*
X168892568Y-61462701D01*
X168824801Y-61445690D01*
X168799971Y-61426480D01*
X168311603Y-60938112D01*
X168301780Y-60925850D01*
X168301559Y-60926034D01*
X168296586Y-60920023D01*
X168277959Y-60902531D01*
X168246164Y-60872673D01*
X168235719Y-60862228D01*
X168225275Y-60851783D01*
X168219786Y-60847525D01*
X168215361Y-60843747D01*
X168181382Y-60811838D01*
X168181380Y-60811836D01*
X168181377Y-60811835D01*
X168163829Y-60802188D01*
X168147563Y-60791504D01*
X168131732Y-60779224D01*
X168088969Y-60760718D01*
X168083723Y-60758148D01*
X168037363Y-60732663D01*
X167988098Y-60683118D01*
X167973440Y-60614803D01*
X167998042Y-60549409D01*
X168054094Y-60507696D01*
X168097098Y-60500000D01*
X194376000Y-60500000D01*
X194443039Y-60519685D01*
G37*
%TD.AperFunction*%
%TA.AperFunction,Conductor*%
G36*
X192200507Y-62290156D02*
G01*
X192160000Y-62428111D01*
X192160000Y-62571889D01*
X192200507Y-62709844D01*
X192226314Y-62750000D01*
X190553686Y-62750000D01*
X190579493Y-62709844D01*
X190620000Y-62571889D01*
X190620000Y-62428111D01*
X190579493Y-62290156D01*
X190553686Y-62250000D01*
X192226314Y-62250000D01*
X192200507Y-62290156D01*
G37*
%TD.AperFunction*%
%TD*%
M02*
