%TF.GenerationSoftware,KiCad,Pcbnew,7.0.9-dirty*%
%TF.CreationDate,2023-12-27T00:33:38-08:00*%
%TF.ProjectId,hardware,68617264-7761-4726-952e-6b696361645f,rev?*%
%TF.SameCoordinates,Original*%
%TF.FileFunction,Soldermask,Top*%
%TF.FilePolarity,Negative*%
%FSLAX46Y46*%
G04 Gerber Fmt 4.6, Leading zero omitted, Abs format (unit mm)*
G04 Created by KiCad (PCBNEW 7.0.9-dirty) date 2023-12-27 00:33:38*
%MOMM*%
%LPD*%
G01*
G04 APERTURE LIST*
G04 Aperture macros list*
%AMRoundRect*
0 Rectangle with rounded corners*
0 $1 Rounding radius*
0 $2 $3 $4 $5 $6 $7 $8 $9 X,Y pos of 4 corners*
0 Add a 4 corners polygon primitive as box body*
4,1,4,$2,$3,$4,$5,$6,$7,$8,$9,$2,$3,0*
0 Add four circle primitives for the rounded corners*
1,1,$1+$1,$2,$3*
1,1,$1+$1,$4,$5*
1,1,$1+$1,$6,$7*
1,1,$1+$1,$8,$9*
0 Add four rect primitives between the rounded corners*
20,1,$1+$1,$2,$3,$4,$5,0*
20,1,$1+$1,$4,$5,$6,$7,0*
20,1,$1+$1,$6,$7,$8,$9,0*
20,1,$1+$1,$8,$9,$2,$3,0*%
%AMFreePoly0*
4,1,6,0.725000,-0.725000,-0.725000,-0.725000,-0.725000,0.125000,-0.125000,0.725000,0.725000,0.725000,0.725000,-0.725000,0.725000,-0.725000,$1*%
G04 Aperture macros list end*
%ADD10RoundRect,0.140000X-0.140000X-0.170000X0.140000X-0.170000X0.140000X0.170000X-0.140000X0.170000X0*%
%ADD11RoundRect,0.135000X-0.135000X-0.185000X0.135000X-0.185000X0.135000X0.185000X-0.135000X0.185000X0*%
%ADD12R,1.500000X1.500000*%
%ADD13C,1.500000*%
%ADD14RoundRect,0.100000X-0.275000X-0.125000X0.275000X-0.125000X0.275000X0.125000X-0.275000X0.125000X0*%
%ADD15R,0.350000X0.500000*%
%ADD16C,0.650000*%
%ADD17R,1.450000X0.600000*%
%ADD18R,1.450000X0.300000*%
%ADD19O,2.100000X1.000000*%
%ADD20O,1.600000X1.000000*%
%ADD21R,1.050000X0.650000*%
%ADD22R,1.700000X1.700000*%
%ADD23O,1.700000X1.700000*%
%ADD24RoundRect,0.150000X-0.512500X-0.150000X0.512500X-0.150000X0.512500X0.150000X-0.512500X0.150000X0*%
%ADD25R,1.500000X0.900000*%
%ADD26R,0.400000X0.800000*%
%ADD27R,0.800000X0.400000*%
%ADD28FreePoly0,270.000000*%
%ADD29R,1.450000X1.450000*%
%ADD30R,0.700000X0.700000*%
%ADD31R,1.600000X1.600000*%
%ADD32O,1.600000X1.600000*%
%ADD33RoundRect,0.218750X-0.218750X-0.256250X0.218750X-0.256250X0.218750X0.256250X-0.218750X0.256250X0*%
%ADD34R,2.000000X1.500000*%
%ADD35R,2.000000X3.800000*%
G04 APERTURE END LIST*
D10*
%TO.C,C7*%
X163500000Y-70000000D03*
X164460000Y-70000000D03*
%TD*%
%TO.C,C4*%
X169020000Y-68500000D03*
X169980000Y-68500000D03*
%TD*%
D11*
%TO.C,R9*%
X150690000Y-82000000D03*
X151710000Y-82000000D03*
%TD*%
%TO.C,R18*%
X163230000Y-84080000D03*
X164250000Y-84080000D03*
%TD*%
%TO.C,R3*%
X146480000Y-82150000D03*
X147500000Y-82150000D03*
%TD*%
%TO.C,R1*%
X146480000Y-78650000D03*
X147500000Y-78650000D03*
%TD*%
%TO.C,R2*%
X141980000Y-78650000D03*
X143000000Y-78650000D03*
%TD*%
D12*
%TO.C,U4*%
X145420000Y-87500000D03*
D13*
X147960000Y-87500000D03*
X150500000Y-87500000D03*
X153040000Y-87500000D03*
%TD*%
D14*
%TO.C,U6*%
X156500000Y-75000000D03*
X156500000Y-75500000D03*
X156500000Y-76000000D03*
X159250000Y-76000000D03*
X159250000Y-75500000D03*
X159250000Y-75000000D03*
%TD*%
D10*
%TO.C,C3*%
X173040000Y-66920000D03*
X174000000Y-66920000D03*
%TD*%
D11*
%TO.C,R11*%
X154500000Y-78500000D03*
X155520000Y-78500000D03*
%TD*%
D15*
%TO.C,U5*%
X172700000Y-78000000D03*
X173350000Y-78000000D03*
X174000000Y-78000000D03*
X174650000Y-78000000D03*
X174650000Y-79600000D03*
X174000000Y-79600000D03*
X173350000Y-79600000D03*
X172700000Y-79600000D03*
%TD*%
D11*
%TO.C,R6*%
X167940000Y-70500000D03*
X168960000Y-70500000D03*
%TD*%
D16*
%TO.C,J1*%
X136555000Y-74500000D03*
X136555000Y-80280000D03*
D17*
X138000000Y-74140000D03*
X138000000Y-74940000D03*
D18*
X138000000Y-76140000D03*
X138000000Y-77140000D03*
X138000000Y-77640000D03*
X138000000Y-78640000D03*
D17*
X138000000Y-79840000D03*
X138000000Y-80640000D03*
X138000000Y-80640000D03*
X138000000Y-79840000D03*
D18*
X138000000Y-79140000D03*
X138000000Y-78140000D03*
X138000000Y-76640000D03*
X138000000Y-75640000D03*
D17*
X138000000Y-74940000D03*
X138000000Y-74140000D03*
D19*
X137085000Y-73070000D03*
D20*
X132905000Y-73070000D03*
D19*
X137085000Y-81710000D03*
D20*
X132905000Y-81710000D03*
%TD*%
D21*
%TO.C,SW1*%
X177350000Y-67000000D03*
X181500000Y-67000000D03*
X177350000Y-69150000D03*
X181500000Y-69150000D03*
%TD*%
D11*
%TO.C,R15*%
X172490000Y-84500000D03*
X173510000Y-84500000D03*
%TD*%
D22*
%TO.C,J4*%
X165220000Y-89000000D03*
D23*
X167760000Y-89000000D03*
X170300000Y-89000000D03*
X172840000Y-89000000D03*
X175380000Y-89000000D03*
X177920000Y-89000000D03*
X180460000Y-89000000D03*
X183000000Y-89000000D03*
X185540000Y-89000000D03*
X188080000Y-89000000D03*
X190620000Y-89000000D03*
X193160000Y-89000000D03*
%TD*%
D24*
%TO.C,U2*%
X149725000Y-72500000D03*
X149725000Y-73450000D03*
X149725000Y-74400000D03*
X152000000Y-74400000D03*
X152000000Y-73450000D03*
X152000000Y-72500000D03*
%TD*%
D11*
%TO.C,R10*%
X150690000Y-78500000D03*
X151710000Y-78500000D03*
%TD*%
%TO.C,R16*%
X163230000Y-73920000D03*
X164250000Y-73920000D03*
%TD*%
D10*
%TO.C,C5*%
X173020000Y-74500000D03*
X173980000Y-74500000D03*
%TD*%
D25*
%TO.C,D1*%
X147100000Y-63500000D03*
X147100000Y-66800000D03*
X152000000Y-66800000D03*
X152000000Y-63500000D03*
%TD*%
D26*
%TO.C,U1*%
X188620000Y-72600000D03*
X187820000Y-72600000D03*
X187020000Y-72600000D03*
X186220000Y-72600000D03*
X185420000Y-72600000D03*
X184620000Y-72600000D03*
X183820000Y-72600000D03*
X183020000Y-72600000D03*
X182220000Y-72600000D03*
X181420000Y-72600000D03*
X180620000Y-72600000D03*
D27*
X179720000Y-73700000D03*
X179720000Y-74500000D03*
X179720000Y-75300000D03*
X179720000Y-76100000D03*
X179720000Y-76900000D03*
X179720000Y-77700000D03*
X179720000Y-78500000D03*
X179720000Y-79300000D03*
X179720000Y-80100000D03*
X179720000Y-80900000D03*
X179720000Y-81700000D03*
X179720000Y-82500000D03*
X179720000Y-83300000D03*
D26*
X180620000Y-84400000D03*
X181420000Y-84400000D03*
X182220000Y-84400000D03*
X183020000Y-84400000D03*
X183820000Y-84400000D03*
X184620000Y-84400000D03*
X185420000Y-84400000D03*
X186220000Y-84400000D03*
X187020000Y-84400000D03*
X187820000Y-84400000D03*
X188620000Y-84400000D03*
D27*
X189520000Y-83300000D03*
X189520000Y-82500000D03*
X189520000Y-81700000D03*
X189520000Y-80900000D03*
X189520000Y-80100000D03*
X189520000Y-79300000D03*
X189520000Y-78500000D03*
X189520000Y-77700000D03*
X189520000Y-76900000D03*
X189520000Y-76100000D03*
X189520000Y-75300000D03*
X189520000Y-74500000D03*
X189520000Y-73700000D03*
D28*
X186595000Y-76525000D03*
D29*
X184620000Y-76525000D03*
X182645000Y-76525000D03*
X186595000Y-78500000D03*
X184620000Y-78500000D03*
X182645000Y-78500000D03*
X186595000Y-80475000D03*
X184620000Y-80475000D03*
X182645000Y-80475000D03*
D30*
X189570000Y-84450000D03*
X179670000Y-84450000D03*
X179670000Y-72550000D03*
X189570000Y-72550000D03*
%TD*%
D31*
%TO.C,D3*%
X159000000Y-87310000D03*
D32*
X159000000Y-79690000D03*
%TD*%
D10*
%TO.C,C1*%
X155040000Y-63000000D03*
X156000000Y-63000000D03*
%TD*%
%TO.C,C6*%
X192115000Y-67075000D03*
X193075000Y-67075000D03*
%TD*%
D21*
%TO.C,SW2*%
X185000000Y-67000000D03*
X189150000Y-67000000D03*
X185000000Y-69150000D03*
X189150000Y-69150000D03*
%TD*%
D11*
%TO.C,R5*%
X167980000Y-66920000D03*
X169000000Y-66920000D03*
%TD*%
%TO.C,R4*%
X141980000Y-82150000D03*
X143000000Y-82150000D03*
%TD*%
%TO.C,R8*%
X159480000Y-69500000D03*
X160500000Y-69500000D03*
%TD*%
%TO.C,R12*%
X167980000Y-77920000D03*
X169000000Y-77920000D03*
%TD*%
%TO.C,R17*%
X163230000Y-79000000D03*
X164250000Y-79000000D03*
%TD*%
%TO.C,R14*%
X165990000Y-85000000D03*
X167010000Y-85000000D03*
%TD*%
%TO.C,R7*%
X167960000Y-74420000D03*
X168980000Y-74420000D03*
%TD*%
%TO.C,R13*%
X167980000Y-81500000D03*
X169000000Y-81500000D03*
%TD*%
D33*
%TO.C,D2*%
X155000000Y-69500000D03*
X156575000Y-69500000D03*
%TD*%
D22*
%TO.C,J2*%
X164720000Y-62500000D03*
D23*
X167260000Y-62500000D03*
X169800000Y-62500000D03*
X172340000Y-62500000D03*
X174880000Y-62500000D03*
X177420000Y-62500000D03*
X179960000Y-62500000D03*
X182500000Y-62500000D03*
X185040000Y-62500000D03*
X187580000Y-62500000D03*
X190120000Y-62500000D03*
X192660000Y-62500000D03*
%TD*%
D34*
%TO.C,U3*%
X135850000Y-63200000D03*
X135850000Y-65500000D03*
D35*
X142150000Y-65500000D03*
D34*
X135850000Y-67800000D03*
%TD*%
D10*
%TO.C,C2*%
X158540000Y-63000000D03*
X159500000Y-63000000D03*
%TD*%
M02*
